SplineFontDB: 3.0
FontName: LinBiolinumOKb
FullName: Linux Biolinum Keyboard O
FamilyName: Linux Biolinum Keyboard O
Weight: Regular
Copyright: Linux Libertine by Philipp H. Poll,\nOpen Font under Terms of following Free Software Licenses:\nGPL (General Public License) with font-exception and OFL (Open Font License).\nCreated with FontForge (http://fontforge.sf.net)\nSept 2003, 2004, 2005, 2006, 2007, 2008, 2009, 2010
UComments: "2003-08-29: Created.+AAoA-2004-07-25: v(1.0) release candidate+AAoA-2005-12-28: v(1.1.0) stable+AAoA-2006-01-01: v(2.0.0) stable+AAoA-2006-09-05: v(2.2.0) stable+AAoA-2006-12-04: v(2.3.0) stable+AAoA-2007-03-11: v(2.4.0) stable+AAoA-2007-12-00: v(2.7.0) stable+AAoA-2008-06-00: v(2.8.14) stable+AAoA" 
Version: 0.4.9
ItalicAngle: 0
UnderlinePosition: -98
UnderlineWidth: 40
Ascent: 754
Descent: 246
LayerCount: 3
Layer: 0 0 "Back"  1
Layer: 1 0 "Fore"  0
Layer: 2 0 "Frame"  0
NeedsXUIDChange: 1
XUID: [1021 993 1524925707 2876416]
FSType: 0
OS2Version: 0
OS2_WeightWidthSlopeOnly: 0
OS2_UseTypoMetrics: 0
CreationTime: 1156455862
ModificationTime: 1262759800
PfmFamily: 17
TTFWeight: 700
TTFWidth: 5
LineGap: 0
VLineGap: 0
OS2TypoAscent: 894
OS2TypoAOffset: 0
OS2TypoDescent: -246
OS2TypoDOffset: 0
OS2TypoLinegap: 0
OS2WinAscent: 894
OS2WinAOffset: 0
OS2WinDescent: 246
OS2WinDOffset: 0
HheadAscent: 894
HheadAOffset: 0
HheadDescent: -246
HheadDOffset: 0
OS2FamilyClass: 261
OS2Vendor: 'PfEd'
Lookup: 3 0 0 "'aalt' Alle Alternativen zeigen"  {"'aalt' Alle Alternativen zeigen 1"  } ['aalt' ('DFLT' <'dflt' > 'cyrl' <'dflt' > 'grek' <'dflt' > 'latn' <'AZE ' 'CRT ' 'DEU ' 'MOL ' 'ROM ' 'TRK ' 'dflt' > ) ]
Lookup: 1 0 0 "'locl' Localized Forms Romaenisch"  {"'locl' Localized Forms Romaenisch 1"  } ['locl' ('latn' <'MOL ' 'ROM ' > ) ]
Lookup: 1 0 0 "'smcp' Gemeine nach Kapitaelchen i > i.sc"  {"'smcp' Gemeine nach Kapitaelchen i > i.sc 1"  } ['smcp' ('DFLT' <'dflt' > 'cyrl' <'dflt' > 'grek' <'dflt' > 'latn' <'DEU ' 'MOL ' 'ROM ' 'dflt' > ) ]

StartChar: exclam
Encoding: 33 33 0
Width: 1100
VWidth: 999
Flags: HW
HStem: 73 92<516 574> 559 15G<534 554>
VStem: 498 91<411 562> 498 93<88 147>
LayerCount: 3
Fore
SplineSet
542 534 m 0
 564 534 588 517 588 480 c 0
 588 431 575 399 567 335 c 0
 556 254 555 209 554 198 c 0
 553 190 550 183 542 183 c 0
 533 183 531 189 531 193 c 0
 529 209 525 276 518 335 c 0
 510 401 497 427 497 480 c 0
 497 520 524 534 542 534 c 0
493 80 m 1
 493 83 l 1
 502 105 514 118 539 128 c 1
 541 128 l 1
 565 119 578 107 587 83 c 1
 587 80 l 1
 577 53 565 41 541 35 c 1
 539 35 l 1
 512 41 501 53 493 80 c 1
249 718 m 2
 189 718 156 685 156 625 c 2
 156 -53 l 2
 156 -113 189 -136 249 -136 c 2
 821 -136 l 2
 881 -136 904 -113 904 -53 c 2
 904 625 l 2
 904 685 881 718 821 718 c 2
 249 718 l 2
1000 -84 m 2
 1000 -174 971 -212 881 -212 c 2
 249 -212 l 2
 159 -212 120 -174 120 -84 c 2
 120 625 l 2
 120 708 168 754 249 754 c 2
 851 754 l 2
 941 754 1000 715 1000 625 c 2
 1000 -84 l 2
EndSplineSet
Colour: ff80cc
EndChar

StartChar: quotedbl
Encoding: 34 34 1
Width: 1100
VWidth: 999
Flags: HW
HStem: 449 167<475 499 486 499> 450 167<570 594 580 594>
LayerCount: 3
Fore
SplineSet
562 400 m 1
 551 403 l 1
 551 403 527 523 527 527 c 0
 527 545 543 568 576 568 c 0
 607 568 609 554 609 540 c 0
 609 529 582 405 582 405 c 1
 562 400 l 1
468 399 m 1
 457 402 l 1
 457 402 433 522 433 526 c 0
 433 544 449 567 482 567 c 0
 513 567 515 553 515 539 c 0
 515 528 488 404 488 404 c 1
 468 399 l 1
249 718 m 2
 189 718 156 685 156 625 c 2
 156 -53 l 2
 156 -113 189 -136 249 -136 c 2
 821 -136 l 2
 881 -136 904 -113 904 -53 c 2
 904 625 l 2
 904 685 881 718 821 718 c 2
 249 718 l 2
1000 -84 m 2
 1000 -174 971 -212 881 -212 c 2
 249 -212 l 2
 159 -212 120 -174 120 -84 c 2
 120 625 l 2
 120 708 168 754 249 754 c 2
 851 754 l 2
 941 754 1000 715 1000 625 c 2
 1000 -84 l 2
EndSplineSet
Colour: ff00ff
EndChar

StartChar: numbersign
Encoding: 35 35 2
Width: 1100
Flags: HW
HStem: 208 42<386 446 506 554 611 678> 324 42<405 465 524 572 630 696>
DStem2: 427 82 480 82 0.157407 0.987534<8.30078 127.519 178.504 246.489 297.475 416.331> 534 82 584 82 0.155692 0.987806<7.92518 127.52 178.072 246.491 297.043 416.276>
LayerCount: 3
Fore
SplineSet
560 230 m 1
 572 304 l 1
 519 304 l 1
 515 278 511 256 506 230 c 1
 560 230 l 1
623 304 m 1
 611 230 l 1
 684 230 l 1
 678 188 l 1
 605 188 l 1
 598 146 591 102 584 62 c 1
 534 62 l 1
 554 188 l 1
 500 188 l 1
 493 146 487 102 480 62 c 1
 427 62 l 1
 446 188 l 1
 380 188 l 1
 386 230 l 1
 453 230 l 1
 458 256 462 278 465 304 c 1
 398 304 l 1
 405 347 l 1
 472 347 l 1
 479 388 486 432 492 472 c 1
 546 472 l 1
 524 347 l 1
 578 347 l 1
 585 388 591 432 598 472 c 1
 649 472 l 1
 630 347 l 1
 702 347 l 1
 696 304 l 1
 623 304 l 1
249 718 m 2
 189 718 156 685 156 625 c 2
 156 -53 l 2
 156 -113 189 -136 249 -136 c 2
 821 -136 l 2
 881 -136 904 -113 904 -53 c 2
 904 625 l 2
 904 685 881 718 821 718 c 2
 249 718 l 2
1000 -84 m 2
 1000 -174 971 -212 881 -212 c 2
 249 -212 l 2
 159 -212 120 -174 120 -84 c 2
 120 625 l 2
 120 708 168 754 249 754 c 2
 851 754 l 2
 941 754 1000 715 1000 625 c 2
 1000 -84 l 2
EndSplineSet
EndChar

StartChar: dollar
Encoding: 36 36 3
Width: 1100
VWidth: 999
Flags: HW
HStem: 61 35<464 592> 464 33<494 611>
VStem: 397 78<358 437> 530 33<8 538> 615 84<134 220>
LayerCount: 3
Fore
SplineSet
249 718 m 2
 189 718 156 685 156 625 c 2
 156 -53 l 2
 156 -113 189 -136 249 -136 c 2
 821 -136 l 2
 881 -136 904 -113 904 -53 c 2
 904 625 l 2
 904 685 881 718 821 718 c 2
 249 718 l 2
1000 -84 m 2
 1000 -174 971 -212 881 -212 c 2
 249 -212 l 2
 159 -212 120 -174 120 -84 c 2
 120 625 l 2
 120 708 168 754 249 754 c 2
 851 754 l 2
 941 754 1000 715 1000 625 c 2
 1000 -84 l 2
530 83.1 m 1
 530 246 l 1
 472.2 269.4 397 304.1 397 372 c 0
 397 440.3 466.5 476.3 530 482.9 c 1
 530 525 l 1
 562 525 l 1
 562 483.8 l 1
 634.8 481.3 672 455 672 455 c 1
 674 453 l 1
 668 433 663 399 661 375 c 1
 654 375 l 1
 638.2 410.1 602.3 442.2 562 449.5 c 1
 562 302.5 l 1
 617.2 282.3 699 249.9 699 177 c 0
 699 109.3 635.6 61.9 562 50.6 c 1
 562 -5 l 1
 530 -5 l 1
 530 48 l 2
 529.3 48 528.7 48 528 48 c 0
 454 48 394 78 394 78 c 1
 393 80 l 1
 398 99 404 135 406 159 c 1
 412 159 l 1
 430.4 120.2 486.5 85.2 530 83.1 c 1
530 315.2 m 1
 530 450 l 1
 495.8 445.3 475 424.1 475 389 c 0
 475 348.9 503.8 327.6 530 315.2 c 1
562 233 m 1
 562 85.9 l 1
 593.5 93 615 113.8 615 153 c 0
 615 202.4 593.2 219.2 562 233 c 1
EndSplineSet
EndChar

StartChar: percent
Encoding: 37 37 4
Width: 1100
VWidth: 999
Flags: HW
HStem: 54 25<645 690> 229 27<670 719> 292 25<403 446> 424 34<515 647> 466 27<427 479>
VStem: 344 52<321 431> 484 32<360 440> 585 51<85 190> 726 32<120 225>
DStem2: 376 66 417 57 0.588938 0.808178<16.5784 465.337 488.288 531.946>
LayerCount: 3
Fore
SplineSet
636 106 m 0
 636 77 648 59 662 59 c 0
 701 59 726 125 726 166 c 0
 726 206 707 209 696 209 c 0
 664 209 636 149 636 106 c 0
585 117 m 0
 585 177 621 236 688 236 c 0
 724 236 757 222 757 168 c 0
 757 94 717 34 657 34 c 0
 611 34 585 68 585 117 c 0
577 438 m 0
 609 438 659 442 690 476 c 1
 725 460 l 1
 417 37 l 1
 376 46 l 1
 651 422 l 1
 621 410 592 404 570 404 c 0
 552 404 528 412 514 420 c 1
 516 414 516 410 516 404 c 0
 516 341 477 272 412 272 c 0
 366 272 344 303 344 353 c 0
 344 417 385 472 447 472 c 0
 468 472 489 466 497 457 c 1
 537 438 564 438 577 438 c 0
396 343 m 0
 396 314 407 296 420 296 c 0
 455 296 484 360 484 404 c 0
 484 440 468 446 455 446 c 0
 418 446 396 386 396 343 c 0
249 718 m 2
 189 718 156 685 156 625 c 2
 156 -53 l 2
 156 -113 189 -136 249 -136 c 2
 821 -136 l 2
 881 -136 904 -113 904 -53 c 2
 904 625 l 2
 904 685 881 718 821 718 c 2
 249 718 l 2
1000 -84 m 2
 1000 -174 971 -212 881 -212 c 2
 249 -212 l 2
 159 -212 120 -174 120 -84 c 2
 120 625 l 2
 120 708 168 754 249 754 c 2
 851 754 l 2
 941 754 1000 715 1000 625 c 2
 1000 -84 l 2
EndSplineSet
EndChar

StartChar: parenleft
Encoding: 40 40 5
Width: 1100
VWidth: 999
Flags: HW
VStem: 437 91<152 353>
LayerCount: 3
Fore
SplineSet
437 252 m 0
 437 379 521 517 610 593 c 1
 634 572 l 1
 610 545 528 449 528 252 c 0
 528 55 609 -41 634 -70 c 1
 610 -90 l 1
 467 33 437 186 437 252 c 0
249 718 m 2
 189 718 156 685 156 625 c 2
 156 -53 l 2
 156 -113 189 -136 249 -136 c 2
 821 -136 l 2
 881 -136 904 -113 904 -53 c 2
 904 625 l 2
 904 685 881 718 821 718 c 2
 249 718 l 2
1000 -84 m 2
 1000 -174 971 -212 881 -212 c 2
 249 -212 l 2
 159 -212 120 -174 120 -84 c 2
 120 625 l 2
 120 708 168 754 249 754 c 2
 851 754 l 2
 941 754 1000 715 1000 625 c 2
 1000 -84 l 2
EndSplineSet
Substitution2: "'c2sc' Versale nach Kapitaelchen 1" parenleft.sc
AlternateSubs2: "'aalt' Alle Alternativen zeigen 1" parenleft.sc
Substitution2: "'sinf' Wissenschaftliche Indices 1" parenleft.inferior
Substitution2: "'sups' Hochgestellte 1" parenleft.superior
Substitution2: "'case' Versalformen 1" parenleft.sc
EndChar

StartChar: parenright
Encoding: 41 41 6
Width: 1100
VWidth: 999
Flags: HW
VStem: 572 91<152 353>
LayerCount: 3
Fore
SplineSet
663 252 m 0
 663 186 633 33 490 -90 c 1
 466 -70 l 1
 491 -41 572 55 572 252 c 0
 572 449 490 545 466 572 c 1
 490 593 l 1
 579 517 663 379 663 252 c 0
249 718 m 2
 189 718 156 685 156 625 c 2
 156 -53 l 2
 156 -113 189 -136 249 -136 c 2
 821 -136 l 2
 881 -136 904 -113 904 -53 c 2
 904 625 l 2
 904 685 881 718 821 718 c 2
 249 718 l 2
1000 -84 m 2
 1000 -174 971 -212 881 -212 c 2
 249 -212 l 2
 159 -212 120 -174 120 -84 c 2
 120 625 l 2
 120 708 168 754 249 754 c 2
 851 754 l 2
 941 754 1000 715 1000 625 c 2
 1000 -84 l 2
EndSplineSet
Substitution2: "'c2sc' Versale nach Kapitaelchen 1" parenright.sc
AlternateSubs2: "'aalt' Alle Alternativen zeigen 1" parenright.sc
Substitution2: "'sinf' Wissenschaftliche Indices 1" parenright.inferior
Substitution2: "'sups' Hochgestellte 1" parenright.superior
Substitution2: "'case' Versalformen 1" parenright.sc
Colour: ff00ff
EndChar

StartChar: asterisk
Encoding: 42 42 7
Width: 1100
VWidth: 999
Flags: HMW
HStem: 574 52<482 531 619 675>
VStem: 543 58<613 681>
LayerCount: 3
Fore
SplineSet
521 441 m 1
 512 442 502 445.9 491 444 c 0
 457 438 430 438 430 472 c 0
 430 483 437 496 455 496 c 0
 480 496 493 471 526 457 c 1
 523 487 503 506 503 525 c 0
 503 541 518 555 532 555 c 0
 545 555 562 546 562 528 c 0
 562 508 545 480 543 457 c 1
 577 471 585 498 610 498 c 0
 633 498 639 480 639 472 c 0
 639 450 614 442 587 442 c 0
 573 442 560 442 547 440 c 1
 572 413 611 414 611 376 c 0
 611 363 597 354 587 354 c 0
 550 354 552 401 533 430 c 1
 515 396 525 354 481 354 c 0
 468 354 459 364 459 375 c 0
 459 416 497 412 521 441 c 1
249 718 m 2
 189 718 156 685 156 625 c 2
 156 -53 l 2
 156 -113 189 -136 249 -136 c 2
 821 -136 l 2
 881 -136 904 -113 904 -53 c 2
 904 625 l 2
 904 685 881 718 821 718 c 2
 249 718 l 2
1000 -84 m 2
 1000 -174 971 -212 881 -212 c 2
 249 -212 l 2
 159 -212 120 -174 120 -84 c 2
 120 625 l 2
 120 708 168 754 249 754 c 2
 851 754 l 2
 941 754 1000 715 1000 625 c 2
 1000 -84 l 2
EndSplineSet
EndChar

StartChar: plus
Encoding: 43 43 8
Width: 1100
Flags: HW
HStem: -212 76<179.2 885.174> 204 56<385 513 569 697> 718 36<188.821 875.472>
VStem: 120 36<-107.953 686.051> 513 56<82 204 260 383> 904 96<-118.923 694.8>
LayerCount: 3
Fore
SplineSet
569 260 m 1
 697 260 l 1
 697 204 l 1
 569 204 l 1
 569 82 l 1
 513 82 l 1
 513 204 l 1
 385 204 l 1
 385 260 l 1
 513 260 l 1
 513 383 l 1
 569 383 l 1
 569 260 l 1
249 718 m 2
 189 718 156 685 156 625 c 2
 156 -53 l 2
 156 -113 189 -136 249 -136 c 2
 821 -136 l 2
 881 -136 904 -113 904 -53 c 2
 904 625 l 2
 904 685 881 718 821 718 c 2
 249 718 l 2
1000 -84 m 2
 1000 -174 971 -212 881 -212 c 2
 249 -212 l 2
 159 -212 120 -174 120 -84 c 2
 120 625 l 2
 120 708 168 754 249 754 c 2
 851 754 l 2
 941 754 1000 715 1000 625 c 2
 1000 -84 l 2
EndSplineSet
AlternateSubs2: "'aalt' Alle Alternativen zeigen 1" plus.superior plus.inferior uni2098
Substitution2: "'sinf' Wissenschaftliche Indices 1" plus.inferior
Substitution2: "'sups' Hochgestellte 1" plus.superior
EndChar

StartChar: slash
Encoding: 47 47 9
Width: 1100
VWidth: 999
Flags: HW
HStem: 543 15G<595 645>
VStem: 422 223
DStem2: 422 29 467 29 0.318647 0.947874<14.3391 557.828>
LayerCount: 3
Fore
SplineSet
645 558 m 1
 467 29 l 1
 422 29 l 1
 600 558 l 1
 645 558 l 1
249 718 m 2
 189 718 156 685 156 625 c 2
 156 -53 l 2
 156 -113 189 -136 249 -136 c 2
 821 -136 l 2
 881 -136 904 -113 904 -53 c 2
 904 625 l 2
 904 685 881 718 821 718 c 2
 249 718 l 2
1000 -84 m 2
 1000 -174 971 -212 881 -212 c 2
 249 -212 l 2
 159 -212 120 -174 120 -84 c 2
 120 625 l 2
 120 708 168 754 249 754 c 2
 851 754 l 2
 941 754 1000 715 1000 625 c 2
 1000 -84 l 2
EndSplineSet
Ligature2: "'frac' Brueche 1" uni2215
AlternateSubs2: "'aalt' Alle Alternativen zeigen 1" uni2215
EndChar

StartChar: one
Encoding: 49 49 10
Width: 1100
VWidth: 999
Flags: HW
HStem: 70 16G<201 252 252 303> 403 16G<125 148> 490 15G<277 299>
VStem: 209 86<74 422>
LayerCount: 3
Fore
SplineSet
585 176 m 2
 585 120 587 85 593 42 c 1
 592 40 l 1
 592 40 568 42 542 42 c 0
 516 42 492 40 492 40 c 1
 491 42 l 1
 498 82 499 121 499 176 c 2
 499 349 l 2
 499 374 498 392 486 392 c 0
 472 392 455 388 421 373 c 1
 410 400 l 1
 476 431 547 450 588 475 c 1
 591 475 593 475 593 472 c 0
 591 462 585 433 585 356 c 2
 585 176 l 2
249 718 m 2
 189 718 156 685 156 625 c 2
 156 -53 l 2
 156 -113 189 -136 249 -136 c 2
 821 -136 l 2
 881 -136 904 -113 904 -53 c 2
 904 625 l 2
 904 685 881 718 821 718 c 2
 249 718 l 2
1000 -84 m 2
 1000 -174 971 -212 881 -212 c 2
 249 -212 l 2
 159 -212 120 -174 120 -84 c 2
 120 625 l 2
 120 708 168 754 249 754 c 2
 851 754 l 2
 941 754 1000 715 1000 625 c 2
 1000 -84 l 2
EndSplineSet
AlternateSubs2: "'aalt' Alle Alternativen zeigen 1" one.oldstyle one.superior one.fitted
Substitution2: "'sups' Hochgestellte 1" one.superior
Substitution2: "'sinf' Wissenschaftliche Indices 1" one.inferior
Substitution2: "'pnum' Proportionalziffern 1" one.fitted
Substitution2: "'onum' Minuskelziffern 1" one.taboldstyle
EndChar

StartChar: two
Encoding: 50 50 11
Width: 1100
VWidth: 487
Flags: HW
HStem: 72 52<203 397> 472 34<186 291>
VStem: 120 58<392 448> 310 92<336 452>
DStem2: 198 217 259 204 0.718358 0.695673<-55.7301 156.444>
LayerCount: 3
Fore
SplineSet
537 44 m 0
 483 44 443 42 383 41 c 1
 382 44 l 1
 382 86 388 118 458 189 c 2
 510 241 l 2
 552 284 570 320 570 366 c 0
 570 434 533 444 507 444 c 0
 456 444 438 427 438 409 c 0
 438 403 440 397 442 392 c 0
 444 386 445 381 445 375 c 0
 445 356 426 348 413 348 c 0
 395 348 380 361 380 376 c 0
 380 419 433 477 512 477 c 0
 598 477 661 446 661 369 c 0
 661 315 630 284 590 245 c 2
 519 176 l 2
 515 172 463 130 463 96 c 1
 529 96 l 2
 600 96 620 99 661 102 c 1
 659 93 657 84 657 74 c 0
 657 66 659 50 661 41 c 1
 608 43 591 44 537 44 c 0
249 718 m 2
 189 718 156 685 156 625 c 2
 156 -53 l 2
 156 -113 189 -136 249 -136 c 2
 821 -136 l 2
 881 -136 904 -113 904 -53 c 2
 904 625 l 2
 904 685 881 718 821 718 c 2
 249 718 l 2
1000 -84 m 2
 1000 -174 971 -212 881 -212 c 2
 249 -212 l 2
 159 -212 120 -174 120 -84 c 2
 120 625 l 2
 120 708 168 754 249 754 c 2
 851 754 l 2
 941 754 1000 715 1000 625 c 2
 1000 -84 l 2
EndSplineSet
AlternateSubs2: "'aalt' Alle Alternativen zeigen 1" two.oldstyle two.superior two.fitted
Substitution2: "'sups' Hochgestellte 1" two.superior
Substitution2: "'sinf' Wissenschaftliche Indices 1" two.inferior
Substitution2: "'pnum' Proportionalziffern 1" two.fitted
Substitution2: "'onum' Minuskelziffern 1" two.taboldstyle
EndChar

StartChar: three
Encoding: 51 51 12
Width: 1100
VWidth: 487
Flags: HW
HStem: 64 34<184 278> 288 29<209 233> 471 34<194 278>
VStem: 128 55<392 454> 286 83<379 463> 311 90<148 270>
LayerCount: 3
Fore
SplineSet
504 443 m 0
 483 443 443 438 443 397 c 0
 443 384 435 360 413 360 c 0
 391 360 388 382 388 384 c 0
 388 408 415 476 519 476 c 0
 549 476 579 471 594 462 c 0
 619 447 630 422 630 401 c 0
 630 372 615 337 562 302 c 1
 604 295 661 264 661 186 c 0
 661 87 570 36 486 36 c 0
 443 36 380 50 380 81 c 0
 380 94 395 108 411 108 c 0
 427 108 434.9 100 442 89 c 0
 451 75 459 69 495 69 c 0
 519 69 571 82 571 176 c 0
 571 257 534 263 493 263 c 0
 486 263 478 261 470 260 c 1
 467 289 l 1
 525 299 546 355 546 390 c 0
 546 427 532 443 504 443 c 0
249 718 m 2
 189 718 156 685 156 625 c 2
 156 -53 l 2
 156 -113 189 -136 249 -136 c 2
 821 -136 l 2
 881 -136 904 -113 904 -53 c 2
 904 625 l 2
 904 685 881 718 821 718 c 2
 249 718 l 2
1000 -84 m 2
 1000 -174 971 -212 881 -212 c 2
 249 -212 l 2
 159 -212 120 -174 120 -84 c 2
 120 625 l 2
 120 708 168 754 249 754 c 2
 851 754 l 2
 941 754 1000 715 1000 625 c 2
 1000 -84 l 2
EndSplineSet
AlternateSubs2: "'aalt' Alle Alternativen zeigen 1" three.oldstyle three.superior three.fitted
Substitution2: "'sups' Hochgestellte 1" three.superior
Substitution2: "'sinf' Wissenschaftliche Indices 1" three.inferior
Substitution2: "'pnum' Proportionalziffern 1" three.fitted
Substitution2: "'onum' Minuskelziffern 1" three.taboldstyle
EndChar

StartChar: four
Encoding: 52 52 13
Width: 1100
VWidth: 487
Flags: HW
HStem: 70 16G<298 347 347 382> 183 1<306 374> 183 40<189 306 374 440> 490 15G<295 297>
VStem: 306 68<74 184 223 353>
LayerCount: 3
Fore
SplineSet
384 153 m 2
 362 153 352 176 350 187 c 1
 350 187 351 188 351 189 c 0
 400 243 491 409 521 472 c 0
 522 474 523 475 526 475 c 0
 528 475 561 469 570 467 c 1
 532 376 474 280 419 193 c 1
 536 193 l 1
 536 308 l 2
 536 313 538 319 545 323 c 1
 553 329 581 336 592 336 c 0
 602 336 604 328 604 313 c 2
 604 193 l 1
 663 193 l 2
 670 193 673 186 673 179 c 0
 673 171 663 153 653 153 c 2
 604 153 l 1
 604 96.9 606 84.7 612 42 c 1
 611 40 l 1
 611 40 603 42 577 42 c 0
 551 42 529 40 529 40 c 1
 528 42 l 1
 535 81.8 536 97.8 536 153 c 1
 384 153 l 2
249 718 m 2
 189 718 156 685 156 625 c 2
 156 -53 l 2
 156 -113 189 -136 249 -136 c 2
 821 -136 l 2
 881 -136 904 -113 904 -53 c 2
 904 625 l 2
 904 685 881 718 821 718 c 2
 249 718 l 2
1000 -84 m 2
 1000 -174 971 -212 881 -212 c 2
 249 -212 l 2
 159 -212 120 -174 120 -84 c 2
 120 625 l 2
 120 708 168 754 249 754 c 2
 851 754 l 2
 941 754 1000 715 1000 625 c 2
 1000 -84 l 2
EndSplineSet
AlternateSubs2: "'aalt' Alle Alternativen zeigen 1" four.oldstyle four.superior four.fitted
Substitution2: "'sups' Hochgestellte 1" four.superior
Substitution2: "'sinf' Wissenschaftliche Indices 1" four.inferior
Substitution2: "'pnum' Proportionalziffern 1" four.fitted
Substitution2: "'onum' Minuskelziffern 1" four.taboldstyle
EndChar

StartChar: five
Encoding: 53 53 14
Width: 1100
VWidth: 487
Flags: HW
HStem: 64 36<189 275> 306 42<191 273> 443 54<204 364> 490 15G<351 375>
VStem: 297 90<146 273>
DStem2: 135 289 190 337 0.112752 0.993623<53.867 166.511>
LayerCount: 3
Fore
SplineSet
567 168 m 0
 567 245 546 276 499 276 c 0
 465 276 435 271 405 259 c 1
 429 471 l 1
 454 468 483 467 510 467 c 0
 547 467 600 470 641 474 c 1
 645 472 l 1
 634 417 l 1
 605 414 567 413 546 413 c 0
 512 413 501 416 474 419 c 1
 460 307 l 1
 476 313 489 318 518 318 c 0
 597 318 657 250 657 180 c 0
 657 96 583 34 498 34 c 0
 456 34 390 56 390 88 c 0
 390 104 404 115 418 115 c 0
 435 115 446 102 456 89 c 0
 467 74 476 70 500 70 c 0
 548 70 567 102 567 168 c 0
249 718 m 2
 189 718 156 685 156 625 c 2
 156 -53 l 2
 156 -113 189 -136 249 -136 c 2
 821 -136 l 2
 881 -136 904 -113 904 -53 c 2
 904 625 l 2
 904 685 881 718 821 718 c 2
 249 718 l 2
1000 -84 m 2
 1000 -174 971 -212 881 -212 c 2
 249 -212 l 2
 159 -212 120 -174 120 -84 c 2
 120 625 l 2
 120 708 168 754 249 754 c 2
 851 754 l 2
 941 754 1000 715 1000 625 c 2
 1000 -84 l 2
EndSplineSet
AlternateSubs2: "'aalt' Alle Alternativen zeigen 1" five.oldstyle five.superior five.fitted
Substitution2: "'sups' Hochgestellte 1" five.superior
Substitution2: "'sinf' Wissenschaftliche Indices 1" five.inferior
Substitution2: "'pnum' Proportionalziffern 1" five.fitted
Substitution2: "'onum' Minuskelziffern 1" five.taboldstyle
EndChar

StartChar: six
Encoding: 54 54 15
Width: 1100
VWidth: 487
Flags: HW
HStem: 64 28<242 315> 294 31<222 307> 478 26<338 398>
VStem: 120 85<153 301> 334 85<136 266>
LayerCount: 3
Fore
SplineSet
460 273 m 1
 480 286 507 295 528 295 c 0
 639 295 669 228 669 169 c 0
 669 110 628 34 524 34 c 0
 470 34 370 64 370 214 c 0
 370 321 455 462 647 474 c 1
 650 448 l 1
 605 444 489 430 460 273 c 1
456 245 m 1
 455 236 455 218 455 211 c 0
 455 85 494 62 532 62 c 0
 566 62 584 86 584 164 c 0
 584 199 580 264 513 264 c 0
 500 264 480 263 456 245 c 1
249 718 m 2
 189 718 156 685 156 625 c 2
 156 -53 l 2
 156 -113 189 -136 249 -136 c 2
 821 -136 l 2
 881 -136 904 -113 904 -53 c 2
 904 625 l 2
 904 685 881 718 821 718 c 2
 249 718 l 2
1000 -84 m 2
 1000 -174 971 -212 881 -212 c 2
 249 -212 l 2
 159 -212 120 -174 120 -84 c 2
 120 625 l 2
 120 708 168 754 249 754 c 2
 851 754 l 2
 941 754 1000 715 1000 625 c 2
 1000 -84 l 2
EndSplineSet
AlternateSubs2: "'aalt' Alle Alternativen zeigen 1" six.oldstyle six.superior six.fitted
Substitution2: "'sups' Hochgestellte 1" six.superior
Substitution2: "'sinf' Wissenschaftliche Indices 1" six.inferior
Substitution2: "'pnum' Proportionalziffern 1" six.fitted
Substitution2: "'onum' Minuskelziffern 1" six.taboldstyle
EndChar

StartChar: seven
Encoding: 55 55 16
Width: 1100
VWidth: 487
Flags: HMW
HStem: 62 16G<149 200> 448 49<134 307>
LayerCount: 3
Fore
SplineSet
249 718 m 2
 189 718 156 685 156 625 c 2
 156 -53 l 2
 156 -113 189 -136 249 -136 c 2
 821 -136 l 2
 881 -136 904 -113 904 -53 c 2
 904 625 l 2
 904 685 881 718 821 718 c 2
 249 718 l 2
1000 -84 m 2
 1000 -174 971 -212 881 -212 c 2
 249 -212 l 2
 159 -212 120 -174 120 -84 c 2
 120 625 l 2
 120 708 168 754 249 754 c 2
 851 754 l 2
 941 754 1000 715 1000 625 c 2
 1000 -84 l 2
619.4 410.9 m 1
 577.5 410.6 513.6 409.3 420 404 c 1
 422 415 423 432 423 443 c 0
 423 453 422 461 420 471 c 1
 450 467 527 467 633 467 c 0
 655 467 668 471 679 474 c 1
 691 467 l 1
 611 273 569 155 528 34 c 1
 465 32 l 1
 463 36 l 1
 509.5 140.9 564.9 276.2 619.4 410.9 c 1
EndSplineSet
AlternateSubs2: "'aalt' Alle Alternativen zeigen 1" seven.oldstyle seven.superior seven.fitted
Substitution2: "'sups' Hochgestellte 1" seven.superior
Substitution2: "'sinf' Wissenschaftliche Indices 1" seven.inferior
Substitution2: "'pnum' Proportionalziffern 1" seven.fitted
Substitution2: "'onum' Minuskelziffern 1" seven.taboldstyle
EndChar

StartChar: nine
Encoding: 57 57 17
Width: 1100
VWidth: 487
Flags: HW
HStem: 64 26<288 348> 243 31<379 464> 476 28<371 444>
VStem: 267 85<302 432> 481 85<267 415>
LayerCount: 3
Fore
SplineSet
599 233 m 1
 579 220 552 211 531 211 c 0
 420 211 390 278 390 337 c 0
 390 396 431 472 535 472 c 0
 589 472 689 442 689 292 c 0
 689 185 604 44 412 32 c 1
 409 58 l 1
 454 62 570 76 599 233 c 1
603 261 m 1
 604 270 604 288 604 295 c 0
 604 421 565 444 527 444 c 0
 493 444 475 420 475 342 c 0
 475 307 479 242 546 242 c 0
 559 242 579 243 603 261 c 1
249 718 m 2
 189 718 156 685 156 625 c 2
 156 -53 l 2
 156 -113 189 -136 249 -136 c 2
 821 -136 l 2
 881 -136 904 -113 904 -53 c 2
 904 625 l 2
 904 685 881 718 821 718 c 2
 249 718 l 2
1000 -84 m 2
 1000 -174 971 -212 881 -212 c 2
 249 -212 l 2
 159 -212 120 -174 120 -84 c 2
 120 625 l 2
 120 708 168 754 249 754 c 2
 851 754 l 2
 941 754 1000 715 1000 625 c 2
 1000 -84 l 2
EndSplineSet
AlternateSubs2: "'aalt' Alle Alternativen zeigen 1" nine.oldstyle nine.superior nine.fitted
Substitution2: "'sups' Hochgestellte 1" nine.superior
Substitution2: "'sinf' Wissenschaftliche Indices 1" nine.inferior
Substitution2: "'pnum' Proportionalziffern 1" nine.fitted
Substitution2: "'onum' Minuskelziffern 1" nine.taboldstyle
Colour: ff00ff
EndChar

StartChar: colon
Encoding: 58 58 18
Width: 1100
VWidth: 999
Flags: HW
HStem: -212 76<179.2 885.174> 34 97<502.123 570.724> 246 97<502.123 570.724> 718 36<188.821 875.472>
VStem: 120 36<-107.953 686.051> 487 98<46.5645 115.833 258.564 327.833> 904 96<-118.923 694.8>
LayerCount: 3
Fore
SplineSet
487 293 m 1
 487 296 l 1
 496 319 509 333 535 343 c 1
 537 343 l 1
 562 334 576 321 585 296 c 1
 585 293 l 1
 575 265 562 252 537 246 c 1
 535 246 l 1
 507 252 495 265 487 293 c 1
487 81 m 1
 487 84 l 1
 496 107 509 121 535 131 c 1
 537 131 l 1
 562 122 576 109 585 84 c 1
 585 81 l 1
 575 53 562 40 537 34 c 1
 535 34 l 1
 507 40 495 53 487 81 c 1
249 718 m 2
 189 718 156 685 156 625 c 2
 156 -53 l 2
 156 -113 189 -136 249 -136 c 2
 821 -136 l 2
 881 -136 904 -113 904 -53 c 2
 904 625 l 2
 904 685 881 718 821 718 c 2
 249 718 l 2
1000 -84 m 2
 1000 -174 971 -212 881 -212 c 2
 249 -212 l 2
 159 -212 120 -174 120 -84 c 2
 120 625 l 2
 120 708 168 754 249 754 c 2
 851 754 l 2
 941 754 1000 715 1000 625 c 2
 1000 -84 l 2
EndSplineSet
Colour: ff00ff
EndChar

StartChar: less
Encoding: 60 60 19
Width: 1100
Flags: HW
DStem2: 356 256 439 240 0.939793 0.341743<72.599 326.471> 439 240 356 224 0.939793 -0.341743<0 253.872>
LayerCount: 3
Fore
SplineSet
439 240 m 1
 677 153 l 1
 677 106 l 1
 356 224 l 1
 356 256 l 1
 677 374 l 1
 677 327 l 1
 439 240 l 1
249 718 m 2
 189 718 156 685 156 625 c 2
 156 -53 l 2
 156 -113 189 -136 249 -136 c 2
 821 -136 l 2
 881 -136 904 -113 904 -53 c 2
 904 625 l 2
 904 685 881 718 821 718 c 2
 249 718 l 2
1000 -84 m 2
 1000 -174 971 -212 881 -212 c 2
 249 -212 l 2
 159 -212 120 -174 120 -84 c 2
 120 625 l 2
 120 708 168 754 249 754 c 2
 851 754 l 2
 941 754 1000 715 1000 625 c 2
 1000 -84 l 2
EndSplineSet
EndChar

StartChar: equal
Encoding: 61 61 20
Width: 1100
Flags: HW
HStem: 165 42<375 701> 258 43<375 701>
LayerCount: 3
Fore
SplineSet
701 207 m 1
 701 165 l 1
 375 165 l 1
 375 207 l 1
 701 207 l 1
701 300 m 1
 701 258 l 1
 375 258 l 1
 375 300 l 1
 701 300 l 1
249 718 m 2
 189 718 156 685 156 625 c 2
 156 -53 l 2
 156 -113 189 -136 249 -136 c 2
 821 -136 l 2
 881 -136 904 -113 904 -53 c 2
 904 625 l 2
 904 685 881 718 821 718 c 2
 249 718 l 2
1000 -84 m 2
 1000 -174 971 -212 881 -212 c 2
 249 -212 l 2
 159 -212 120 -174 120 -84 c 2
 120 625 l 2
 120 708 168 754 249 754 c 2
 851 754 l 2
 941 754 1000 715 1000 625 c 2
 1000 -84 l 2
EndSplineSet
AlternateSubs2: "'aalt' Alle Alternativen zeigen 1" equal.superior
Substitution2: "'sinf' Wissenschaftliche Indices 1" equal.inferior
Substitution2: "'sups' Hochgestellte 1" equal.superior
EndChar

StartChar: greater
Encoding: 62 62 21
Width: 1100
Flags: HW
HStem: 104 267<396 396>
VStem: 396 322<254 325>
DStem2: 396 372 396 325 0.939669 -0.342086<15.9101 269.621> 396 151 396 104 0.940012 0.341142<0 253.835>
LayerCount: 3
Fore
SplineSet
633 238 m 1
 396 325 l 1
 396 372 l 1
 717 254 l 1
 717 221 l 1
 396 104 l 1
 396 151 l 1
 633 238 l 1
249 718 m 2
 189 718 156 685 156 625 c 2
 156 -53 l 2
 156 -113 189 -136 249 -136 c 2
 821 -136 l 2
 881 -136 904 -113 904 -53 c 2
 904 625 l 2
 904 685 881 718 821 718 c 2
 249 718 l 2
1000 -84 m 2
 1000 -174 971 -212 881 -212 c 2
 249 -212 l 2
 159 -212 120 -174 120 -84 c 2
 120 625 l 2
 120 708 168 754 249 754 c 2
 851 754 l 2
 941 754 1000 715 1000 625 c 2
 1000 -84 l 2
EndSplineSet
Colour: ff00ff
EndChar

StartChar: question
Encoding: 63 63 22
Width: 1100
VWidth: 487
Flags: HW
HStem: 75 92<490 548> 540 37<485 571>
VStem: 472 93<90 149> 502 34<213 317> 590 85<413 519>
LayerCount: 3
Fore
SplineSet
530 500 m 0
 488 500 457 464 438 430 c 1
 428 431 l 1
 416 488 l 1
 418 491 l 1
 437 506 482 537 537 537 c 0
 613 537 675 492 675 424 c 0
 675 365 616 332 581 306 c 0
 559 290 536 269 536 214 c 2
 536 185 l 2
 536 179 525 173 519 173 c 0
 513 173 502 179 502 185 c 2
 502 215 l 2
 502 248 511.4 291.6 559 336 c 0
 589 364 590 386 590 421 c 0
 590 470 573 500 530 500 c 0
477 81 m 1
 477 84 l 1
 486 106 498 119 523 129 c 1
 525 129 l 1
 549 120 562 108 571 84 c 1
 571 81 l 1
 561 54 549 42 525 36 c 1
 523 36 l 1
 496 42 485 54 477 81 c 1
249 718 m 2
 189 718 156 685 156 625 c 2
 156 -53 l 2
 156 -113 189 -136 249 -136 c 2
 821 -136 l 2
 881 -136 904 -113 904 -53 c 2
 904 625 l 2
 904 685 881 718 821 718 c 2
 249 718 l 2
1000 -84 m 2
 1000 -174 971 -212 881 -212 c 2
 249 -212 l 2
 159 -212 120 -174 120 -84 c 2
 120 625 l 2
 120 708 168 754 249 754 c 2
 851 754 l 2
 941 754 1000 715 1000 625 c 2
 1000 -84 l 2
EndSplineSet
Colour: ff80cc
EndChar

StartChar: at
Encoding: 64 64 23
Width: 1100
Flags: HW
HStem: -212 76<179.2 885.174> -52 29<473.254 640.961> 82 31<620 697.733> 90 32<489.175 554.329> 354 25<545.853 609.396> 506 27<473.322 615.749> 718 36<188.821 875.472>
VStem: 120 36<-107.953 686.051> 237 70<129.304 340.022> 405 73<127.662 274.948> 771 64<194.204 374.622> 904 96<-118.923 694.8>
LayerCount: 3
Fore
SplineSet
622 308 m 0
 622 334 604 354 585 354 c 0
 575 354 551.1 352.9 525 325 c 0
 491.2 288.9 478 238 478 191 c 0
 478 155 485 122 520 122 c 0
 543 122 580 148 601 212 c 1
 608 237 622 290 622 308 c 0
648 124 m 0
 648 114 653 113 661 113 c 0
 689 113 771 164 771 272 c 0
 771 438 633 506 546 506 c 0
 429 506 307 412 307 239 c 0
 307 128 375 -23 559 -23 c 0
 616 -23 669 -5 716 33 c 1
 725 30 730 21 732 11 c 1
 684 -25 637 -52 544 -52 c 0
 367 -52 237 62 237 233 c 0
 237 389 363 533 553 533 c 0
 722 533 835 425 835 283 c 0
 835 178 747 82 646 82 c 0
 594 82 580 109 580 125 c 1
 549 96 519 90 501 90 c 0
 414 90 405 155 405 186 c 0
 405 295 497 379 583 379 c 0
 619 379 641 366 654 350 c 1
 681 375 l 1
 702 367 l 1
 657 173 l 2
 653 154 648 132 648 124 c 0
249 718 m 2
 189 718 156 685 156 625 c 2
 156 -53 l 2
 156 -113 189 -136 249 -136 c 2
 821 -136 l 2
 881 -136 904 -113 904 -53 c 2
 904 625 l 2
 904 685 881 718 821 718 c 2
 249 718 l 2
1000 -84 m 2
 1000 -174 971 -212 881 -212 c 2
 249 -212 l 2
 159 -212 120 -174 120 -84 c 2
 120 625 l 2
 120 708 168 754 249 754 c 2
 851 754 l 2
 941 754 1000 715 1000 625 c 2
 1000 -84 l 2
EndSplineSet
EndChar

StartChar: A
Encoding: 65 65 24
Width: 1100
Flags: HW
HStem: -212 76<179.2 885.174> 207 39<441.391 618> 412 20G<503 515 530 566> 718 36<188.821 875.472>
VStem: 120 36<-107.953 686.051> 663 114<39 86.3662> 904 96<-118.923 694.8>
LayerCount: 3
Fore
SplineSet
249 718 m 2
 189 718 156 685 156 625 c 2
 156 -53 l 2
 156 -113 189 -136 249 -136 c 2
 821 -136 l 2
 881 -136 904 -113 904 -53 c 2
 904 625 l 2
 904 685 881 718 821 718 c 2
 249 718 l 2
1000 -84 m 2
 1000 -174 971 -212 881 -212 c 2
 249 -212 l 2
 159 -212 120 -174 120 -84 c 2
 120 625 l 2
 120 708 168 754 249 754 c 2
 851 754 l 2
 941 754 1000 715 1000 625 c 2
 1000 -84 l 2
522.5 414.7 m 1
 450.9 248 l 1
 474.7 247.7 507.2 246 529 246 c 0
 546.3 246 570 246.5 591.5 247.1 c 1
 572.9 295.1 550.1 351 522.5 414.7 c 1
433.2 205.1 m 1
 407.7 142.2 385.7 83.3 374 39 c 1
 365 41 348 41 340 41 c 0
 332 41 307 41 298 39 c 1
 374 204 447 368 519 534 c 1
 572 534 l 1
 641 370 740 114 777 39 c 1
 764 41 729 41 716 41 c 0
 704 41 676 41 663 39 c 1
 658.7 54.9 642.5 111.1 607.2 205.6 c 1
 582.6 206.3 556.6 207 533 207 c 0
 506 207 462.3 206.1 433.2 205.1 c 1
EndSplineSet
Position2: "'cpsp' Versalabstaende 1" dx=2 dy=0 dh=4 dv=0
Substitution2: "'c2sc' Versale nach Kapitaelchen 1" a.sc
EndChar

StartChar: B
Encoding: 66 66 25
Width: 1100
VWidth: 999
Flags: HW
HStem: 78 40<429 596> 322 40<450 570> 527 40<428 568>
VStem: 354 96<124 322 362 522> 589 97<398 505> 624 106<160 280>
LayerCount: 3
Fore
SplineSet
450 453 m 2
 450 322 l 1
 504 322 l 2
 567 322 589 338 589 401 c 0
 589 478 556 487 514 487 c 0
 453 487 450 478 450 453 c 2
450 282 m 1
 450 113 l 2
 450 89 459 78 511 78 c 0
 612 78 624 110 624 164 c 0
 624 232 603 282 516 282 c 2
 450 282 l 1
402 524 m 0
 444 524 483 527 509 527 c 0
 648 527 686 461 686 410 c 0
 686 369 654 329 616 311 c 1
 681 292 730 251 730 179 c 0
 730 114 675 38 525 38 c 0
 459 38 450 41 402 41 c 0
 376 41 348 38 348 38 c 1
 347 41 l 1
 353 81 354 134 354 191 c 2
 354 374 l 2
 354 431 353 482 347 524 c 1
 348 527 l 1
 348 527 377 524 402 524 c 0
249 718 m 2
 189 718 156 685 156 625 c 2
 156 -53 l 2
 156 -113 189 -136 249 -136 c 2
 821 -136 l 2
 881 -136 904 -113 904 -53 c 2
 904 625 l 2
 904 685 881 718 821 718 c 2
 249 718 l 2
1000 -84 m 2
 1000 -174 971 -212 881 -212 c 2
 249 -212 l 2
 159 -212 120 -174 120 -84 c 2
 120 625 l 2
 120 708 168 754 249 754 c 2
 851 754 l 2
 941 754 1000 715 1000 625 c 2
 1000 -84 l 2
EndSplineSet
Position2: "'cpsp' Versalabstaende 1" dx=2 dy=0 dh=4 dv=0
Substitution2: "'c2sc' Versale nach Kapitaelchen 1" b.sc
EndChar

StartChar: C
Encoding: 67 67 26
Width: 1100
VWidth: 999
Flags: HW
HStem: -212 76<179.2 885.174> 34 44<473.301 637.148> 492 42<476.962 628.553> 718 36<188.821 875.472>
VStem: 120 36<-107.953 686.051> 292 109<171.935 372.978> 904 96<-118.923 694.8>
LayerCount: 3
Fore
SplineSet
554 534 m 0
 645 534 717 501 717 501 c 1
 719 498 l 1
 710 462 706 439 704 401 c 1
 696 400 l 1
 665 462 611 492 543 492 c 0
 482 492 401 444 401 292 c 0
 401 182 434 78 550 78 c 0
 620 78 671 94 724 153 c 1
 741 135 l 1
 690 68 608 34 536 34 c 0
 374 34 292 156 292 277 c 0
 292 425 427 534 554 534 c 0
249 718 m 2
 189 718 156 685 156 625 c 2
 156 -53 l 2
 156 -113 189 -136 249 -136 c 2
 821 -136 l 2
 881 -136 904 -113 904 -53 c 2
 904 625 l 2
 904 685 881 718 821 718 c 2
 249 718 l 2
1000 -84 m 2
 1000 -174 971 -212 881 -212 c 2
 249 -212 l 2
 159 -212 120 -174 120 -84 c 2
 120 625 l 2
 120 708 168 754 249 754 c 2
 851 754 l 2
 941 754 1000 715 1000 625 c 2
 1000 -84 l 2
EndSplineSet
Position2: "'cpsp' Versalabstaende 1" dx=2 dy=0 dh=4 dv=0
Substitution2: "'c2sc' Versale nach Kapitaelchen 1" c.sc
EndChar

StartChar: D
Encoding: 68 68 27
Width: 1100
VWidth: 999
Flags: HW
HStem: 79 33<368 565> 534 33<368 533>
VStem: 317 64<118 526> 655 77<215 400>
LayerCount: 3
Fore
SplineSet
413 109 m 2
 413 85 421 79 495 79 c 0
 600 79 671 102 671 254 c 0
 671 369 638 487 476 487 c 0
 439 487 413 483 413 457 c 2
 413 109 l 2
365 524 m 0
 420 524 450 527 504 527 c 0
 648 527 780 411 780 272 c 0
 780 87 624 39 518 39 c 0
 441 39 425 41 365 41 c 0
 339 41 310 38 310 38 c 1
 309 41 l 1
 315 81 317 134 317 191 c 2
 317 374 l 2
 317 431 315 482 309 524 c 1
 311 527 l 1
 311 527 339 524 365 524 c 0
249 718 m 2
 189 718 156 685 156 625 c 2
 156 -53 l 2
 156 -113 189 -136 249 -136 c 2
 821 -136 l 2
 881 -136 904 -113 904 -53 c 2
 904 625 l 2
 904 685 881 718 821 718 c 2
 249 718 l 2
1000 -84 m 2
 1000 -174 971 -212 881 -212 c 2
 249 -212 l 2
 159 -212 120 -174 120 -84 c 2
 120 625 l 2
 120 708 168 754 249 754 c 2
 851 754 l 2
 941 754 1000 715 1000 625 c 2
 1000 -84 l 2
EndSplineSet
Position2: "'cpsp' Versalabstaende 1" dx=2 dy=0 dh=4 dv=0
Substitution2: "'c2sc' Versale nach Kapitaelchen 1" d.sc
EndChar

StartChar: E
Encoding: 69 69 28
Width: 1100
VWidth: 999
Flags: HW
HStem: -212 76<179.2 885.174> 41 47<455.953 670.434> 278 38<453 617.588> 472 21G<459 665> 481 43<456.105 662.434> 718 36<188.821 875.472>
VStem: 120 36<-107.953 686.051> 357 96<88.8829 278 316 479.855> 904 96<-118.923 694.8>
LayerCount: 3
Fore
SplineSet
453 191 m 2
 453 178 454 106 459 88 c 1
 560 88 671 97 671 97 c 1
 672 94 l 1
 672 88 671 75 671 68 c 0
 671 60 672 51 672 41 c 1
 671 38 l 1
 659 40 642 41 626 41 c 2
 405 41 l 2
 379 41 350 38 350 38 c 1
 350 41 l 1
 356 81 357 134 357 191 c 2
 357 374 l 2
 357 431 356 482 350 524 c 1
 351 527 l 1
 351 527 380 524 405 524 c 0
 428 524 618 524 618 524 c 2
 634 524 651 525 663 527 c 1
 665 524 l 1
 664 514 663 504 663 498 c 0
 663 491 664 481 665 475 c 1
 663 472 l 1
 663 472 560 481 459 481 c 1
 454 463 453 387 453 374 c 2
 453 316 l 1
 542 316 576 320 620 323 c 1
 623 321 l 1
 621 314 620 304 620 297 c 0
 620 290 621 279 623 272 c 1
 620 270 l 1
 569 275 489 278 453 278 c 1
 453 191 l 2
249 718 m 2
 189 718 156 685 156 625 c 2
 156 -53 l 2
 156 -113 189 -136 249 -136 c 2
 821 -136 l 2
 881 -136 904 -113 904 -53 c 2
 904 625 l 2
 904 685 881 718 821 718 c 2
 249 718 l 2
1000 -84 m 2
 1000 -174 971 -212 881 -212 c 2
 249 -212 l 2
 159 -212 120 -174 120 -84 c 2
 120 625 l 2
 120 708 168 754 249 754 c 2
 851 754 l 2
 941 754 1000 715 1000 625 c 2
 1000 -84 l 2
EndSplineSet
Position2: "'cpsp' Versalabstaende 1" dx=2 dy=0 dh=4 dv=0
Substitution2: "'c2sc' Versale nach Kapitaelchen 1" e.sc
EndChar

StartChar: F
Encoding: 70 70 29
Width: 1100
VWidth: 999
Flags: HW
HStem: -212 76<179.2 885.174> 278 38<454 618.588> 472 21G<460 666> 481 43<457.105 663.434> 718 36<188.821 875.472>
VStem: 120 36<-107.953 686.051> 358 96<42.9753 278 316 479.855> 904 96<-118.923 694.8>
LayerCount: 3
Fore
SplineSet
617 524 m 2
 635 524 652 525 664 527 c 1
 666 524 l 1
 665 514 664 504 664 498 c 0
 664 491 665 481 666 475 c 1
 664 472 l 1
 664 472 560 481 460 481 c 1
 455 463 454 387 454 374 c 2
 454 316 l 1
 542 316 577 320 621 323 c 1
 624 321 l 1
 622 314 621 304 621 297 c 0
 621 290 622 279 624 272 c 1
 621 270 l 1
 570 275 490 278 454 278 c 1
 454 191 l 2
 454 134 456 83 462 41 c 1
 460 38 l 1
 460 38 432 41 406 41 c 0
 380 41 351 38 351 38 c 1
 350 41 l 1
 356 81 358 134 358 191 c 2
 358 374 l 2
 358 431 356 482 350 524 c 1
 352 527 l 1
 352 527 380 524 406 524 c 2
 617 524 l 2
249 718 m 2
 189 718 156 685 156 625 c 2
 156 -53 l 2
 156 -113 189 -136 249 -136 c 2
 821 -136 l 2
 881 -136 904 -113 904 -53 c 2
 904 625 l 2
 904 685 881 718 821 718 c 2
 249 718 l 2
1000 -84 m 2
 1000 -174 971 -212 881 -212 c 2
 249 -212 l 2
 159 -212 120 -174 120 -84 c 2
 120 625 l 2
 120 708 168 754 249 754 c 2
 851 754 l 2
 941 754 1000 715 1000 625 c 2
 1000 -84 l 2
EndSplineSet
Position2: "'cpsp' Versalabstaende 1" dx=2 dy=0 dh=4 dv=0
Substitution2: "'c2sc' Versale nach Kapitaelchen 1" f.sc
EndChar

StartChar: G
Encoding: 71 71 30
Width: 1100
VWidth: 999
Flags: HW
HStem: -212 46<169.359 930.641> 74 41<489.075 658.576> 440 21G<703.5 727> 532 42<470.668 642.78> 708 46<168.938 931.062>
VStem: 120 46<-162.981 705.906> 284 108<219.789 411.607> 669 96<143.284 308.984> 934 46<-162.981 705.906>
LayerCount: 3
Fore
SplineSet
669 129 m 2
 669 185 668 228 662 271 c 1
 663 274 l 1
 663 274 692 271 717 271 c 0
 743 271 772 274 772 274 c 1
 772 271 l 1
 766 232 765 200 765 144 c 0
 765 119 768 109 772 103 c 1
 772 101 l 1
 722 59 645 34 557 34 c 0
 406 34 284 142 284 271 c 0
 284 436 432 534 561 534 c 0
 652 534 740 501 740 501 c 1
 742 498 l 1
 733 462 729 439 727 401 c 1
 719 400 l 1
 688 462 618 492 550 492 c 0
 449 492 392 418 392 286 c 0
 392 187 441 75 574 75 c 0
 615 75 644 79 669 103 c 1
 669 129 l 2
249 718 m 2
 189 718 156 685 156 625 c 2
 156 -53 l 2
 156 -113 189 -136 249 -136 c 2
 821 -136 l 2
 881 -136 904 -113 904 -53 c 2
 904 625 l 2
 904 685 881 718 821 718 c 2
 249 718 l 2
1000 -84 m 2
 1000 -174 971 -212 881 -212 c 2
 249 -212 l 2
 159 -212 120 -174 120 -84 c 2
 120 625 l 2
 120 708 168 754 249 754 c 2
 851 754 l 2
 941 754 1000 715 1000 625 c 2
 1000 -84 l 2
EndSplineSet
Position2: "'cpsp' Versalabstaende 1" dx=2 dy=0 dh=4 dv=0
Substitution2: "'c2sc' Versale nach Kapitaelchen 1" g.sc
EndChar

StartChar: grave
Encoding: 96 96 31
Width: 1100
VWidth: 999
Flags: HW
LayerCount: 3
Fore
SplineSet
532 513 m 1
 584 421 l 2
 587 415 590 407 590 401 c 0
 590 394 584 389 578 389 c 0
 572 389 564 393 551 404 c 2
 461 483 l 1
 462 491 l 1
 468 498 490 515 517 515 c 0
 521 515 529 514 532 513 c 1
249 718 m 2
 189 718 156 685 156 625 c 2
 156 -53 l 2
 156 -113 189 -136 249 -136 c 2
 821 -136 l 2
 881 -136 904 -113 904 -53 c 2
 904 625 l 2
 904 685 881 718 821 718 c 2
 249 718 l 2
1000 -84 m 2
 1000 -174 971 -212 881 -212 c 2
 249 -212 l 2
 159 -212 120 -174 120 -84 c 2
 120 625 l 2
 120 708 168 754 249 754 c 2
 851 754 l 2
 941 754 1000 715 1000 625 c 2
 1000 -84 l 2
EndSplineSet
Substitution2: "'case' Versalformen 1" grave.cap
Colour: ff00ff
EndChar

StartChar: ograve
Encoding: 242 242 32
Width: 1100
VWidth: 999
Flags: HW
HStem: 83 38<499 588> 382 38<487 583>
VStem: 363 96<174 323> 616 96<180 328>
LayerCount: 3
Fore
SplineSet
544.7 588.1 m 1
 601.8 486.9 l 2
 605.1 480.3 608.5 471.5 608.5 464.9 c 0
 608.5 457.2 601.8 451.7 595.2 451.7 c 0
 588.6 451.7 579.8 456.1 565.5 468.2 c 2
 466.5 555.1 l 1
 467.7 563.9 l 1
 474.3 571.6 498.5 590.3 528.2 590.3 c 0
 532.6 590.3 541.4 589.2 544.7 588.1 c 1
363 197 m 0
 363 300 428 373 536 373 c 0
 662 373 705 282 705 204 c 0
 705 124 649 36 534 36 c 0
 422 36 363 115 363 197 c 0
530 335 m 0
 466 335 459 280 459 215 c 0
 459 157 466 74 544 74 c 0
 578 74 609 98 609 184 c 0
 609 288 594 335 530 335 c 0
249 718 m 2
 189 718 156 685 156 625 c 2
 156 -53 l 2
 156 -113 189 -136 249 -136 c 2
 821 -136 l 2
 881 -136 904 -113 904 -53 c 2
 904 625 l 2
 904 685 881 718 821 718 c 2
 249 718 l 2
1000 -84 m 2
 1000 -174 971 -212 881 -212 c 2
 249 -212 l 2
 159 -212 120 -174 120 -84 c 2
 120 625 l 2
 120 708 168 754 249 754 c 2
 851 754 l 2
 941 754 1000 715 1000 625 c 2
 1000 -84 l 2
EndSplineSet
Substitution2: "'smcp' Gemeine nach Kapitaelchen 1" ograve.sc
AlternateSubs2: "'aalt' Alle Alternativen zeigen 1" ograve.sc
Colour: ff00ff
EndChar

StartChar: oacute
Encoding: 243 243 33
Width: 1100
VWidth: 999
Flags: HW
HStem: 83 38<499 588> 382 38<487 583>
VStem: 363 96<174 323> 616 96<180 328>
LayerCount: 3
Fore
SplineSet
533.3 578.2 m 1
 535.5 579.3 542.1 580.5 546.5 580.5 c 0
 571.8 580.5 587.2 568.4 593.8 560.7 c 1
 601.5 540.8 l 1
 502.5 451.8 l 2
 491.5 441.9 479.4 438.5 471.7 438.5 c 0
 465.1 438.5 458.5 445.2 458.5 450.7 c 0
 458.5 455.1 459.6 462.8 465.1 470.5 c 2
 533.3 578.2 l 1
363 197 m 0
 363 300 428 373 536 373 c 0
 662 373 705 282 705 204 c 0
 705 124 649 36 534 36 c 0
 422 36 363 115 363 197 c 0
530 335 m 0
 466 335 459 280 459 215 c 0
 459 157 466 74 544 74 c 0
 578 74 609 98 609 184 c 0
 609 288 594 335 530 335 c 0
249 718 m 2
 189 718 156 685 156 625 c 2
 156 -53 l 2
 156 -113 189 -136 249 -136 c 2
 821 -136 l 2
 881 -136 904 -113 904 -53 c 2
 904 625 l 2
 904 685 881 718 821 718 c 2
 249 718 l 2
1000 -84 m 2
 1000 -174 971 -212 881 -212 c 2
 249 -212 l 2
 159 -212 120 -174 120 -84 c 2
 120 625 l 2
 120 708 168 754 249 754 c 2
 851 754 l 2
 941 754 1000 715 1000 625 c 2
 1000 -84 l 2
EndSplineSet
Substitution2: "'smcp' Gemeine nach Kapitaelchen 1" oacute.sc
AlternateSubs2: "'aalt' Alle Alternativen zeigen 1" oacute.sc
Colour: ff00ff
EndChar

StartChar: ocircumflex
Encoding: 244 244 34
Width: 1100
VWidth: 999
Flags: HW
HStem: 79 38<499 588> 379 38<487 583>
VStem: 363 96<171 320> 430 190<475 475> 616 96<176 324>
LayerCount: 3
Fore
SplineSet
548 548.8 m 1
 573.3 508.1 604 471.8 634.8 437.7 c 1
 614 422.2 l 1
 578.8 444.2 554.6 460.8 526 490.5 c 1
 495.2 458.6 472 444.2 439 422.2 c 1
 418.2 437.7 l 1
 447.9 471.8 480.8 509.2 505 548.8 c 1
 548 548.8 l 1
363 197 m 0
 363 300 428 373 536 373 c 0
 662 373 705 282 705 204 c 0
 705 124 649 36 534 36 c 0
 422 36 363 115 363 197 c 0
530 335 m 0
 466 335 459 280 459 215 c 0
 459 157 466 74 544 74 c 0
 578 74 609 98 609 184 c 0
 609 288 594 335 530 335 c 0
249 718 m 2
 189 718 156 685 156 625 c 2
 156 -53 l 2
 156 -113 189 -136 249 -136 c 2
 821 -136 l 2
 881 -136 904 -113 904 -53 c 2
 904 625 l 2
 904 685 881 718 821 718 c 2
 249 718 l 2
1000 -84 m 2
 1000 -174 971 -212 881 -212 c 2
 249 -212 l 2
 159 -212 120 -174 120 -84 c 2
 120 625 l 2
 120 708 168 754 249 754 c 2
 851 754 l 2
 941 754 1000 715 1000 625 c 2
 1000 -84 l 2
EndSplineSet
Substitution2: "'smcp' Gemeine nach Kapitaelchen 1" ocircumflex.sc
AlternateSubs2: "'aalt' Alle Alternativen zeigen 1" ocircumflex.sc
Colour: ff00ff
EndChar

StartChar: otilde
Encoding: 245 245 35
Width: 1100
VWidth: 999
Flags: HW
HStem: 77 38<499 588> 376 38<487 583> 479 33<533 598> 515 34<445 513> 544 8
VStem: 363 96<168 317> 616 96<174 322>
LayerCount: 3
Fore
SplineSet
578 486.1 m 0
 596.7 486.1 606.7 492.7 618.8 533.4 c 1
 641.8 525.7 l 1
 630.8 469.6 606.6 436.6 567 436.6 c 0
 547.2 436.6 529.7 448.7 513.2 460.8 c 0
 496.7 471.8 480.2 482.8 464.8 482.8 c 0
 442.8 482.8 434 470.7 425.2 438.8 c 1
 403.2 445.4 l 1
 415.3 501.5 435 532.3 471.3 532.3 c 0
 497.7 532.3 516.5 519.1 533 505.9 c 0
 547.3 494.9 561.5 486.1 578 486.1 c 0
363 197 m 0
 363 300 428 373 536 373 c 0
 662 373 705 282 705 204 c 0
 705 124 649 36 534 36 c 0
 422 36 363 115 363 197 c 0
530 335 m 0
 466 335 459 280 459 215 c 0
 459 157 466 74 544 74 c 0
 578 74 609 98 609 184 c 0
 609 288 594 335 530 335 c 0
249 718 m 2
 189 718 156 685 156 625 c 2
 156 -53 l 2
 156 -113 189 -136 249 -136 c 2
 821 -136 l 2
 881 -136 904 -113 904 -53 c 2
 904 625 l 2
 904 685 881 718 821 718 c 2
 249 718 l 2
1000 -84 m 2
 1000 -174 971 -212 881 -212 c 2
 249 -212 l 2
 159 -212 120 -174 120 -84 c 2
 120 625 l 2
 120 708 168 754 249 754 c 2
 851 754 l 2
 941 754 1000 715 1000 625 c 2
 1000 -84 l 2
EndSplineSet
Substitution2: "'smcp' Gemeine nach Kapitaelchen 1" otilde.sc
AlternateSubs2: "'aalt' Alle Alternativen zeigen 1" otilde.sc
Colour: ff00ff
EndChar

StartChar: odieresis
Encoding: 246 246 36
Width: 1100
VWidth: 999
Flags: HW
HStem: 75 38<499 588> 374 38<487 583> 478 69<436 494 556 614>
VStem: 363 96<166 315> 430 69<483 541> 550 69<483 541> 616 96<172 320>
LayerCount: 3
Fore
SplineSet
556.8 501 m 0
 556.8 526.3 576.6 546 600.8 546 c 0
 625 546 645.8 526.3 645.8 501 c 0
 645.8 476.8 625 457 600.8 457 c 0
 576.6 457 556.8 476.8 556.8 501 c 0
407.2 501 m 0
 407.2 526.3 428 546 452.2 546 c 0
 476.4 546 496.2 526.3 496.2 501 c 0
 496.2 476.8 476.4 457 452.2 457 c 0
 428 457 407.2 476.8 407.2 501 c 0
363 197 m 0
 363 300 428 373 536 373 c 0
 662 373 705 282 705 204 c 0
 705 124 649 36 534 36 c 0
 422 36 363 115 363 197 c 0
530 335 m 0
 466 335 459 280 459 215 c 0
 459 157 466 74 544 74 c 0
 578 74 609 98 609 184 c 0
 609 288 594 335 530 335 c 0
249 718 m 2
 189 718 156 685 156 625 c 2
 156 -53 l 2
 156 -113 189 -136 249 -136 c 2
 821 -136 l 2
 881 -136 904 -113 904 -53 c 2
 904 625 l 2
 904 685 881 718 821 718 c 2
 249 718 l 2
1000 -84 m 2
 1000 -174 971 -212 881 -212 c 2
 249 -212 l 2
 159 -212 120 -174 120 -84 c 2
 120 625 l 2
 120 708 168 754 249 754 c 2
 851 754 l 2
 941 754 1000 715 1000 625 c 2
 1000 -84 l 2
EndSplineSet
Substitution2: "'smcp' Gemeine nach Kapitaelchen 1" odieresis.sc
AlternateSubs2: "'aalt' Alle Alternativen zeigen 1" odieresis.sc
Colour: ff00ff
EndChar

StartChar: divide
Encoding: 247 247 37
Width: 527
VWidth: 999
Flags: HW
HStem: -212 76<-60.7998 645.174> 60 86<238.182 303.644> 190 59<100 427> 285 86<238.746 303.104> 718 36<-51.179 635.472>
VStem: -120 36<-107.953 686.051> 227 87<69.334 134.346 294.018 359.029> 664 96<-118.923 694.8>
LayerCount: 3
Fore
SplineSet
227 326 m 1
 227 329 l 1
 235 349 247 362 270 371 c 1
 272 371 l 1
 294 363 306 351 314 329 c 1
 314 326 l 1
 305 301 294 291 272 285 c 1
 270 285 l 1
 245 291 234 301 227 326 c 1
227 102 m 1
 227 105 l 1
 235 125 247 137 270 146 c 1
 272 146 l 1
 294 138 306 127 314 105 c 1
 314 102 l 1
 305 77 294 66 272 60 c 1
 270 60 l 1
 245 66 234 77 227 102 c 1
427 248 m 1
 427 191 l 1
 100 191 l 1
 100 248 l 1
 427 248 l 1
9 718 m 2
 -51 718 -84 685 -84 625 c 2
 -84 -53 l 2
 -84 -113 -51 -136 9 -136 c 2
 581 -136 l 2
 641 -136 664 -113 664 -53 c 2
 664 625 l 2
 664 685 641 718 581 718 c 2
 9 718 l 2
760 -84 m 2
 760 -174 731 -212 641 -212 c 2
 9 -212 l 2
 -81 -212 -120 -174 -120 -84 c 2
 -120 625 l 2
 -120 708 -72 754 9 754 c 2
 611 754 l 2
 701 754 760 715 760 625 c 2
 760 -84 l 2
EndSplineSet
Colour: ff00ff
EndChar

StartChar: ugrave
Encoding: 249 249 38
Width: 1100
VWidth: 999
Flags: HW
HStem: -212 76<179.2 885.174> 35 48<474.899 551.764> 718 36<188.821 875.472>
VStem: 120 36<-107.953 686.051> 375 89<92.9125 362.036> 588 89<115.094 362.036> 904 96<-118.923 694.8>
LayerCount: 3
Fore
SplineSet
510.7 588.1 m 1
 567.8 486.9 l 2
 571.1 480.3 574.5 471.5 574.5 464.9 c 0
 574.5 457.2 567.8 451.7 561.2 451.7 c 0
 554.6 451.7 545.8 456.1 531.5 468.2 c 2
 432.5 555.1 l 1
 433.7 563.9 l 1
 440.3 571.6 464.5 590.3 494.2 590.3 c 0
 498.6 590.3 507.4 589.2 510.7 588.1 c 1
588 91 m 1
 546 46 523 35 492 35 c 0
 418 35 375 86 375 137 c 2
 375 230 l 2
 375 286 374 322 368 364 c 1
 369 367 l 1
 369 367 394 364 419 364 c 0
 446 364 470 367 470 367 c 1
 471 364 l 1
 464 325 464 286 464 230 c 2
 464 162 l 2
 464 95 489 83 512 83 c 0
 545 83 569 116 588 139 c 1
 588 230 l 2
 588 286 587 322 581 364 c 1
 582 367 l 1
 582 367 607 364 632 364 c 0
 659 364 683 367 683 367 c 1
 684 364 l 1
 677 325 677 286 677 230 c 2
 677 187 l 2
 677 130 683 75 689 43 c 1
 688 40 l 1
 678 42 650 43 640 43 c 0
 629 43 610 42 600 40 c 0
 596 40 593 41 593 43 c 2
 590 91 l 1
 588 91 l 1
249 718 m 2
 189 718 156 685 156 625 c 2
 156 -53 l 2
 156 -113 189 -136 249 -136 c 2
 821 -136 l 2
 881 -136 904 -113 904 -53 c 2
 904 625 l 2
 904 685 881 718 821 718 c 2
 249 718 l 2
1000 -84 m 2
 1000 -174 971 -212 881 -212 c 2
 249 -212 l 2
 159 -212 120 -174 120 -84 c 2
 120 625 l 2
 120 708 168 754 249 754 c 2
 851 754 l 2
 941 754 1000 715 1000 625 c 2
 1000 -84 l 2
EndSplineSet
Substitution2: "'smcp' Gemeine nach Kapitaelchen 1" ugrave.sc
AlternateSubs2: "'aalt' Alle Alternativen zeigen 1" ugrave.sc
Colour: ff00ff
EndChar

StartChar: uacute
Encoding: 250 250 39
Width: 1100
VWidth: 999
Flags: HW
HStem: 83 48<482 557> 88 16<613 620 698 704> 399 15<368 419 419 471 596 647 647 699>
VStem: 375 88<149 410> 603 88<170 410>
LayerCount: 3
Fore
SplineSet
523.3 578.2 m 1
 525.5 579.3 532.1 580.5 536.5 580.5 c 0
 561.8 580.5 577.2 568.4 583.8 560.7 c 1
 591.5 540.8 l 1
 492.5 451.8 l 2
 481.5 441.9 469.4 438.5 461.7 438.5 c 0
 455.1 438.5 448.5 445.2 448.5 450.7 c 0
 448.5 455.1 449.6 462.8 455.1 470.5 c 2
 523.3 578.2 l 1
588 91 m 1
 546 46 523 35 492 35 c 0
 418 35 375 86 375 137 c 2
 375 230 l 2
 375 286 374 322 368 364 c 1
 369 367 l 1
 369 367 394 364 419 364 c 0
 446 364 470 367 470 367 c 1
 471 364 l 1
 464 325 464 286 464 230 c 2
 464 162 l 2
 464 95 489 83 512 83 c 0
 545 83 569 116 588 139 c 1
 588 230 l 2
 588 286 587 322 581 364 c 1
 582 367 l 1
 582 367 607 364 632 364 c 0
 659 364 683 367 683 367 c 1
 684 364 l 1
 677 325 677 286 677 230 c 2
 677 187 l 2
 677 130 683 75 689 43 c 1
 688 40 l 1
 678 42 650 43 640 43 c 0
 629 43 610 42 600 40 c 0
 596 40 593 41 593 43 c 2
 590 91 l 1
 588 91 l 1
249 718 m 2
 189 718 156 685 156 625 c 2
 156 -53 l 2
 156 -113 189 -136 249 -136 c 2
 821 -136 l 2
 881 -136 904 -113 904 -53 c 2
 904 625 l 2
 904 685 881 718 821 718 c 2
 249 718 l 2
1000 -84 m 2
 1000 -174 971 -212 881 -212 c 2
 249 -212 l 2
 159 -212 120 -174 120 -84 c 2
 120 625 l 2
 120 708 168 754 249 754 c 2
 851 754 l 2
 941 754 1000 715 1000 625 c 2
 1000 -84 l 2
EndSplineSet
Substitution2: "'smcp' Gemeine nach Kapitaelchen 1" uacute.sc
AlternateSubs2: "'aalt' Alle Alternativen zeigen 1" uacute.sc
Colour: ff00ff
EndChar

StartChar: ucircumflex
Encoding: 251 251 40
Width: 1100
VWidth: 999
Flags: HW
HStem: 79 48<482 557> 84 16<613 620 698 704> 396 15<368 419 419 471 596 647 647 699>
VStem: 375 88<146 407> 409 190<474 474> 603 88<167 407>
LayerCount: 3
Fore
SplineSet
543 548.8 m 1
 568.3 508.1 599 471.8 629.8 437.7 c 1
 609 422.2 l 1
 573.8 444.2 549.6 460.8 521 490.5 c 1
 490.2 458.6 467 444.2 434 422.2 c 1
 413.2 437.7 l 1
 442.9 471.8 475.8 509.2 500 548.8 c 1
 543 548.8 l 1
588 91 m 1
 546 46 523 35 492 35 c 0
 418 35 375 86 375 137 c 2
 375 230 l 2
 375 286 374 322 368 364 c 1
 369 367 l 1
 369 367 394 364 419 364 c 0
 446 364 470 367 470 367 c 1
 471 364 l 1
 464 325 464 286 464 230 c 2
 464 162 l 2
 464 95 489 83 512 83 c 0
 545 83 569 116 588 139 c 1
 588 230 l 2
 588 286 587 322 581 364 c 1
 582 367 l 1
 582 367 607 364 632 364 c 0
 659 364 683 367 683 367 c 1
 684 364 l 1
 677 325 677 286 677 230 c 2
 677 187 l 2
 677 130 683 75 689 43 c 1
 688 40 l 1
 678 42 650 43 640 43 c 0
 629 43 610 42 600 40 c 0
 596 40 593 41 593 43 c 2
 590 91 l 1
 588 91 l 1
249 718 m 2
 189 718 156 685 156 625 c 2
 156 -53 l 2
 156 -113 189 -136 249 -136 c 2
 821 -136 l 2
 881 -136 904 -113 904 -53 c 2
 904 625 l 2
 904 685 881 718 821 718 c 2
 249 718 l 2
1000 -84 m 2
 1000 -174 971 -212 881 -212 c 2
 249 -212 l 2
 159 -212 120 -174 120 -84 c 2
 120 625 l 2
 120 708 168 754 249 754 c 2
 851 754 l 2
 941 754 1000 715 1000 625 c 2
 1000 -84 l 2
EndSplineSet
Substitution2: "'smcp' Gemeine nach Kapitaelchen 1" ucircumflex.sc
AlternateSubs2: "'aalt' Alle Alternativen zeigen 1" ucircumflex.sc
Colour: ff00ff
EndChar

StartChar: ebreve
Encoding: 277 277 41
Width: 1100
VWidth: 999
Flags: HW
HStem: 80 51<506 621> 270 33<463 588> 380 37<495 574> 463 43<460 563>
VStem: 366 94<183 270 303 312> 411 20<543 567> 588 95<278 344> 593 20<544 567>
LayerCount: 3
Fore
SplineSet
413 560 m 1
 414 520 446 490 494 490 c 0
 529 490 572 512 574 560 c 1
 598 539 l 1
 590 460 532 432 494 432 c 0
 433 432 393 478 388 539 c 1
 413 560 l 1
463 259 m 1
 570 259 l 2
 578 259 581 263 581 269 c 0
 581 323 562 336 534 336 c 0
 517 336 474 326 463 259 c 1
666 129 m 1
 677 123 682 114 682 103 c 1
 653 64 597 36 543 36 c 0
 431 36 366 107 366 193 c 0
 366 307 463 373 534 373 c 0
 634 373 676 302 676 239 c 0
 676 230 671 226 663 226 c 2
 461 226 l 1
 461 120 515 87 558 87 c 0
 599 87 640 101 666 129 c 1
249 718 m 2
 189 718 156 685 156 625 c 2
 156 -53 l 2
 156 -113 189 -136 249 -136 c 2
 821 -136 l 2
 881 -136 904 -113 904 -53 c 2
 904 625 l 2
 904 685 881 718 821 718 c 2
 249 718 l 2
1000 -84 m 2
 1000 -174 971 -212 881 -212 c 2
 249 -212 l 2
 159 -212 120 -174 120 -84 c 2
 120 625 l 2
 120 708 168 754 249 754 c 2
 851 754 l 2
 941 754 1000 715 1000 625 c 2
 1000 -84 l 2
EndSplineSet
Colour: ff00ff
EndChar

StartChar: Edotaccent
Encoding: 278 278 42
Width: 1100
VWidth: 999
Flags: HW
HStem: 115 47<457 630> 352 38<453 616> 546 16<459 665> 555 44<457 625> 640 104<472 547>
VStem: 357 96<163 352 390 554> 458 104<655 730>
LayerCount: 3
Fore
SplineSet
453 191 m 2
 453 178 454 106 459 88 c 1
 560 88 671 97 671 97 c 1
 672 94 l 1
 672 88 671 75 671 68 c 0
 671 60 672 51 672 41 c 1
 671 38 l 1
 659 40 642 41 626 41 c 2
 405 41 l 2
 379 41 350 38 350 38 c 1
 350 41 l 1
 356 81 357 134 357 191 c 2
 357 374 l 2
 357 431 356 482 350 524 c 1
 351 527 l 1
 351 527 380 524 405 524 c 0
 428 524 618 524 618 524 c 2
 634 524 651 525 663 527 c 1
 665 524 l 1
 664 514 663 504 663 498 c 0
 663 491 664 481 665 475 c 1
 663 472 l 1
 663 472 560 481 459 481 c 1
 454 463 453 387 453 374 c 2
 453 316 l 1
 542 316 576 320 620 323 c 1
 623 321 l 1
 621 314 620 304 620 297 c 0
 620 290 621 279 623 272 c 1
 620 270 l 1
 569 275 489 278 453 278 c 1
 453 191 l 2
249 718 m 2
 189 718 156 685 156 625 c 2
 156 -53 l 2
 156 -113 189 -136 249 -136 c 2
 821 -136 l 2
 881 -136 904 -113 904 -53 c 2
 904 625 l 2
 904 685 881 718 821 718 c 2
 441.7 718 l 1
 434.4 698.4 415.5 684 393 684 c 0
 370.5 684 351.6 698.4 344.3 718 c 1
 249 718 l 2
1000 -84 m 2
 1000 -174 971 -212 881 -212 c 2
 249 -212 l 2
 159 -212 120 -174 120 -84 c 2
 120 625 l 2
 120 708 168 754 249 754 c 2
 344.3 754 l 1
 351.6 773.6 370.5 788 393 788 c 0
 415.5 788 434.4 773.6 441.7 754 c 1
 851 754 l 2
 941 754 1000 715 1000 625 c 2
 1000 -84 l 2
EndSplineSet
Position2: "'cpsp' Versalabstaende 1" dx=2 dy=0 dh=4 dv=0
Colour: ff00ff
EndChar

StartChar: edotaccent
Encoding: 279 279 43
Width: 1100
VWidth: 999
Flags: HW
HStem: 82 51<506 621> 272 33<463 588> 382 37<495 574> 488 104<490 565>
VStem: 366 94<185 272 305 314> 476 104<503 578> 588 95<280 346>
LayerCount: 3
Fore
SplineSet
374 609 m 0
 374 637 397 661 426 661 c 0
 455 661 478 637 478 609 c 0
 478 581 455 557 426 557 c 0
 397 557 374 581 374 609 c 0
463 259 m 1
 570 259 l 2
 578 259 581 263 581 269 c 0
 581 323 562 336 534 336 c 0
 517 336 474 326 463 259 c 1
666 129 m 1
 677 123 682 114 682 103 c 1
 653 64 597 36 543 36 c 0
 431 36 366 107 366 193 c 0
 366 307 463 373 534 373 c 0
 634 373 676 302 676 239 c 0
 676 230 671 226 663 226 c 2
 461 226 l 1
 461 120 515 87 558 87 c 0
 599 87 640 101 666 129 c 1
249 718 m 2
 189 718 156 685 156 625 c 2
 156 -53 l 2
 156 -113 189 -136 249 -136 c 2
 821 -136 l 2
 881 -136 904 -113 904 -53 c 2
 904 625 l 2
 904 685 881 718 821 718 c 2
 249 718 l 2
1000 -84 m 2
 1000 -174 971 -212 881 -212 c 2
 249 -212 l 2
 159 -212 120 -174 120 -84 c 2
 120 625 l 2
 120 708 168 754 249 754 c 2
 851 754 l 2
 941 754 1000 715 1000 625 c 2
 1000 -84 l 2
EndSplineSet
Colour: ff00ff
EndChar

StartChar: Eogonek
Encoding: 280 280 44
Width: 1100
VWidth: 999
Flags: HW
HStem: -125 29<529 592> 43 19<581 608> 43 47<457 630> 280 38<453 616> 474 16<459 665> 483 44<457 625>
VStem: 357 96<91 280 318 482> 474 45<-87 -13>
LayerCount: 3
Fore
SplineSet
543 -125 m 0
 504 -125 474 -102 474 -61 c 0
 474 -26.8 502.4 15.5 545.5 41 c 1
 405 41 l 2
 379 41 350 38 350 38 c 1
 350 41 l 1
 356 81 357 134 357 191 c 2
 357 374 l 2
 357 431 356 482 350 524 c 1
 351 527 l 1
 351 527 380 524 405 524 c 0
 428 524 618 524 618 524 c 2
 634 524 651 525 663 527 c 1
 665 524 l 1
 664 514 663 504 663 498 c 0
 663 491 664 481 665 475 c 1
 663 472 l 1
 663 472 560 481 459 481 c 1
 454 463 453 387 453 374 c 2
 453 316 l 1
 542 316 576 320 620 323 c 1
 623 321 l 1
 621 314 620 304 620 297 c 0
 620 290 621 279 623 272 c 1
 620 270 l 1
 569 275 489 278 453 278 c 1
 453 191 l 2
 453 178 454 106 459 88 c 1
 560 88 671 97 671 97 c 1
 672 94 l 1
 672 88 671 75 671 68 c 0
 671 60 672 51 672 41 c 1
 671 38 l 1
 659 40 642 41 626 41 c 2
 600.6 41 l 1
 551.2 30.7 518 -17.4 518 -52 c 0
 518 -76 535 -96 562 -96 c 0
 584 -96 600 -85 614 -69 c 1
 626 -75 l 1
 608 -110 570 -125 543 -125 c 0
249 718 m 2
 189 718 156 685 156 625 c 2
 156 -53 l 2
 156 -113 189 -136 249 -136 c 2
 821 -136 l 2
 881 -136 904 -113 904 -53 c 2
 904 625 l 2
 904 685 881 718 821 718 c 2
 249 718 l 2
1000 -84 m 2
 1000 -174 971 -212 881 -212 c 2
 249 -212 l 2
 159 -212 120 -174 120 -84 c 2
 120 625 l 2
 120 708 168 754 249 754 c 2
 851 754 l 2
 941 754 1000 715 1000 625 c 2
 1000 -84 l 2
EndSplineSet
Position2: "'cpsp' Versalabstaende 1" dx=2 dy=0 dh=4 dv=0
Substitution2: "'c2sc' Versale nach Kapitaelchen 1" eogonek.sc
Colour: ff80cc
EndChar

StartChar: eogonek
Encoding: 281 281 45
Width: 1100
VWidth: 999
Flags: HW
HStem: -121 33<562 614> 16 51<506 621> 206 33<463 588> 316 37<495 574>
VStem: 366 94<119 206 239 248> 508 50<-84 -13> 588 95<215 281>
LayerCount: 3
Fore
SplineSet
463 259 m 1
 570 259 l 2
 578 259 581 263 581 269 c 0
 581 323 562 336 534 336 c 0
 517 336 474 326 463 259 c 1
666 129 m 1
 677 123 682 114 682 103 c 1
 653 64 597 36 543 36 c 0
 431 36 366 107 366 193 c 0
 366 307 463 373 534 373 c 0
 634 373 676 302 676 239 c 0
 676 230 671 226 663 226 c 2
 461 226 l 1
 461 120 515 87 558 87 c 0
 599 87 640 101 666 129 c 1
249 718 m 2
 189 718 156 685 156 625 c 2
 156 -53 l 2
 156 -113 189 -136 249 -136 c 2
 394.6 -136 l 1
 390.9 -128.2 389 -119.2 389 -109 c 0
 389 -57 441 -12 487 18 c 1
 503 6 l 1
 462 -34 439 -61 439 -101 c 0
 439 -117 451 -133 470 -133 c 0
 483 -133 499 -122 510 -111 c 1
 512 -112 l 1
 523 -124 l 1
 519.6 -128.2 516 -132.3 512.1 -136 c 1
 821 -136 l 2
 881 -136 904 -113 904 -53 c 2
 904 625 l 2
 904 685 881 718 821 718 c 2
 249 718 l 2
1000 -84 m 2
 1000 -174 971 -212 881 -212 c 2
 249 -212 l 2
 159 -212 120 -174 120 -84 c 2
 120 625 l 2
 120 708 168 754 249 754 c 2
 851 754 l 2
 941 754 1000 715 1000 625 c 2
 1000 -84 l 2
EndSplineSet
AlternateSubs2: "'aalt' Alle Alternativen zeigen 1" eogonek.sc
Substitution2: "'smcp' Gemeine nach Kapitaelchen 1" eogonek.sc
Colour: ff00ff
EndChar

StartChar: Ecaron
Encoding: 282 282 46
Width: 1100
VWidth: 999
Flags: HW
HStem: 111 47<457 630> 348 38<453 616> 542 16<459 665> 552 44<457 625>
VStem: 357 96<159 348 386 550>
LayerCount: 3
Fore
SplineSet
453 191 m 2
 453 178 454 106 459 88 c 1
 560 88 671 97 671 97 c 1
 672 94 l 1
 672 88 671 75 671 68 c 0
 671 60 672 51 672 41 c 1
 671 38 l 1
 659 40 642 41 626 41 c 2
 405 41 l 2
 379 41 350 38 350 38 c 1
 350 41 l 1
 356 81 357 134 357 191 c 2
 357 374 l 2
 357 431 356 482 350 524 c 1
 351 527 l 1
 351 527 380 524 405 524 c 0
 428 524 618 524 618 524 c 2
 634 524 651 525 663 527 c 1
 665 524 l 1
 664 514 663 504 663 498 c 0
 663 491 664 481 665 475 c 1
 663 472 l 1
 663 472 560 481 459 481 c 1
 454 463 453 387 453 374 c 2
 453 316 l 1
 542 316 576 320 620 323 c 1
 623 321 l 1
 621 314 620 304 620 297 c 0
 620 290 621 279 623 272 c 1
 620 270 l 1
 569 275 489 278 453 278 c 1
 453 191 l 2
249 718 m 2
 189 718 156 685 156 625 c 2
 156 -53 l 2
 156 -113 189 -136 249 -136 c 2
 821 -136 l 2
 881 -136 904 -113 904 -53 c 2
 904 625 l 2
 904 685 881 718 821 718 c 2
 446.3 718 l 1
 428.6 702.2 412.6 685.6 397 668 c 1
 365 668 l 1
 350.4 686.6 334 702.9 316.5 718 c 1
 249 718 l 2
1000 -84 m 2
 1000 -174 971 -212 881 -212 c 2
 249 -212 l 2
 159 -212 120 -174 120 -84 c 2
 120 625 l 2
 120 708 168 754 249 754 c 2
 300.2 754 l 1
 301 755 l 1
 303.3 754 l 1
 458.7 754 l 1
 461 755 l 1
 461.8 754 l 1
 851 754 l 2
 941 754 1000 715 1000 625 c 2
 1000 -84 l 2
394.4 718 m 1
 368.6 718 l 1
 381 709 l 1
 394.4 718 l 1
EndSplineSet
Position2: "'cpsp' Versalabstaende 1" dx=2 dy=0 dh=4 dv=0
Substitution2: "'c2sc' Versale nach Kapitaelchen 1" ecaron.sc
Colour: ff00ff
EndChar

StartChar: ecaron
Encoding: 283 283 47
Width: 1100
VWidth: 999
Flags: HW
HStem: 79 51<506 621> 268 33<463 588> 379 37<495 574>
VStem: 366 94<182 268 302 311> 588 95<277 343>
LayerCount: 3
Fore
SplineSet
429 523 m 1
 391 523 l 1
 369 558 341 590 315 620 c 1
 333 634 l 1
 362 613 381 599 409 571 c 1
 435 598 457 613 486 634 c 1
 504 620 l 1
 477 590 450 559 429 523 c 1
463 259 m 1
 570 259 l 2
 578 259 581 263 581 269 c 0
 581 323 562 336 534 336 c 0
 517 336 474 326 463 259 c 1
666 129 m 1
 677 123 682 114 682 103 c 1
 653 64 597 36 543 36 c 0
 431 36 366 107 366 193 c 0
 366 307 463 373 534 373 c 0
 634 373 676 302 676 239 c 0
 676 230 671 226 663 226 c 2
 461 226 l 1
 461 120 515 87 558 87 c 0
 599 87 640 101 666 129 c 1
249 718 m 2
 189 718 156 685 156 625 c 2
 156 -53 l 2
 156 -113 189 -136 249 -136 c 2
 821 -136 l 2
 881 -136 904 -113 904 -53 c 2
 904 625 l 2
 904 685 881 718 821 718 c 2
 249 718 l 2
1000 -84 m 2
 1000 -174 971 -212 881 -212 c 2
 249 -212 l 2
 159 -212 120 -174 120 -84 c 2
 120 625 l 2
 120 708 168 754 249 754 c 2
 851 754 l 2
 941 754 1000 715 1000 625 c 2
 1000 -84 l 2
EndSplineSet
AlternateSubs2: "'aalt' Alle Alternativen zeigen 1" ecaron.sc
Substitution2: "'smcp' Gemeine nach Kapitaelchen 1" ecaron.sc
Colour: ff00ff
EndChar

StartChar: Gcircumflex
Encoding: 284 284 48
Width: 1100
VWidth: 999
Flags: HW
HStem: 102 34<481 649> 568 35<463 617>
VStem: 284 77<270 433> 669 64<173 338>
LayerCount: 3
Fore
SplineSet
557.5 683.3 m 1
 581.7 653.6 611.5 627.2 641.2 605.2 c 1
 628 587.7 l 1
 595 603.1 567.5 618.4 540 639.3 c 1
 509.2 617.3 482.8 602 452 587.7 c 1
 439.8 605.2 l 1
 470.6 628.3 495.9 654.7 522.3 683.3 c 1
 557.5 683.3 l 1
669 129 m 2
 669 185 668 228 662 271 c 1
 663 274 l 1
 663 274 692 271 717 271 c 0
 743 271 772 274 772 274 c 1
 772 271 l 1
 766 232 765 200 765 144 c 0
 765 119 768 109 772 103 c 1
 772 101 l 1
 722 59 645 34 557 34 c 0
 406 34 284 142 284 271 c 0
 284 436 432 534 561 534 c 0
 652 534 740 501 740 501 c 1
 742 498 l 1
 733 462 729 439 727 401 c 1
 719 400 l 1
 688 462 618 492 550 492 c 0
 449 492 392 418 392 286 c 0
 392 187 441 75 574 75 c 0
 615 75 644 79 669 103 c 1
 669 129 l 2
249 718 m 2
 189 718 156 685 156 625 c 2
 156 -53 l 2
 156 -113 189 -136 249 -136 c 2
 821 -136 l 2
 881 -136 904 -113 904 -53 c 2
 904 625 l 2
 904 685 881 718 821 718 c 2
 249 718 l 2
1000 -84 m 2
 1000 -174 971 -212 881 -212 c 2
 249 -212 l 2
 159 -212 120 -174 120 -84 c 2
 120 625 l 2
 120 708 168 754 249 754 c 2
 851 754 l 2
 941 754 1000 715 1000 625 c 2
 1000 -84 l 2
EndSplineSet
Position2: "'cpsp' Versalabstaende 1" dx=2 dy=0 dh=4 dv=0
Colour: ff00ff
EndChar

StartChar: gcircumflex
Encoding: 285 285 49
Width: 1100
VWidth: 999
Flags: HW
HStem: -116 39<430 559> 51 53<448 497> 53 56<451 580> 164 40<449 530> 352 40<446 527>
VStem: 330 81<-58 19> 350 82<221 329> 354 58<107 174> 383 190<449 449> 544 81<224 325> 600 77<-37 34>
LayerCount: 3
Fore
SplineSet
501 547.8 m 1
 526.3 507.1 557 470.8 587.8 436.7 c 1
 567 421.2 l 1
 531.8 443.2 507.6 459.8 479 489.5 c 1
 448.2 457.6 425 443.2 392 421.2 c 1
 371.2 436.7 l 1
 400.9 470.8 433.8 508.2 458 547.8 c 1
 501 547.8 l 1
653 286 m 0
 653 225 605 175 518 175 c 0
 493 175 475 177 460 186 c 0
 458 187 456 188 454 189 c 1
 446 176 442 159 442 144 c 0
 442 111 464 111 485 111 c 0
 489 111 496 112 507 113 c 0
 524 115 541 117 554 117 c 0
 623 117 707 95 707 18 c 0
 707 -63 586 -109 490 -109 c 0
 435 -109 360 -89 360 -24 c 0
 360 9 388 43 426 67 c 1
 404 73 384 93 384 125 c 0
 384 150 395 184 415 202 c 1
 411 207 l 1
 394 220 380 247 380 285 c 0
 380 349 438 399 519 399 c 0
 535 399 550 396 563 392 c 1
 619 395 661 403 697 406 c 1
 700 404 l 1
 698 397 697 387 697 380 c 0
 697 373 698 365 700 358 c 1
 697 356 l 1
 669.9 358.6 636.1 361.2 612.6 363.2 c 1
 636.3 345.8 653 315 653 286 c 0
573 279 m 0
 573 335 556 366 511 366 c 0
 472 366 461 330 461 296 c 0
 461 248 471 207 520 207 c 0
 547 207 573 225 573 279 c 0
249 718 m 2
 189 718 156 685 156 625 c 2
 156 -53 l 2
 156 -113 189 -136 249 -136 c 2
 821 -136 l 2
 881 -136 904 -113 904 -53 c 2
 904 625 l 2
 904 685 881 718 821 718 c 2
 249 718 l 2
1000 -84 m 2
 1000 -174 971 -212 881 -212 c 2
 249 -212 l 2
 159 -212 120 -174 120 -84 c 2
 120 625 l 2
 120 708 168 754 249 754 c 2
 851 754 l 2
 941 754 1000 715 1000 625 c 2
 1000 -84 l 2
477.4 54.5 m 2
 479 54.8 480.5 55 478 55 c 1
 477.4 54.5 l 2
476.7 54 m 1
 449.7 32.5 441 15.6 441 -9 c 0
 441 -60 485 -78 511 -78 c 0
 575 -78 630 -45 630 1 c 0
 630 53 570 57 528 57 c 0
 518.1 57 498.4 54.1 476.7 54 c 1
EndSplineSet
Colour: ff00ff
EndChar

StartChar: Gbreve
Encoding: 286 286 50
Width: 1100
VWidth: 999
Flags: HW
HStem: 102 34<481 649> 568 35<463 617> 630 39<479 596>
VStem: 284 77<270 433> 436 21<684 713> 620 20<686 714> 669 64<173 338>
LayerCount: 3
Fore
SplineSet
600 675 m 1
 589 606 548 580 499 580 c 0
 444 580 400 613 397 675 c 1
 422 675 l 1
 428 646 459 629 499 629 c 0
 536 629 571 646 576 675 c 1
 600 675 l 1
669 129 m 2
 669 185 668 228 662 271 c 1
 663 274 l 1
 663 274 692 271 717 271 c 0
 743 271 772 274 772 274 c 1
 772 271 l 1
 766 232 765 200 765 144 c 0
 765 119 768 109 772 103 c 1
 772 101 l 1
 722 59 645 34 557 34 c 0
 406 34 284 142 284 271 c 0
 284 436 432 534 561 534 c 0
 652 534 740 501 740 501 c 1
 742 498 l 1
 733 462 729 439 727 401 c 1
 719 400 l 1
 688 462 618 492 550 492 c 0
 449 492 392 418 392 286 c 0
 392 187 441 75 574 75 c 0
 615 75 644 79 669 103 c 1
 669 129 l 2
249 718 m 2
 189 718 156 685 156 625 c 2
 156 -53 l 2
 156 -113 189 -136 249 -136 c 2
 821 -136 l 2
 881 -136 904 -113 904 -53 c 2
 904 625 l 2
 904 685 881 718 821 718 c 2
 249 718 l 2
1000 -84 m 2
 1000 -174 971 -212 881 -212 c 2
 249 -212 l 2
 159 -212 120 -174 120 -84 c 2
 120 625 l 2
 120 708 168 754 249 754 c 2
 851 754 l 2
 941 754 1000 715 1000 625 c 2
 1000 -84 l 2
EndSplineSet
Position2: "'cpsp' Versalabstaende 1" dx=2 dy=0 dh=4 dv=0
Substitution2: "'c2sc' Versale nach Kapitaelchen 1" gbreve.sc
Colour: ff00ff
EndChar

StartChar: gbreve
Encoding: 287 287 51
Width: 1100
VWidth: 999
Flags: HW
HStem: -116 39<430 559> 51 53<448 497> 53 56<451 580> 164 40<449 530> 352 40<446 527> 435 43<419 522>
VStem: 330 81<-58 19> 350 82<222 329> 354 58<107 175> 370 20<515 539> 544 81<224 325> 552 20<516 539> 600 77<-37 34>
LayerCount: 3
Fore
SplineSet
367 557 m 1
 368 517 400 487 448 487 c 0
 483 487 526 509 528 557 c 1
 552 536 l 1
 544 457 486 429 448 429 c 0
 387 429 347 475 342 536 c 1
 367 557 l 1
653 286 m 0
 653 225 605 175 518 175 c 0
 493 175 475 177 460 186 c 0
 458 187 456 188 454 189 c 1
 446 176 442 159 442 144 c 0
 442 111 464 111 485 111 c 0
 489 111 496 112 507 113 c 0
 524 115 541 117 554 117 c 0
 623 117 707 95 707 18 c 0
 707 -63 586 -109 490 -109 c 0
 435 -109 360 -89 360 -24 c 0
 360 9 388 43 426 67 c 1
 404 73 384 93 384 125 c 0
 384 150 395 184 415 202 c 1
 411 207 l 1
 394 220 380 247 380 285 c 0
 380 349 438 399 519 399 c 0
 535 399 550 396 563 392 c 1
 619 395 661 403 697 406 c 1
 700 404 l 1
 698 397 697 387 697 380 c 0
 697 373 698 365 700 358 c 1
 697 356 l 1
 669.9 358.6 636.1 361.2 612.6 363.2 c 1
 636.3 345.8 653 315 653 286 c 0
573 279 m 0
 573 335 556 366 511 366 c 0
 472 366 461 330 461 296 c 0
 461 248 471 207 520 207 c 0
 547 207 573 225 573 279 c 0
249 718 m 2
 189 718 156 685 156 625 c 2
 156 -53 l 2
 156 -113 189 -136 249 -136 c 2
 821 -136 l 2
 881 -136 904 -113 904 -53 c 2
 904 625 l 2
 904 685 881 718 821 718 c 2
 249 718 l 2
1000 -84 m 2
 1000 -174 971 -212 881 -212 c 2
 249 -212 l 2
 159 -212 120 -174 120 -84 c 2
 120 625 l 2
 120 708 168 754 249 754 c 2
 851 754 l 2
 941 754 1000 715 1000 625 c 2
 1000 -84 l 2
477.4 54.5 m 2
 479 54.8 480.5 55 478 55 c 1
 477.4 54.5 l 2
476.7 54 m 1
 449.7 32.5 441 15.6 441 -9 c 0
 441 -60 485 -78 511 -78 c 0
 575 -78 630 -45 630 1 c 0
 630 53 570 57 528 57 c 0
 518.1 57 498.4 54.1 476.7 54 c 1
EndSplineSet
AlternateSubs2: "'aalt' Alle Alternativen zeigen 1" gbreve.sc
Substitution2: "'smcp' Gemeine nach Kapitaelchen 1" gbreve.sc
Colour: ff00ff
EndChar

StartChar: Gdotaccent
Encoding: 288 288 52
Width: 1100
VWidth: 999
Flags: HW
HStem: 108 34<481 649> 574 35<463 617> 651 104<518 592>
VStem: 284 77<276 439> 503 104<666 740> 669 64<178 344>
LayerCount: 3
Fore
SplineSet
669 129 m 2
 669 185 668 228 662 271 c 1
 663 274 l 1
 663 274 692 271 717 271 c 0
 743 271 772 274 772 274 c 1
 772 271 l 1
 766 232 765 200 765 144 c 0
 765 119 768 109 772 103 c 1
 772 101 l 1
 722 59 645 34 557 34 c 0
 406 34 284 142 284 271 c 0
 284 436 432 534 561 534 c 0
 652 534 740 501 740 501 c 1
 742 498 l 1
 733 462 729 439 727 401 c 1
 719 400 l 1
 688 462 618 492 550 492 c 0
 449 492 392 418 392 286 c 0
 392 187 441 75 574 75 c 0
 615 75 644 79 669 103 c 1
 669 129 l 2
249 718 m 2
 189 718 156 685 156 625 c 2
 156 -53 l 2
 156 -113 189 -136 249 -136 c 2
 821 -136 l 2
 881 -136 904 -113 904 -53 c 2
 904 625 l 2
 904 685 881 718 821 718 c 2
 468.7 718 l 1
 459.5 703.7 443.5 694 425 694 c 0
 406.5 694 390.5 703.7 381.3 718 c 1
 249 718 l 2
1000 -84 m 2
 1000 -174 971 -212 881 -212 c 2
 249 -212 l 2
 159 -212 120 -174 120 -84 c 2
 120 625 l 2
 120 708 168 754 249 754 c 2
 373.6 754 l 1
 377.5 778.4 398.8 798 425 798 c 0
 451.2 798 472.5 778.4 476.4 754 c 1
 851 754 l 2
 941 754 1000 715 1000 625 c 2
 1000 -84 l 2
EndSplineSet
Position2: "'cpsp' Versalabstaende 1" dx=2 dy=0 dh=4 dv=0
Colour: ff00ff
EndChar

StartChar: gdotaccent
Encoding: 289 289 53
Width: 1100
VWidth: 999
Flags: HW
HStem: -114 39<430 559> 53 53<448 497> 56 56<451 580> 167 40<449 530> 354 40<446 527> 463 104<451 526>
VStem: 330 81<-56 22> 350 82<224 332> 354 58<110 177> 437 104<477 552> 544 81<227 327> 600 77<-34 37>
LayerCount: 3
Fore
SplineSet
331 608 m 0
 331 636 354 660 383 660 c 0
 412 660 435 636 435 608 c 0
 435 580 412 556 383 556 c 0
 354 556 331 580 331 608 c 0
653 286 m 0
 653 225 605 175 518 175 c 0
 493 175 475 177 460 186 c 0
 458 187 456 188 454 189 c 1
 446 176 442 159 442 144 c 0
 442 111 464 111 485 111 c 0
 489 111 496 112 507 113 c 0
 524 115 541 117 554 117 c 0
 623 117 707 95 707 18 c 0
 707 -63 586 -109 490 -109 c 0
 435 -109 360 -89 360 -24 c 0
 360 9 388 43 426 67 c 1
 404 73 384 93 384 125 c 0
 384 150 395 184 415 202 c 1
 411 207 l 1
 394 220 380 247 380 285 c 0
 380 349 438 399 519 399 c 0
 535 399 550 396 563 392 c 1
 619 395 661 403 697 406 c 1
 700 404 l 1
 698 397 697 387 697 380 c 0
 697 373 698 365 700 358 c 1
 697 356 l 1
 669.9 358.6 636.1 361.2 612.6 363.2 c 1
 636.3 345.8 653 315 653 286 c 0
573 279 m 0
 573 335 556 366 511 366 c 0
 472 366 461 330 461 296 c 0
 461 248 471 207 520 207 c 0
 547 207 573 225 573 279 c 0
249 718 m 2
 189 718 156 685 156 625 c 2
 156 -53 l 2
 156 -113 189 -136 249 -136 c 2
 821 -136 l 2
 881 -136 904 -113 904 -53 c 2
 904 625 l 2
 904 685 881 718 821 718 c 2
 249 718 l 2
1000 -84 m 2
 1000 -174 971 -212 881 -212 c 2
 249 -212 l 2
 159 -212 120 -174 120 -84 c 2
 120 625 l 2
 120 708 168 754 249 754 c 2
 851 754 l 2
 941 754 1000 715 1000 625 c 2
 1000 -84 l 2
477.4 54.5 m 2
 479 54.8 480.5 55 478 55 c 1
 477.4 54.5 l 2
476.7 54 m 1
 449.7 32.5 441 15.6 441 -9 c 0
 441 -60 485 -78 511 -78 c 0
 575 -78 630 -45 630 1 c 0
 630 53 570 57 528 57 c 0
 518.1 57 498.4 54.1 476.7 54 c 1
EndSplineSet
Colour: ff00ff
EndChar

StartChar: Gcommaaccent
Encoding: 290 290 54
Width: 1100
VWidth: 999
Flags: HW
HStem: -130 13<507 523> -58 61<507 561> 35 34<481 649> 501 35<463 617>
VStem: 284 77<203 366> 563 24<-90 -38> 669 64<106 271>
LayerCount: 3
Fore
SplineSet
390 -70 m 0
 420 -70 437 -98 437 -124 c 0
 437 -127.2 436.6 -131.3 435.8 -136 c 1
 821 -136 l 2
 881 -136 904 -113 904 -53 c 2
 904 625 l 2
 904 685 881 718 821 718 c 2
 249 718 l 2
 189 718 156 685 156 625 c 2
 156 -53 l 2
 156 -113 189 -136 249 -136 c 2
 412.7 -136 l 1
 412.9 -134 413 -132.6 413 -132 c 0
 413 -129 412 -126 411 -124 c 1
 403 -129 396 -131 390 -131 c 0
 359 -131 352 -112 352 -100 c 0
 352 -88 363 -70 390 -70 c 0
669 129 m 2
 669 185 668 228 662 271 c 1
 663 274 l 1
 663 274 692 271 717 271 c 0
 743 271 772 274 772 274 c 1
 772 271 l 1
 766 232 765 200 765 144 c 0
 765 119 768 109 772 103 c 1
 772 101 l 1
 722 59 645 34 557 34 c 0
 406 34 284 142 284 271 c 0
 284 436 432 534 561 534 c 0
 652 534 740 501 740 501 c 1
 742 498 l 1
 733 462 729 439 727 401 c 1
 719 400 l 1
 688 462 618 492 550 492 c 0
 449 492 392 418 392 286 c 0
 392 187 441 75 574 75 c 0
 615 75 644 79 669 103 c 1
 669 129 l 2
1000 -84 m 2
 1000 -174 971 -212 881 -212 c 2
 249 -212 l 2
 159 -212 120 -174 120 -84 c 2
 120 625 l 2
 120 708 168 754 249 754 c 2
 851 754 l 2
 941 754 1000 715 1000 625 c 2
 1000 -84 l 2
EndSplineSet
Position2: "'cpsp' Versalabstaende 1" dx=2 dy=0 dh=4 dv=0
Colour: ff00ff
EndChar

StartChar: gcommaaccent
Encoding: 291 291 55
Width: 1100
VWidth: 999
Flags: HW
HStem: -111 39<430 559> 56 53<448 497> 58 56<451 580> 169 40<449 530> 357 40<446 527> 450 62<456 510> 572 13<494 511>
VStem: 330 81<-53 24> 350 82<227 335> 354 58<113 180> 430 24<505 544> 544 81<230 330> 600 77<-32 39>
LayerCount: 3
Fore
SplineSet
386 522 m 0
 356 522 339 550 339 577 c 0
 339 597 352 654 419 657 c 1
 422 644 l 1
 365 633 363 588 363 585 c 0
 363 582 364 579 364 577 c 1
 373 582 380 584 386 584 c 0
 416 584 424 565 424 552 c 0
 424 540 412 522 386 522 c 0
653 286 m 0
 653 225 605 175 518 175 c 0
 493 175 475 177 460 186 c 0
 458 187 456 188 454 189 c 1
 446 176 442 159 442 144 c 0
 442 111 464 111 485 111 c 0
 489 111 496 112 507 113 c 0
 524 115 541 117 554 117 c 0
 623 117 707 95 707 18 c 0
 707 -63 586 -109 490 -109 c 0
 435 -109 360 -89 360 -24 c 0
 360 9 388 43 426 67 c 1
 404 73 384 93 384 125 c 0
 384 150 395 184 415 202 c 1
 411 207 l 1
 394 220 380 247 380 285 c 0
 380 349 438 399 519 399 c 0
 535 399 550 396 563 392 c 1
 619 395 661 403 697 406 c 1
 700 404 l 1
 698 397 697 387 697 380 c 0
 697 373 698 365 700 358 c 1
 697 356 l 1
 669.9 358.6 636.1 361.2 612.6 363.2 c 1
 636.3 345.8 653 315 653 286 c 0
573 279 m 0
 573 335 556 366 511 366 c 0
 472 366 461 330 461 296 c 0
 461 248 471 207 520 207 c 0
 547 207 573 225 573 279 c 0
249 718 m 2
 189 718 156 685 156 625 c 2
 156 -53 l 2
 156 -113 189 -136 249 -136 c 2
 821 -136 l 2
 881 -136 904 -113 904 -53 c 2
 904 625 l 2
 904 685 881 718 821 718 c 2
 249 718 l 2
1000 -84 m 2
 1000 -174 971 -212 881 -212 c 2
 249 -212 l 2
 159 -212 120 -174 120 -84 c 2
 120 625 l 2
 120 708 168 754 249 754 c 2
 851 754 l 2
 941 754 1000 715 1000 625 c 2
 1000 -84 l 2
477.4 54.5 m 2
 479 54.8 480.5 55 478 55 c 1
 477.4 54.5 l 2
476.7 54 m 1
 449.7 32.5 441 15.6 441 -9 c 0
 441 -60 485 -78 511 -78 c 0
 575 -78 630 -45 630 1 c 0
 630 53 570 57 528 57 c 0
 518.1 57 498.4 54.1 476.7 54 c 1
EndSplineSet
Colour: ff00ff
EndChar

StartChar: Hcircumflex
Encoding: 292 292 56
Width: 1100
VWidth: 999
Flags: HW
HStem: 108 16<370 426 426 481 676 732 732 787> 343 39<463 708> 581 15<370 426 426 481 676 732 732 787>
VStem: 378 96<112 592> 684 96<112 592>
LayerCount: 3
Fore
SplineSet
646 374 m 2
 646 431 644 482 638 524 c 1
 640 527 l 1
 640 527 668 524 694 524 c 0
 720 524 749 527 749 527 c 1
 750 524 l 1
 744 485 742 431 742 374 c 2
 742 191 l 2
 742 134 744 83 750 41 c 1
 748 38 l 1
 748 38 720 41 694 41 c 0
 668 41 639 38 639 38 c 1
 638 41 l 1
 644 81 646 134 646 191 c 2
 646 274 l 1
 436 274 l 1
 436 191 l 2
 436 134 438 83 444 41 c 1
 442 38 l 1
 442 38 414 41 388 41 c 0
 362 41 333 38 333 38 c 1
 332 41 l 1
 338 81 340 134 340 191 c 2
 340 374 l 2
 340 431 338 482 332 524 c 1
 334 527 l 1
 334 527 362 524 388 524 c 0
 414 524 443 527 443 527 c 1
 444 524 l 1
 438 485 436 431 436 374 c 2
 436 313 l 1
 646 313 l 1
 646 374 l 2
249 718 m 2
 189 718 156 685 156 625 c 2
 156 -53 l 2
 156 -113 189 -136 249 -136 c 2
 821 -136 l 2
 881 -136 904 -113 904 -53 c 2
 904 625 l 2
 904 685 881 718 821 718 c 2
 249 718 l 2
1000 -84 m 2
 1000 -174 971 -212 881 -212 c 2
 249 -212 l 2
 159 -212 120 -174 120 -84 c 2
 120 625 l 2
 120 708 168 754 249 754 c 2
 851 754 l 2
 941 754 1000 715 1000 625 c 2
 1000 -84 l 2
594.5 682.3 m 1
 618.7 652.6 648.5 626.2 678.2 604.2 c 1
 665 586.7 l 1
 632 602.1 604.5 617.4 577 638.3 c 1
 546.2 616.3 519.8 601 489 586.7 c 1
 476.8 604.2 l 1
 507.6 627.3 532.9 653.7 559.3 682.3 c 1
 594.5 682.3 l 1
EndSplineSet
Position2: "'cpsp' Versalabstaende 1" dx=2 dy=0 dh=4 dv=0
Colour: ff00ff
EndChar

StartChar: hcircumflex
Encoding: 293 293 57
Width: 1100
VWidth: 999
Flags: HW
HStem: 112 16<367 419 419 470 602 653 653 705> 394 50<520 598> 623 15<454 466>
VStem: 374 88<117 354 385 616> 609 88<117 384>
LayerCount: 3
Fore
SplineSet
553.5 704.3 m 1
 577.7 674.6 607.5 648.2 637.2 626.2 c 1
 624 608.7 l 1
 591 624.1 563.5 639.4 536 660.3 c 1
 505.2 638.3 478.8 623 448 608.7 c 1
 435.8 626.2 l 1
 466.6 649.3 491.9 675.7 518.3 704.3 c 1
 553.5 704.3 l 1
594 180 m 2
 594 252 l 2
 594 313 580 325 538 325 c 0
 516 325 499 305 463 270 c 1
 463 180 l 2
 463 123 464 88 470 45 c 1
 469 43 l 1
 469 43 444 45 419 45 c 0
 392 45 368 43 368 43 c 1
 367 45 l 1
 373 85 374 124 374 180 c 2
 374 406 l 2
 374 463 373 515 367 547 c 1
 368 550 l 1
 399 552 445 561 464 568 c 1
 468 568 470 566 470 561 c 0
 465 515 463 476 463 421 c 2
 463 315 l 1
 513 365 542 374 572 374 c 0
 626 374 683 335 683 258 c 2
 683 180 l 2
 683 123 684 88 690 45 c 1
 689 43 l 1
 689 43 664 45 638 45 c 0
 612 45 587 43 587 43 c 1
 587 45 l 1
 593 85 594 124 594 180 c 2
249 718 m 2
 189 718 156 685 156 625 c 2
 156 -53 l 2
 156 -113 189 -136 249 -136 c 2
 821 -136 l 2
 881 -136 904 -113 904 -53 c 2
 904 625 l 2
 904 685 881 718 821 718 c 2
 249 718 l 2
1000 -84 m 2
 1000 -174 971 -212 881 -212 c 2
 249 -212 l 2
 159 -212 120 -174 120 -84 c 2
 120 625 l 2
 120 708 168 754 249 754 c 2
 851 754 l 2
 941 754 1000 715 1000 625 c 2
 1000 -84 l 2
EndSplineSet
Colour: ff00ff
EndChar

StartChar: Hbar
Encoding: 294 294 58
Width: 1100
VWidth: 999
Flags: HW
HStem: 78 16<377 432 432 488 683 738 738 794> 314 39<470 714> 465 26<338 799> 552 15<377 432 432 488 683 738 738 794>
VStem: 384 96<83 562> 690 96<83 562>
LayerCount: 3
Fore
SplineSet
340 374 m 2
 340 431 338 482 332 524 c 1
 334 527 l 1
 334 527 362 524 388 524 c 0
 414 524 443 527 443 527 c 1
 444 524 l 1
 442.4 513.6 441.1 502.2 440 490 c 1
 641.9 490 l 1
 640.9 501.9 639.5 513.2 638 524 c 1
 640 527 l 1
 640 527 668 524 694 524 c 0
 720 524 749 527 749 527 c 1
 750 524 l 1
 748.4 513.6 747.1 502.2 746 490 c 1
 799 490 l 1
 799 465 l 1
 744.2 465 l 1
 742.6 437 742 406 742 374 c 2
 742 191 l 2
 742 134 744 83 750 41 c 1
 748 38 l 1
 748 38 720 41 694 41 c 0
 668 41 639 38 639 38 c 1
 638 41 l 1
 644 81 646 134 646 191 c 2
 646 274 l 1
 436 274 l 1
 436 191 l 2
 436 134 438 83 444 41 c 1
 442 38 l 1
 442 38 414 41 388 41 c 0
 362 41 333 38 333 38 c 1
 332 41 l 1
 338 81 340 134 340 191 c 2
 340 374 l 2
249 718 m 2
 189 718 156 685 156 625 c 2
 156 -53 l 2
 156 -113 189 -136 249 -136 c 2
 821 -136 l 2
 881 -136 904 -113 904 -53 c 2
 904 625 l 2
 904 685 881 718 821 718 c 2
 249 718 l 2
1000 -84 m 2
 1000 -174 971 -212 881 -212 c 2
 249 -212 l 2
 159 -212 120 -174 120 -84 c 2
 120 625 l 2
 120 708 168 754 249 754 c 2
 851 754 l 2
 941 754 1000 715 1000 625 c 2
 1000 -84 l 2
646 313 m 1
 646 374 l 2
 646 406.5 645.4 437 643.7 465 c 1
 438.2 465 l 1
 436.6 437 436 406 436 374 c 2
 436 313 l 1
 646 313 l 1
EndSplineSet
Position2: "'cpsp' Versalabstaende 1" dx=2 dy=0 dh=4 dv=0
Colour: ff80cc
EndChar

StartChar: hbar
Encoding: 295 295 59
Width: 1100
VWidth: 999
Flags: HW
HStem: 85 16<354 406 406 458 589 641 641 692> 367 50<508 585> 484 29<319 555> 595 15<442 453>
VStem: 362 88<89 326 357 588> 596 88<89 356>
LayerCount: 3
Fore
SplineSet
594 180 m 2
 594 252 l 2
 594 313 580 325 538 325 c 0
 516 325 499 305 463 270 c 1
 463 180 l 2
 463 123 464 88 470 45 c 1
 469 43 l 1
 469 43 444 45 419 45 c 0
 392 45 368 43 368 43 c 1
 367 45 l 1
 373 85 374 124 374 180 c 2
 374 406 l 2
 374 433.8 373.7 460.3 372.8 484 c 1
 319 484 l 1
 319 514 l 1
 371.1 514 l 1
 370.1 526.5 368.8 537.6 367 547 c 1
 368 550 l 1
 399 552 445 561 464 568 c 1
 468 568 470 566 470 561 c 0
 468.2 544.8 466.9 529.5 465.8 514 c 1
 555 514 l 1
 555 484 l 1
 464.2 484 l 1
 463.4 464.7 463 444.3 463 421 c 2
 463 315 l 1
 513 365 542 374 572 374 c 0
 626 374 683 335 683 258 c 2
 683 180 l 2
 683 123 684 88 690 45 c 1
 689 43 l 1
 689 43 664 45 638 45 c 0
 612 45 587 43 587 43 c 1
 587 45 l 1
 593 85 594 124 594 180 c 2
249 718 m 2
 189 718 156 685 156 625 c 2
 156 -53 l 2
 156 -113 189 -136 249 -136 c 2
 821 -136 l 2
 881 -136 904 -113 904 -53 c 2
 904 625 l 2
 904 685 881 718 821 718 c 2
 249 718 l 2
1000 -84 m 2
 1000 -174 971 -212 881 -212 c 2
 249 -212 l 2
 159 -212 120 -174 120 -84 c 2
 120 625 l 2
 120 708 168 754 249 754 c 2
 851 754 l 2
 941 754 1000 715 1000 625 c 2
 1000 -84 l 2
EndSplineSet
Colour: ff80cc
EndChar

StartChar: Itilde
Encoding: 296 296 60
Width: 1100
VWidth: 999
Flags: HW
HStem: 108 16<492 548 548 603> 581 15<492 548 548 603> 633 33<542 607> 669 34<453 521> 698 8
VStem: 500 96<112 592>
LayerCount: 3
Fore
SplineSet
612 614.1 m 0
 630.7 614.1 640.7 620.7 652.8 661.4 c 1
 675.8 653.7 l 1
 664.8 597.6 640.6 564.6 601 564.6 c 0
 581.2 564.6 563.7 576.7 547.2 588.8 c 0
 530.7 599.8 514.2 610.8 498.8 610.8 c 0
 476.8 610.8 468 598.7 459.2 566.8 c 1
 437.2 573.4 l 1
 449.3 629.5 469 660.3 505.3 660.3 c 0
 531.7 660.3 550.5 647.1 567 633.9 c 0
 581.3 622.9 595.5 614.1 612 614.1 c 0
502 374 m 2
 502 431 500 482 494 524 c 1
 496 527 l 1
 496 527 524 524 550 524 c 0
 576 524 605 527 605 527 c 1
 606 524 l 1
 600 485 598 431 598 374 c 2
 598 191 l 2
 598 134 600 83 606 41 c 1
 604 38 l 1
 604 38 576 41 550 41 c 0
 524 41 495 38 495 38 c 1
 494 41 l 1
 500 81 502 134 502 191 c 2
 502 374 l 2
249 718 m 2
 189 718 156 685 156 625 c 2
 156 -53 l 2
 156 -113 189 -136 249 -136 c 2
 821 -136 l 2
 881 -136 904 -113 904 -53 c 2
 904 625 l 2
 904 685 881 718 821 718 c 2
 249 718 l 2
1000 -84 m 2
 1000 -174 971 -212 881 -212 c 2
 249 -212 l 2
 159 -212 120 -174 120 -84 c 2
 120 625 l 2
 120 708 168 754 249 754 c 2
 851 754 l 2
 941 754 1000 715 1000 625 c 2
 1000 -84 l 2
EndSplineSet
Position2: "'cpsp' Versalabstaende 1" dx=2 dy=0 dh=4 dv=0
Colour: ff00ff
EndChar

StartChar: itilde
Encoding: 297 297 61
Width: 306
VWidth: 999
Flags: HW
HStem: 76 16<100 152 152 203> 393 15<187 199> 473 33<149 208> 509 34<69 131> 538 8
VStem: 107 88<81 385>
LayerCount: 3
Fore
SplineSet
211.1 486.1 m 0
 227.9 486.1 236.9 492.7 247.8 533.4 c 1
 268.6 525.7 l 1
 258.7 469.6 236.8 436.6 201.2 436.6 c 0
 183.4 436.6 167.5 448.7 152.7 460.8 c 0
 137.9 471.8 123.1 482.8 109.2 482.8 c 0
 89.4 482.8 81.4 470.7 73.5 438.8 c 1
 53.7 445.4 l 1
 64.6 501.5 82.4 532.3 115.1 532.3 c 0
 138.9 532.3 155.8 519.1 170.6 505.9 c 0
 183.5 494.9 196.3 486.1 211.1 486.1 c 0
109 214 m 2
 109 270 107 313 101 346 c 1
 103 348 l 1
 133 350 179 359 198 367 c 1
 202 367 205 365 205 359 c 0
 199 313 197 282 197 226 c 2
 197 173 l 2
 197 115 199 80 205 37 c 1
 203 35 l 1
 203 35 178 37 153 37 c 0
 127 37 102 35 102 35 c 1
 101 37 l 1
 107 78 109 116 109 173 c 2
 109 214 l 2
-131 718 m 2
 -191 718 -224 685 -224 625 c 2
 -224 -53 l 2
 -224 -113 -191 -136 -131 -136 c 2
 441 -136 l 2
 501 -136 524 -113 524 -53 c 2
 524 625 l 2
 524 685 501 718 441 718 c 2
 -131 718 l 2
620 -84 m 2
 620 -174 591 -212 501 -212 c 2
 -131 -212 l 2
 -221 -212 -260 -174 -260 -84 c 2
 -260 625 l 2
 -260 708 -212 754 -131 754 c 2
 471 754 l 2
 561 754 620 715 620 625 c 2
 620 -84 l 2
EndSplineSet
Colour: ff00ff
EndChar

StartChar: Imacron
Encoding: 298 298 62
Width: 1100
VWidth: 999
Flags: HW
HStem: 105 16<492 548 548 603> 578 15<492 548 548 603> 657 33<427 636>
VStem: 426 211<657 690> 500 96<109 589>
LayerCount: 3
Fore
SplineSet
549 679 m 2
 344 679 l 2
 335 679 332 686 332 693 c 0
 332 702 341 717 351 717 c 2
 558 717 l 2
 566 717 569 710 569 704 c 0
 569 694 560 679 549 679 c 2
502 374 m 2
 502 431 500 482 494 524 c 1
 496 527 l 1
 496 527 524 524 550 524 c 0
 576 524 605 527 605 527 c 1
 606 524 l 1
 600 485 598 431 598 374 c 2
 598 191 l 2
 598 134 600 83 606 41 c 1
 604 38 l 1
 604 38 576 41 550 41 c 0
 524 41 495 38 495 38 c 1
 494 41 l 1
 500 81 502 134 502 191 c 2
 502 374 l 2
249 718 m 2
 189 718 156 685 156 625 c 2
 156 -53 l 2
 156 -113 189 -136 249 -136 c 2
 821 -136 l 2
 881 -136 904 -113 904 -53 c 2
 904 625 l 2
 904 685 881 718 821 718 c 2
 249 718 l 2
1000 -84 m 2
 1000 -174 971 -212 881 -212 c 2
 249 -212 l 2
 159 -212 120 -174 120 -84 c 2
 120 625 l 2
 120 708 168 754 249 754 c 2
 851 754 l 2
 941 754 1000 715 1000 625 c 2
 1000 -84 l 2
EndSplineSet
Position2: "'cpsp' Versalabstaende 1" dx=2 dy=0 dh=4 dv=0
Colour: ff00ff
EndChar

StartChar: imacron
Encoding: 299 299 63
Width: 306
VWidth: 999
Flags: HW
HStem: 70 16<99 151 151 203> 387 15<187 198> 476 33<44 232>
VStem: 43 190<476 509> 107 88<75 379>
LayerCount: 3
Fore
SplineSet
152.9 533 m 2
 -31.6 533 l 2
 -39.7 533 -42.4 540 -42.4 547 c 0
 -42.4 556 -34.3 571 -25.3 571 c 2
 161 571 l 2
 168.2 571 170.9 564 170.9 558 c 0
 170.9 548 162.8 533 152.9 533 c 2
109 214 m 2
 109 270 107 313 101 346 c 1
 103 348 l 1
 133 350 179 359 198 367 c 1
 202 367 205 365 205 359 c 0
 199 313 197 282 197 226 c 2
 197 173 l 2
 197 115 199 80 205 37 c 1
 203 35 l 1
 203 35 178 37 153 37 c 0
 127 37 102 35 102 35 c 1
 101 37 l 1
 107 78 109 116 109 173 c 2
 109 214 l 2
-131 718 m 2
 -191 718 -224 685 -224 625 c 2
 -224 -53 l 2
 -224 -113 -191 -136 -131 -136 c 2
 441 -136 l 2
 501 -136 524 -113 524 -53 c 2
 524 625 l 2
 524 685 501 718 441 718 c 2
 -131 718 l 2
620 -84 m 2
 620 -174 591 -212 501 -212 c 2
 -131 -212 l 2
 -221 -212 -260 -174 -260 -84 c 2
 -260 625 l 2
 -260 708 -212 754 -131 754 c 2
 471 754 l 2
 561 754 620 715 620 625 c 2
 620 -84 l 2
EndSplineSet
Colour: ff00ff
EndChar

StartChar: Ibreve
Encoding: 300 300 64
Width: 1100
VWidth: 999
Flags: HW
HStem: 108 16<489 545 545 600> 581 15<489 545 545 600> 629 39<470 587>
VStem: 427 21<684 713> 497 96<112 592> 610 20<686 714>
LayerCount: 3
Fore
SplineSet
642 674 m 1
 631 605 590 579 541 579 c 0
 486 579 442 612 439 674 c 1
 464 674 l 1
 470 645 501 628 541 628 c 0
 578 628 613 645 618 674 c 1
 642 674 l 1
502 374 m 2
 502 431 500 482 494 524 c 1
 496 527 l 1
 496 527 524 524 550 524 c 0
 576 524 605 527 605 527 c 1
 606 524 l 1
 600 485 598 431 598 374 c 2
 598 191 l 2
 598 134 600 83 606 41 c 1
 604 38 l 1
 604 38 576 41 550 41 c 0
 524 41 495 38 495 38 c 1
 494 41 l 1
 500 81 502 134 502 191 c 2
 502 374 l 2
249 718 m 2
 189 718 156 685 156 625 c 2
 156 -53 l 2
 156 -113 189 -136 249 -136 c 2
 821 -136 l 2
 881 -136 904 -113 904 -53 c 2
 904 625 l 2
 904 685 881 718 821 718 c 2
 249 718 l 2
1000 -84 m 2
 1000 -174 971 -212 881 -212 c 2
 249 -212 l 2
 159 -212 120 -174 120 -84 c 2
 120 625 l 2
 120 708 168 754 249 754 c 2
 851 754 l 2
 941 754 1000 715 1000 625 c 2
 1000 -84 l 2
EndSplineSet
Position2: "'cpsp' Versalabstaende 1" dx=2 dy=0 dh=4 dv=0
Colour: ff00ff
EndChar

StartChar: ibreve
Encoding: 301 301 65
Width: 306
VWidth: 999
Flags: HW
HStem: 79 16<100 152 152 203> 396 15<187 199> 459 43<93 185>
VStem: 48 18<539 563> 107 88<83 388> 212 18<540 563>
LayerCount: 3
Fore
SplineSet
68.1 561 m 1
 69 521 97.8 491 141 491 c 0
 172.5 491 211.2 513 213 561 c 1
 234.6 540 l 1
 227.4 461 175.2 433 141 433 c 0
 86.1 433 50.1 479 45.6 540 c 1
 68.1 561 l 1
109 214 m 2
 109 270 107 313 101 346 c 1
 103 348 l 1
 133 350 179 359 198 367 c 1
 202 367 205 365 205 359 c 0
 199 313 197 282 197 226 c 2
 197 173 l 2
 197 115 199 80 205 37 c 1
 203 35 l 1
 203 35 178 37 153 37 c 0
 127 37 102 35 102 35 c 1
 101 37 l 1
 107 78 109 116 109 173 c 2
 109 214 l 2
-131 718 m 2
 -191 718 -224 685 -224 625 c 2
 -224 -53 l 2
 -224 -113 -191 -136 -131 -136 c 2
 441 -136 l 2
 501 -136 524 -113 524 -53 c 2
 524 625 l 2
 524 685 501 718 441 718 c 2
 -131 718 l 2
620 -84 m 2
 620 -174 591 -212 501 -212 c 2
 -131 -212 l 2
 -221 -212 -260 -174 -260 -84 c 2
 -260 625 l 2
 -260 708 -212 754 -131 754 c 2
 471 754 l 2
 561 754 620 715 620 625 c 2
 620 -84 l 2
EndSplineSet
Colour: ff00ff
EndChar

StartChar: Iogonek
Encoding: 302 302 66
Width: 1100
VWidth: 999
Flags: HW
HStem: -126 29<463 526> 40 16<480 536 536 591> 42 19<515 542> 514 15<480 536 536 591>
VStem: 407 45<-88 -14> 488 96<45 524>
LayerCount: 3
Fore
SplineSet
477 -126 m 0
 437 -126 407 -103 407 -62 c 0
 407 -23.8 443 24.5 495 48.2 c 1
 500.2 87.3 502 137.3 502 191 c 2
 502 374 l 2
 502 431 500 482 494 524 c 1
 496 527 l 1
 496 527 524 524 550 524 c 0
 576 524 605 527 605 527 c 1
 606 524 l 1
 600 485 598 431 598 374 c 2
 598 191 l 2
 598 134 600 83 606 41 c 1
 604 38 l 1
 604 38 576 41 550 41 c 0
 546.4 41 542.8 40.9 539.2 40.8 c 0
 487.2 32.6 452 -17.2 452 -52 c 0
 452 -76 469 -97 496 -97 c 0
 518 -97 534 -86 548 -70 c 1
 560 -76 l 1
 542 -111 504 -126 477 -126 c 0
249 718 m 2
 189 718 156 685 156 625 c 2
 156 -53 l 2
 156 -113 189 -136 249 -136 c 2
 821 -136 l 2
 881 -136 904 -113 904 -53 c 2
 904 625 l 2
 904 685 881 718 821 718 c 2
 249 718 l 2
1000 -84 m 2
 1000 -174 971 -212 881 -212 c 2
 249 -212 l 2
 159 -212 120 -174 120 -84 c 2
 120 625 l 2
 120 708 168 754 249 754 c 2
 851 754 l 2
 941 754 1000 715 1000 625 c 2
 1000 -84 l 2
EndSplineSet
Position2: "'cpsp' Versalabstaende 1" dx=2 dy=0 dh=4 dv=0
Colour: ff80cc
EndChar

StartChar: iogonek
Encoding: 303 303 67
Width: 1100
VWidth: 999
Flags: HW
HStem: -112 29<454 516> 54 16<478 530 530 581> 56 19<504 532> 371 15<565 577> 455 104<492 567>
VStem: 398 45<-74 -0> 478 104<469 544> 485 88<59 363>
LayerCount: 3
Fore
SplineSet
467 -112 m 0
 427 -112 398 -89 398 -48 c 0
 398 -12.9 427.5 30.9 472.7 56.1 c 1
 477.4 92.7 479 128.6 479 180 c 2
 479 221 l 2
 479 277 477 320 471 353 c 1
 473 355 l 1
 503 357 549 366 568 374 c 1
 572 374 575 372 575 366 c 0
 569 320 567 289 567 233 c 2
 567 180 l 2
 567 122 569 87 575 44 c 1
 573 42 l 1
 573 42 548 44 523 44 c 0
 513.4 44 504 43.7 495.9 43.4 c 1
 463 24.6 443 -11.4 443 -39 c 0
 443 -63 459 -83 486 -83 c 0
 508 -83 524 -72 538 -56 c 1
 550 -62 l 1
 532 -97 494 -112 467 -112 c 0
249 718 m 2
 189 718 156 685 156 625 c 2
 156 -53 l 2
 156 -113 189 -136 249 -136 c 2
 821 -136 l 2
 881 -136 904 -113 904 -53 c 2
 904 625 l 2
 904 685 881 718 821 718 c 2
 249 718 l 2
1000 -84 m 2
 1000 -174 971 -212 881 -212 c 2
 249 -212 l 2
 159 -212 120 -174 120 -84 c 2
 120 625 l 2
 120 708 168 754 249 754 c 2
 851 754 l 2
 941 754 1000 715 1000 625 c 2
 1000 -84 l 2
473 518 m 0
 473 546 496 570 525 570 c 0
 554 570 577 546 577 518 c 0
 577 490 554 466 525 466 c 0
 496 466 473 490 473 518 c 0
EndSplineSet
Colour: ff80cc
EndChar

StartChar: Idotaccent
Encoding: 304 304 68
Width: 1100
VWidth: 999
Flags: HW
HStem: 114 16<493 549 549 604> 587 15<493 549 549 604> 649 104<508 582>
VStem: 493 104<663 738> 501 96<118 598>
LayerCount: 3
Fore
SplineSet
502 374 m 2
 502 431 500 482 494 524 c 1
 496 527 l 1
 496 527 524 524 550 524 c 0
 576 524 605 527 605 527 c 1
 606 524 l 1
 600 485 598 431 598 374 c 2
 598 191 l 2
 598 134 600 83 606 41 c 1
 604 38 l 1
 604 38 576 41 550 41 c 0
 524 41 495 38 495 38 c 1
 494 41 l 1
 500 81 502 134 502 191 c 2
 502 374 l 2
249 718 m 2
 189 718 156 685 156 625 c 2
 156 -53 l 2
 156 -113 189 -136 249 -136 c 2
 821 -136 l 2
 881 -136 904 -113 904 -53 c 2
 904 625 l 2
 904 685 881 718 821 718 c 2
 508.5 718 l 1
 499.7 702.1 482.7 691 463 691 c 0
 443.3 691 426.3 702.1 417.5 718 c 1
 249 718 l 2
1000 -84 m 2
 1000 -174 971 -212 881 -212 c 2
 249 -212 l 2
 159 -212 120 -174 120 -84 c 2
 120 625 l 2
 120 708 168 754 249 754 c 2
 412.2 754 l 1
 417.3 777 437.9 795 463 795 c 0
 488.1 795 508.7 777 513.8 754 c 1
 851 754 l 2
 941 754 1000 715 1000 625 c 2
 1000 -84 l 2
EndSplineSet
Substitution2: "'c2sc' Versale nach Kapitaelchen 1" idotaccent.sc
Position2: "'cpsp' Versalabstaende 1" dx=2 dy=0 dh=4 dv=0
Colour: ff00ff
EndChar

StartChar: afii10057
Encoding: 1032 1032 69
Width: 385
VWidth: 999
Flags: HW
HStem: 72 45<85 169> 551 15G<192 232 232 271>
VStem: 199 64<179 561>
AnchorPoint: "top_akzent" 231 684 basechar 0
AnchorPoint: "top_punkt" 230 622 basechar 0
LayerCount: 3
Fore
SplineSet
199 273 m 2
 199 414 l 2
 199 470 198 521 192 564 c 1
 193 566 l 1
 193 566 206 564 232 564 c 0
 258 564 271 566 271 566 c 1
 271 564 l 1
 265 524 264 470 264 414 c 2
 264 290 l 2
 264 204 256 181 217 129 c 0
 186 89 145 72 98 72 c 0
 84 72 70 75 64 79 c 1
 64 81 l 1
 72 96 79 122 85 143 c 1
 93 144 l 1
 101 128 115 117 136 117 c 0
 196 117 199 207 199 273 c 2
EndSplineSet
EndChar

StartChar: afii10061
Encoding: 1036 1036 70
Width: 632
VWidth: 999
Flags: HW
HStem: 97 16<421 448 529 536> 98 16<161 216 216 272> 334 34<229 276> 527 67<427 509> 571 15<161 216 216 272> 624 92
VStem: 168 96<102 582> 305 151
LayerCount: 3
Fore
SplineSet
433.8 677.6 m 1
 485.5 634.7 l 1
 366.8 586.3 l 2
 349.2 578.6 338.1 576.4 331.5 576.4 c 0
 323.8 576.4 319.5 580.8 319.5 589.6 c 0
 319.5 595.1 321.6 598.4 331.5 606.1 c 2
 433.8 677.6 l 1
249 718 m 2
 189 718 156 685 156 625 c 2
 156 -53 l 2
 156 -113 189 -136 249 -136 c 2
 821 -136 l 2
 881 -136 904 -113 904 -53 c 2
 904 625 l 2
 904 685 881 718 821 718 c 2
 249 718 l 2
1000 -84 m 2
 1000 -174 971 -212 881 -212 c 2
 249 -212 l 2
 159 -212 120 -174 120 -84 c 2
 120 625 l 2
 120 708 168 754 249 754 c 2
 851 754 l 2
 941 754 1000 715 1000 625 c 2
 1000 -84 l 2
367 208 m 0
 336 267 313 310 229 316 c 1
 229 350 l 1
 300 350 302 413 349 480 c 0
 381 527 426 575 484 575 c 0
 504 575 507 573 527 568 c 1
 530 563 l 1
 518.3 525.1 l 1
 527.7 524.5 539 524 550 524 c 0
 576 524 605 527 605 527 c 1
 606 524 l 1
 600 485 598 431 598 374 c 2
 598 191 l 2
 598 134 600 83 606 41 c 1
 604 38 l 1
 604 38 576 41 550 41 c 0
 524 41 495 38 495 38 c 1
 494 41 l 1
 495.8 53.3 497.4 66.9 498.5 81.4 c 1
 490.5 81.8 482.4 82 476 82 c 0
 456 82 456 80 439 79 c 1
 403 136 388 170 367 208 c 0
500.9 124.3 m 1
 501.7 145.5 502 167.9 502 191 c 2
 502 374 l 2
 502 418.3 500.8 459 497.4 494.7 c 1
 483.4 503.6 470.8 508 451 508 c 0
 434 508 407 494 380 458 c 0
 346 414 335 352 302 337 c 1
 302 334 l 1
 356 326 371.8 303.9 410 260 c 0
 459 203.7 469.9 167.9 500.9 124.3 c 1
EndSplineSet
LCarets2: 1 89 
Colour: ff00ff
EndChar

StartChar: uni040D
Encoding: 1037 1037 71
Width: 700
VWidth: 999
Flags: HW
HStem: 108 16<165 221 221 276 470 525 525 581> 581 15<165 221 221 276 470 525 525 581>
VStem: 173 96<112 592> 477 96<112 592>
DStem2: 234 211 234 169 0.608002 0.793935<0 370.025>
LayerCount: 3
Fore
SplineSet
502 374 m 2
 502 431 500 482 494 524 c 1
 496 527 l 1
 496 527 524 524 550 524 c 0
 576 524 605 527 605 527 c 1
 606 524 l 1
 600 485 598 431 598 374 c 2
 598 191 l 2
 598 134 600 83 606 41 c 1
 604 38 l 1
 604 38 576 41 550 41 c 0
 524 41 495 38 495 38 c 1
 494 41 l 1
 500 81 502 134 502 191 c 2
 502 374 l 2
249 718 m 2
 189 718 156 685 156 625 c 2
 156 -53 l 2
 156 -113 189 -136 249 -136 c 2
 429.8 -136 l 1
 425.9 -121.1 424 -103.8 424 -84 c 2
 424 387.2 l 1
 234 139 l 1
 234 181 l 1
 424 429.2 l 1
 424 577.9 l 1
 417.8 579.3 409.8 581.9 399.6 586.4 c 2
 273.1 638.1 l 1
 334.7 675.5 l 1
 424 613.7 l 1
 424 625 l 2
 424 664.9 435.1 696.2 455.6 718 c 1
 249 718 l 2
806 374 m 2
 806 431 804 482 798 524 c 1
 800 527 l 1
 800 527 828 524 854 524 c 0
 873.5 524 894.6 525.7 904 526.5 c 1
 904 625 l 2
 904 685 881 718 821 718 c 2
 553 718 l 2
 493 718 460 685 460 625 c 2
 460 476.2 l 1
 479 501 l 1
 479 459 l 1
 460 434.2 l 1
 460 -53 l 2
 460 -113 493 -136 553 -136 c 2
 821 -136 l 2
 881 -136 904 -113 904 -53 c 2
 904 38.4 l 1
 895.4 39.2 874.1 41 854 41 c 0
 828 41 799 38 799 38 c 1
 798 41 l 1
 804 81 806 134 806 191 c 2
 806 374 l 2
1304 -84 m 2
 1304 -174 1275 -212 1185 -212 c 2
 881 -212 l 1
 553 -212 l 1
 249 -212 l 2
 159 -212 120 -174 120 -84 c 2
 120 625 l 2
 120 708 168 754 249 754 c 2
 553 754 l 1
 851 754 l 1
 1155 754 l 2
 1245 754 1304 715 1304 625 c 2
 1304 -84 l 2
904 105.6 m 1
 904 460.6 l 1
 902.6 433.8 902 404.3 902 374 c 2
 902 191 l 2
 902 160.7 902.6 132.1 904 105.6 c 1
965.3 718 m 1
 987.5 697 1000 666.4 1000 625 c 2
 1000 -84 l 2
 1000 -103.8 998.5 -121.1 995.4 -136 c 1
 1125 -136 l 2
 1185 -136 1208 -113 1208 -53 c 2
 1208 625 l 2
 1208 685 1185 718 1125 718 c 2
 965.3 718 l 1
EndSplineSet
LCarets2: 1 93 
Colour: ff00ff
EndChar

StartChar: afii10062
Encoding: 1038 1038 72
Width: 580
VWidth: 999
Flags: HW
HStem: 80 50<176 247> 567 15<117 125 190 200 423 437 490 492> 619 23<276 344>
VStem: 216 52<648 698> 350 52<647 698>
DStem2: 285 200 332 217 0.410131 0.912027<-79.0328 10.4721 85.0448 246.04>
LayerCount: 3
Fore
SplineSet
279 768 m 0
 279 729 232 710 185 710 c 0
 136 710 92 728 92 767 c 0
 92 784 101 791 121 791 c 0
 137 791 145 779 145 767 c 0
 145 766 144 762 144 761 c 0
 144 746 161 734 186 734 c 0
 208 734 227 744 227 761 c 1
 226 767 l 1
 226 779 233 791 250 791 c 0
 270 791 279 783 279 768 c 0
332 199 m 2
 295.9 119.1 259 62 191 62 c 0
 160 62 125 79 125 103 c 0
 125 124 137 141 161 141 c 0
 171 141 188 136 195 127 c 0
 200 120 212 112 222 112 c 0
 254 112 266 139 285 182 c 1
 220 333 140 504 110 564 c 1
 123 562 143 562 155 562 c 0
 168 562 184 562 197 564 c 1
 203 542 244 431 318 260 c 1
 364 368 413 488 433 564 c 1
 442 562 462 562 470 562 c 0
 479 562 488 562 497 564 c 1
 332 199 l 2
EndSplineSet
LCarets2: 1 76 
Colour: ff00ff
EndChar

StartChar: afii10020
Encoding: 1043 1043 73
Width: 481
VWidth: 999
Flags: HW
HStem: 78 16<137 177 177 217> 524 40<213 380>
VStem: 145 64<83 523>
LayerCount: 3
Fore
SplineSet
209 414 m 2
 209 231 l 2
 209 174 211 120 217 81 c 1
 216 78 l 1
 216 78 203 81 177 81 c 0
 152 81 138 78 138 78 c 1
 137 81 l 1
 143 123 145 174 145 231 c 2
 145 414 l 2
 145 471 143 524 137 564 c 1
 138 567 l 1
 138 567 152 564 177 564 c 2
 382 564 l 2
 398 564 415 565 427 567 c 1
 428 564 l 1
 428 554 427 550 427 543 c 0
 427 535 428 524 428 518 c 1
 427 515 l 1
 427 515 316 524 215 524 c 1
 210 506 209 427 209 414 c 2
EndSplineSet
Colour: ff00ff
EndChar

StartChar: afii10021
Encoding: 1044 1044 74
Width: 708
VWidth: 999
Flags: HW
HStem: 63 33<225 420> 514 33<288 420>
VStem: 110 27<-40 19> 426 64<109 503> 508 27<-40 19>
LayerCount: 3
Fore
SplineSet
399 96 m 2
 413 96 418 101 420 108 c 0
 426 126 426 201 426 213 c 2
 426 397 l 2
 426 410 426 486 420 504 c 1
 415 511 412 514 401 514 c 2
 315 514 l 2
 295 514 288 507 286 488 c 0
 280 412 269 334 260 283 c 0
 243 195 225 121 225 105 c 0
 225 96 234 96 245 96 c 2
 399 96 l 2
214 63 m 2
 154 63 145 15 137 -40 c 1
 135 -42 l 1
 111 -42 l 1
 110 -40 l 1
 101 72 l 2
 101 79 105 85 123 87 c 0
 138 89 154 87 165 99 c 0
 184 118 198 172 222 289 c 1
 238 375 247 452 247 499 c 0
 247 516 245 532 243 547 c 1
 243 549 l 1
 243 549 264 547 289 547 c 2
 459 547 l 2
 484 547 498 549 498 549 c 1
 498 547 l 1
 492 507 491 453 491 397 c 2
 491 213 l 2
 491 131 496 90 522 87 c 1
 540 86 544 79 544 72 c 2
 535 -40 l 1
 534 -42 l 1
 510 -42 l 1
 508 -40 l 1
 500 15 491 63 431 63 c 2
 214 63 l 2
EndSplineSet
EndChar

StartChar: afii10024
Encoding: 1046 1046 75
Width: 924
VWidth: 999
Flags: HW
HStem: 79 16G<142 149 226 251 673 698 775 782> 80 16<422 478 478 533> 316 34<389 434 490 535> 508 67<168 245 679 756> 553 15<422 478 478 533>
VStem: 430 96<84 563>
LayerCount: 3
Fore
SplineSet
622 208 m 0
 592 267 570 310 490 316 c 1
 490 350 l 1
 557 350 560 413 604 480 c 0
 635 526 677 575 733 575 c 0
 752 575 754 573 773 568 c 1
 777 563 l 1
 765.1 524.5 l 1
 771.5 524.2 778.3 524 785 524 c 0
 811 524 840 527 840 527 c 1
 841 524 l 1
 835 485 833 431 833 374 c 2
 833 191 l 2
 833 134 835 83 841 41 c 1
 839 38 l 1
 839 38 811 41 785 41 c 0
 759 41 730 38 730 38 c 1
 729 41 l 1
 730.9 53.5 732.3 67.2 733.5 81.9 c 1
 730.5 82 727.6 82 725 82 c 0
 706 82 706 80 690 79 c 1
 656 136 641.3 170.1 622 208 c 0
302 208 m 0
 282.7 170.1 268 136 234 79 c 1
 218 80 218 82 199 82 c 0
 182 82 154 80 144 79 c 1
 142 82 l 1
 202 148 200 187 261 260 c 0
 295.8 301.3 310.2 323.3 355 332.4 c 1
 355 343.1 l 1
 330.5 364.6 318.7 418.5 290 458 c 0
 265 494 239 508 223 508 c 0
 202 508 190 503 176 493 c 1
 168 495 l 1
 147 563 l 1
 151 568 l 1
 170 573 172 575 191 575 c 0
 247 575 289 526 320 480 c 0
 335.1 457.1 345.3 434.5 355 414.9 c 1
 355 625 l 2
 355 708 403 754 484 754 c 2
 1086 754 l 2
 1176 754 1235 715 1235 625 c 2
 1235 -84 l 2
 1235 -174 1206 -212 1116 -212 c 2
 484 -212 l 2
 394 -212 355 -174 355 -84 c 2
 355 287.1 l 1
 332.5 267.8 318.4 240.3 302 208 c 0
484 718 m 2
 424 718 391 685 391 625 c 2
 391 363.1 l 1
 401.9 354.8 415.5 350 434 350 c 1
 434 316 l 1
 417.4 314.8 403.2 311.9 391 307.6 c 1
 391 -53 l 2
 391 -113 424 -136 484 -136 c 2
 1056 -136 l 2
 1116 -136 1139 -113 1139 -53 c 2
 1139 625 l 2
 1139 685 1116 718 1056 718 c 2
 484 718 l 2
736.5 143.9 m 1
 736.9 159.1 737 174.9 737 191 c 2
 737 374 l 2
 737 421.6 735.6 465 731.6 502.5 c 1
 723.1 506.2 713.7 508 701 508 c 0
 685 508 659 494 634 458 c 0
 602 414 591 352 560 337 c 1
 560 334 l 1
 612 326 626 304 663 260 c 0
 702.7 212.5 715.7 179.4 736.5 143.9 c 1
EndSplineSet
Colour: ff80cc
EndChar

StartChar: afii10025
Encoding: 1047 1047 76
Width: 542
VWidth: 999
Flags: HW
HStem: 72 28<196 310> 333 28<185 297> 432 16G<103 135> 549 26<191 299>
VStem: 103 22<434 466> 348 60<405 508> 370 69<156 272>
LayerCount: 3
Fore
SplineSet
253 100 m 0
 305 100 370 132 370 213 c 0
 370 251 341 333 253 333 c 2
 199 333 l 2
 190 333 185 338 185 346 c 0
 185 354 190 360 199 360 c 2
 234 360 l 2
 323 360 348 419 348 460 c 0
 348 510 300 549 253 549 c 0
 161 549 144 493 126 432 c 1
 103 434 l 1
 118 565 l 1
 184 565 210 574 255 574 c 0
 325 574 408 539 408 468 c 0
 408 408 376 371 322 351 c 1
 375 336 439 305 439 225 c 0
 439 112 339 72 250 72 c 0
 190 72 153 95 130 113 c 0
 109 129 94 149 94 169 c 0
 94 189 102 204 119 204 c 0
 140 204 148 195 156 171 c 0
 172 125 196 100 253 100 c 0
EndSplineSet
EndChar

StartChar: afii10026
Encoding: 1048 1048 77
Width: 700
VWidth: 999
Flags: HW
HStem: 78 16<165 221 221 276 470 525 525 581> 552 15<165 221 221 276 470 525 525 581>
VStem: 173 96<83 562> 477 96<83 562>
DStem2: 234 181 234 139 0.608002 0.793935<0 370.025>
LayerCount: 3
Fore
SplineSet
806 374 m 2
 806 431 804 482 798 524 c 1
 800 527 l 1
 800 527 828 524 854 524 c 0
 873.5 524 894.6 525.7 904 526.5 c 1
 904 625 l 2
 904 685 881 718 821 718 c 2
 553 718 l 2
 493 718 460 685 460 625 c 2
 460 476.2 l 1
 479 501 l 1
 479 459 l 1
 460 434.2 l 1
 460 -53 l 2
 460 -113 493 -136 553 -136 c 2
 821 -136 l 2
 881 -136 904 -113 904 -53 c 2
 904 38.4 l 1
 895.4 39.2 874.1 41 854 41 c 0
 828 41 799 38 799 38 c 1
 798 41 l 1
 804 81 806 134 806 191 c 2
 806 374 l 2
1304 -84 m 2
 1304 -174 1275 -212 1185 -212 c 2
 881 -212 l 1
 553 -212 l 1
 249 -212 l 2
 159 -212 120 -174 120 -84 c 2
 120 625 l 2
 120 708 168 754 249 754 c 2
 553 754 l 1
 851 754 l 1
 1155 754 l 2
 1245 754 1304 715 1304 625 c 2
 1304 -84 l 2
502 374 m 2
 502 431 500 482 494 524 c 1
 496 527 l 1
 496 527 524 524 550 524 c 0
 576 524 605 527 605 527 c 1
 606 524 l 1
 600 485 598 431 598 374 c 2
 598 191 l 2
 598 134 600 83 606 41 c 1
 604 38 l 1
 604 38 576 41 550 41 c 0
 524 41 495 38 495 38 c 1
 494 41 l 1
 500 81 502 134 502 191 c 2
 502 374 l 2
249 718 m 2
 189 718 156 685 156 625 c 2
 156 -53 l 2
 156 -113 189 -136 249 -136 c 2
 429.8 -136 l 1
 425.9 -121.1 424 -103.8 424 -84 c 2
 424 387.2 l 1
 234 139 l 1
 234 181 l 1
 424 429.2 l 1
 424 625 l 2
 424 664.9 435.1 696.2 455.6 718 c 1
 249 718 l 2
904 105.6 m 1
 904 460.6 l 1
 902.6 433.8 902 404.3 902 374 c 2
 902 191 l 2
 902 160.7 902.6 132.1 904 105.6 c 1
965.3 718 m 1
 987.5 697 1000 666.4 1000 625 c 2
 1000 -84 l 2
 1000 -103.8 998.5 -121.1 995.4 -136 c 1
 1125 -136 l 2
 1185 -136 1208 -113 1208 -53 c 2
 1208 625 l 2
 1208 685 1185 718 1125 718 c 2
 965.3 718 l 1
EndSplineSet
EndChar

StartChar: afii10027
Encoding: 1049 1049 78
Width: 700
VWidth: 999
Flags: HW
HStem: 106 16<153 208 208 264 457 513 513 568> 580 15<153 208 208 264 457 513 513 568> 631 23<310 378>
VStem: 160 96<111 590> 250 52<660 710> 384 52<660 710> 465 96<111 590>
DStem2: 221 209 221 167 0.608002 0.793935<0 370.025>
LayerCount: 3
Fore
SplineSet
806 374 m 2
 806 431 804 482 798 524 c 1
 800 527 l 1
 800 527 828 524 854 524 c 0
 873.5 524 894.6 525.7 904 526.5 c 1
 904 625 l 2
 904 685 881 718 821 718 c 2
 553 718 l 2
 493 718 460 685 460 625 c 2
 460 476.2 l 1
 479 501 l 1
 479 459 l 1
 460 434.2 l 1
 460 -53 l 2
 460 -113 493 -136 553 -136 c 2
 821 -136 l 2
 881 -136 904 -113 904 -53 c 2
 904 38.4 l 1
 895.4 39.2 874.1 41 854 41 c 0
 828 41 799 38 799 38 c 1
 798 41 l 1
 804 81 806 134 806 191 c 2
 806 374 l 2
1304 -84 m 2
 1304 -174 1275 -212 1185 -212 c 2
 881 -212 l 1
 553 -212 l 1
 249 -212 l 2
 159 -212 120 -174 120 -84 c 2
 120 625 l 2
 120 667 132.3 699.5 155 721.4 c 1
 135.1 730.7 122 745.7 122 767 c 0
 122 784 131 791 151 791 c 0
 167 791 175 779 175 767 c 0
 175 766 174 762 174 761 c 0
 174 753.5 178.2 746.8 185.6 741.9 c 1
 203.5 749.9 224.8 754 249 754 c 2
 255.8 754 l 1
 256.6 756.2 257 758.5 257 761 c 2
 256 767 l 1
 256 779 263 791 280 791 c 0
 300 791 309 783 309 768 c 0
 309 763 308.2 758.3 306.8 754 c 1
 553 754 l 1
 851 754 l 1
 1155 754 l 2
 1245 754 1304 715 1304 625 c 2
 1304 -84 l 2
502 374 m 2
 502 431 500 482 494 524 c 1
 496 527 l 1
 496 527 524 524 550 524 c 0
 576 524 605 527 605 527 c 1
 606 524 l 1
 600 485 598 431 598 374 c 2
 598 191 l 2
 598 134 600 83 606 41 c 1
 604 38 l 1
 604 38 576 41 550 41 c 0
 524 41 495 38 495 38 c 1
 494 41 l 1
 500 81 502 134 502 191 c 2
 502 374 l 2
424 429.2 m 1
 424 625 l 2
 424 664.9 435.1 696.2 455.6 718 c 1
 265.2 718 l 1
 250.1 712.6 232.6 710 215 710 c 0
 211.6 710 208.2 710.1 204.8 710.3 c 1
 173 697.3 156 668.1 156 625 c 2
 156 -53 l 2
 156 -113 189 -136 249 -136 c 2
 429.8 -136 l 1
 425.9 -121.1 424 -103.8 424 -84 c 2
 424 387.2 l 1
 234 139 l 1
 234 181 l 1
 424 429.2 l 1
904 105.6 m 1
 904 460.6 l 1
 902.6 433.8 902 404.3 902 374 c 2
 902 191 l 2
 902 160.7 902.6 132.1 904 105.6 c 1
965.3 718 m 1
 987.5 697 1000 666.4 1000 625 c 2
 1000 -84 l 2
 1000 -103.8 998.5 -121.1 995.4 -136 c 1
 1125 -136 l 2
 1185 -136 1208 -113 1208 -53 c 2
 1208 625 l 2
 1208 685 1185 718 1125 718 c 2
 965.3 718 l 1
EndSplineSet
LCarets2: 1 81 
Colour: ff00ff
EndChar

StartChar: afii10033
Encoding: 1055 1055 79
Width: 708
VWidth: 999
Flags: HW
HStem: 78 16<156 196 196 236 472 512 512 552> 531 33<235 473>
VStem: 164 64<83 521> 479 64<83 521>
LayerCount: 3
Fore
SplineSet
512 564 m 2
 537 564 550 567 550 567 c 1
 551 564 l 1
 545 524 544 471 544 414 c 2
 544 231 l 2
 544 174 546 123 552 81 c 1
 550 78 l 1
 550 78 537 81 512 81 c 0
 485 81 472 78 472 78 c 1
 472 81 l 1
 478 120 479 174 479 231 c 2
 479 414 l 2
 479 427 478 504 473 522 c 1
 468 528 465 531 454 531 c 2
 254 531 l 2
 243 531 240 528 235 522 c 1
 230 504 229 427 229 414 c 2
 229 231 l 2
 229 174 230 120 236 81 c 1
 236 78 l 1
 236 78 223 81 196 81 c 0
 171 81 158 78 158 78 c 1
 156 81 l 1
 162 123 164 174 164 231 c 2
 164 414 l 2
 164 471 163 524 157 564 c 1
 158 567 l 1
 158 567 171 564 196 564 c 2
 512 564 l 2
EndSplineSet
Colour: ff00ff
EndChar

StartChar: afii10034
Encoding: 1056 1056 80
Width: 1100
VWidth: 999
Flags: HW
HStem: 79 16<361 415 415 471> 293 32<464 578> 538 32<441 582>
VStem: 369 94<83 300 328 531> 606 104<384 497>
LayerCount: 3
Fore
SplineSet
463 465 m 2
 463 292 l 1
 473 287 496 285 515 285 c 0
 588 285 606 311 606 392 c 0
 606 487 575 498 523 498 c 0
 469 498 463 487 463 465 c 2
369 375 m 2
 369 431 367 482 361 525 c 1
 363 527 l 1
 363 527 390 525 415 525 c 0
 438 525 509 530 528 530 c 0
 667 530 711 450 711 406 c 0
 711 342 655 253 519 253 c 0
 492 253 480 255 463 260 c 1
 463 191 l 2
 463 135 465 84 471 41 c 1
 469 39 l 1
 469 39 441 41 415 41 c 0
 389 41 362 39 362 39 c 1
 361 41 l 1
 367 82 369 135 369 191 c 2
 369 375 l 2
249 718 m 2
 189 718 156 685 156 625 c 2
 156 -53 l 2
 156 -113 189 -136 249 -136 c 2
 821 -136 l 2
 881 -136 904 -113 904 -53 c 2
 904 625 l 2
 904 685 881 718 821 718 c 2
 249 718 l 2
1000 -84 m 2
 1000 -174 971 -212 881 -212 c 2
 249 -212 l 2
 159 -212 120 -174 120 -84 c 2
 120 625 l 2
 120 708 168 754 249 754 c 2
 851 754 l 2
 941 754 1000 715 1000 625 c 2
 1000 -84 l 2
EndSplineSet
Colour: ff00ff
EndChar

StartChar: afii10035
Encoding: 1057 1057 81
Width: 1100
VWidth: 999
Flags: HW
HStem: 74 45<483 623> 532 42<483 626>
VStem: 292 109<229 402>
LayerCount: 3
Fore
SplineSet
554 534 m 0
 645 534 717 501 717 501 c 1
 719 498 l 1
 710 462 706 439 704 401 c 1
 696 400 l 1
 665 462 611 492 543 492 c 0
 482 492 401 444 401 292 c 0
 401 182 434 78 550 78 c 0
 620 78 671 94 724 153 c 1
 741 135 l 1
 690 68 608 34 536 34 c 0
 374 34 292 156 292 277 c 0
 292 425 427 534 554 534 c 0
249 718 m 2
 189 718 156 685 156 625 c 2
 156 -53 l 2
 156 -113 189 -136 249 -136 c 2
 821 -136 l 2
 881 -136 904 -113 904 -53 c 2
 904 625 l 2
 904 685 881 718 821 718 c 2
 249 718 l 2
1000 -84 m 2
 1000 -174 971 -212 881 -212 c 2
 249 -212 l 2
 159 -212 120 -174 120 -84 c 2
 120 625 l 2
 120 708 168 754 249 754 c 2
 851 754 l 2
 941 754 1000 715 1000 625 c 2
 1000 -84 l 2
EndSplineSet
Colour: ff00ff
EndChar

StartChar: afii10036
Encoding: 1058 1058 82
Width: 1100
VWidth: 999
Flags: HW
HStem: 78 16<476 531 531 586> 513 51<326 480 582 736>
VStem: 483 96<83 512>
LayerCount: 3
Fore
SplineSet
483 368 m 2
 483 380 482 455 477 473 c 1
 376 473 326 464 326 464 c 1
 324 467 l 1
 326 479 326 503 324 524 c 1
 326 527 l 1
 338 525 355 524 370 524 c 2
 692 524 l 2
 707 524 724 525 736 527 c 1
 738 524 l 1
 736 503 736 479 738 467 c 1
 736 464 l 1
 736 464 686 473 585 473 c 1
 580 455 579 380 579 368 c 2
 579 191 l 2
 579 134 580 83 586 41 c 1
 585 38 l 1
 585 38 556 41 531 41 c 0
 505 41 476 38 476 38 c 1
 476 41 l 1
 482 81 483 134 483 191 c 2
 483 368 l 2
249 718 m 2
 189 718 156 685 156 625 c 2
 156 -53 l 2
 156 -113 189 -136 249 -136 c 2
 821 -136 l 2
 881 -136 904 -113 904 -53 c 2
 904 625 l 2
 904 685 881 718 821 718 c 2
 249 718 l 2
1000 -84 m 2
 1000 -174 971 -212 881 -212 c 2
 249 -212 l 2
 159 -212 120 -174 120 -84 c 2
 120 625 l 2
 120 708 168 754 249 754 c 2
 851 754 l 2
 941 754 1000 715 1000 625 c 2
 1000 -84 l 2
EndSplineSet
Colour: ff00ff
EndChar

StartChar: afii10037
Encoding: 1059 1059 83
Width: 580
VWidth: 999
Flags: HW
HStem: 62 50<176 247> 549 15G<117 125 190 200 423 437 490 492>
DStem2: 285 182 332 199 0.410131 0.912027<-79.0328 10.4721 85.0448 246.04>
LayerCount: 3
Fore
SplineSet
332 199 m 2
 295.9 119.1 259 62 191 62 c 0
 160 62 125 79 125 103 c 0
 125 124 137 141 161 141 c 0
 171 141 188 136 195 127 c 0
 200 120 212 112 222 112 c 0
 254 112 266 139 285 182 c 1
 220 333 140 504 110 564 c 1
 123 562 143 562 155 562 c 0
 168 562 184 562 197 564 c 1
 203 542 244 431 318 260 c 1
 364 368 413 488 433 564 c 1
 442 562 462 562 470 562 c 0
 479 562 488 562 497 564 c 1
 332 199 l 2
EndSplineSet
EndChar

StartChar: afii10039
Encoding: 1061 1061 84
Width: 1100
VWidth: 999
Flags: HW
HStem: 79 21<309 352 433 449 605 621 734 769> 520 20<614 639 710 754>
DStem2: 398 155 422 135 0.593199 0.805056<-26.4267 172.53 246.653 439.717> 449 488 493 325 0.578967 -0.815351<-26.6196 162.358 218.978 419.486>
LayerCount: 3
Fore
SplineSet
746 38 m 1
 732 41 700 41 686 41 c 0
 673 41 641 41 627 38 c 1
 590.3 109 558.9 166.9 519.4 233.9 c 1
 479.8 173 439.4 106.8 402 38 c 1
 394 41 380 41 371 41 c 0
 362 41 332 41 323 38 c 1
 490 282.9 l 1
 335 527 l 1
 347 524 380 524 392 524 c 0
 405 524 437 524 451 527 c 1
 470.5 486.5 498.8 437.9 545 362.5 c 1
 592.4 431.4 610.7 460.3 647 527 c 1
 655 524 686 524 694 524 c 0
 702 524 717 524 725 527 c 1
 574 315.5 l 1
 746 38 l 1
249 718 m 2
 189 718 156 685 156 625 c 2
 156 -53 l 2
 156 -113 189 -136 249 -136 c 2
 821 -136 l 2
 881 -136 904 -113 904 -53 c 2
 904 625 l 2
 904 685 881 718 821 718 c 2
 249 718 l 2
1000 -84 m 2
 1000 -174 971 -212 881 -212 c 2
 249 -212 l 2
 159 -212 120 -174 120 -84 c 2
 120 625 l 2
 120 708 168 754 249 754 c 2
 851 754 l 2
 941 754 1000 715 1000 625 c 2
 1000 -84 l 2
EndSplineSet
Colour: ff00ff
EndChar

StartChar: afii10040
Encoding: 1062 1062 85
Width: 639
VWidth: 999
Flags: HW
HStem: 63 33<224 425> 534 15G<145 186 186 225 422 462 462 503>
VStem: 153 64<109 545> 430 64<99 545> 511 27<-40 19>
LayerCount: 3
Fore
SplineSet
494 213 m 2
 494 131 499 90 524 87 c 1
 543 86 547 79 547 72 c 2
 538 -40 l 1
 536 -42 l 1
 512 -42 l 1
 511 -40 l 1
 503 14 494 63 434 63 c 2
 186 63 l 2
 160 63 146 61 146 61 c 1
 146 63 l 1
 152 104 153 157 153 213 c 2
 153 397 l 2
 153 453 151 504 145 547 c 1
 146 549 l 1
 146 549 160 547 186 547 c 0
 212 547 224 549 224 549 c 1
 225 547 l 1
 219 507 218 453 218 397 c 2
 218 213 l 2
 218 201 218 126 224 108 c 0
 226 101 231 96 245 96 c 2
 403 96 l 2
 416 96 422 101 424 108 c 0
 429 126 430 201 430 213 c 2
 430 397 l 2
 430 453 428 507 422 547 c 1
 423 549 l 1
 423 549 436 547 462 547 c 0
 488 547 501 549 501 549 c 1
 503 547 l 1
 497 504 494 453 494 397 c 2
 494 213 l 2
EndSplineSet
EndChar

StartChar: afii10041
Encoding: 1063 1063 86
Width: 633
VWidth: 999
Flags: HW
HStem: 88 16<408 464 464 519> 274 48<242 354> 562 15G<144 184 184 224 408 464 464 519>
VStem: 152 64<346 572> 416 96<93 572>
LayerCount: 3
Fore
SplineSet
216 424 m 2
 216 404 l 2
 216 342 246 322 300 322 c 0
 315.3 322 343.2 323.4 375 335.1 c 1
 375 625 l 2
 375 708 423 754 504 754 c 2
 1106 754 l 2
 1196 754 1255 715 1255 625 c 2
 1255 -84 l 2
 1255 -174 1226 -212 1136 -212 c 2
 504 -212 l 2
 414 -212 375 -174 375 -84 c 2
 375 298.9 l 1
 336.4 280.4 300.6 274 269 274 c 0
 183 274 152 333 152 407 c 2
 152 424 l 2
 152 481 150 532 144 574 c 1
 146 577 l 1
 146 577 158 574 184 574 c 0
 210 574 223 577 223 577 c 1
 224 574 l 1
 218 535 216 481 216 424 c 2
757 374 m 2
 757 431 755 482 749 524 c 1
 751 527 l 1
 751 527 779 524 805 524 c 0
 831 524 860 527 860 527 c 1
 861 524 l 1
 855 485 853 431 853 374 c 2
 853 191 l 2
 853 134 855 83 861 41 c 1
 859 38 l 1
 859 38 831 41 805 41 c 0
 779 41 750 38 750 38 c 1
 749 41 l 1
 755 81 757 134 757 191 c 2
 757 374 l 2
504 718 m 2
 444 718 411 685 411 625 c 2
 411 352.5 l 1
 418 357 l 1
 418 324 l 1
 411 319.3 l 1
 411 -53 l 2
 411 -113 444 -136 504 -136 c 2
 1076 -136 l 2
 1136 -136 1159 -113 1159 -53 c 2
 1159 625 l 2
 1159 685 1136 718 1076 718 c 2
 504 718 l 2
EndSplineSet
EndChar

StartChar: afii10042
Encoding: 1064 1064 87
Width: 960
VWidth: 999
Flags: HW
HStem: 81 33<268 443 519 695> 552 15G<189 230 230 270 440 480 480 520 692 732 732 773>
VStem: 198 64<126 562> 448 64<126 562> 700 64<116 562>
LayerCount: 3
Fore
SplineSet
764 231 m 1
 765 174 766 123 772 81 c 1
 770 78 l 1
 770 78 758 81 732 81 c 2
 230 81 l 2
 204 81 191 78 191 78 c 1
 190 81 l 1
 196 121 198 174 198 231 c 2
 198 414 l 2
 198 471 195 522 189 564 c 1
 191 567 l 1
 191 567 204 564 230 564 c 0
 256 564 269 567 269 567 c 1
 270 564 l 1
 264 525 262 471 262 414 c 2
 262 231 l 2
 262 218 263 143 268 125 c 0
 270 118 276 114 289 114 c 2
 421 114 l 2
 434 114 440 118 442 125 c 0
 447 143 448 218 448 231 c 2
 448 414 l 2
 448 471 446 522 440 564 c 1
 441 567 l 1
 441 567 455 564 480 564 c 0
 506 564 519 567 519 567 c 1
 520 564 l 1
 514 525 512 471 512 414 c 2
 512 231 l 2
 512 218 513 143 518 125 c 1
 521 118 526 114 540 114 c 2
 673 114 l 2
 686 114 692 118 694 125 c 0
 699 143 700 218 700 231 c 2
 700 414 l 2
 700 471 698 525 692 564 c 1
 693 567 l 1
 693 567 706 564 732 564 c 0
 758 564 771 567 771 567 c 1
 773 564 l 1
 767 522 764 471 764 414 c 2
 764 231 l 1
EndSplineSet
EndChar

StartChar: afii10043
Encoding: 1065 1065 88
Width: 948
VWidth: 999
Flags: HW
HStem: 63 33<275 451 526 703> 534 15G<197 237 237 277 447 488 488 527 700 740 740 780>
VStem: 205 64<109 545> 455 64<109 545> 707 64<99 545> 788 27<-40 19>
LayerCount: 3
Fore
SplineSet
238 63 m 2
 212 63 198 61 198 61 c 1
 197 63 l 1
 203 104 205 157 205 213 c 2
 205 397 l 2
 205 453 203 504 197 547 c 1
 198 549 l 1
 198 549 212 547 237 547 c 0
 263 547 276 549 276 549 c 1
 277 547 l 1
 271 507 269 453 269 397 c 2
 269 213 l 2
 269 201 270 126 275 108 c 1
 278 101 283 96 296 96 c 2
 428 96 l 2
 442 96 447 101 449 108 c 0
 455 126 455 201 455 213 c 2
 455 397 l 2
 455 453 453 504 447 547 c 1
 449 549 l 1
 449 549 462 547 488 547 c 0
 514 547 527 549 527 549 c 1
 527 547 l 1
 521 507 520 453 520 397 c 2
 520 213 l 2
 520 201 521 126 526 108 c 0
 528 101 533 96 547 96 c 2
 680 96 l 2
 694 96 699 101 701 108 c 0
 707 126 707 201 707 213 c 2
 707 397 l 2
 707 453 706 507 700 547 c 1
 701 549 l 1
 701 549 713 547 740 547 c 0
 765 547 779 549 779 549 c 1
 780 547 l 1
 774 504 772 453 772 397 c 2
 772 213 l 2
 772 131 777 90 802 87 c 1
 821 86 824 79 824 72 c 2
 815 -40 l 1
 814 -42 l 1
 790 -42 l 1
 788 -40 l 1
 780 14 771 63 711 63 c 2
 238 63 l 2
EndSplineSet
EndChar

StartChar: afii10044
Encoding: 1066 1066 89
Width: 717
VWidth: 999
Flags: HW
HStem: 79 26<339 468> 327 33<352 483> 507 16G<129 282> 516 48<131 284>
VStem: 288 64<109 327 360 514> 532 70<158 281>
LayerCount: 3
Fore
SplineSet
352 327 m 1
 352 144 l 2
 352 119 354 105 395 105 c 0
 509 105 532 171 532 218 c 0
 532 263 512 327 416 327 c 2
 352 327 l 1
318 564 m 2
 346 564 359 567 359 567 c 1
 360 564 l 1
 354 525 354 471 352 414 c 1
 352 360 l 1
 396 360 l 2
 580 360 602 285 602 218 c 0
 602 93 484 79 394 79 c 0
 367 79 343 81 322 81 c 0
 296 81 281 78 281 78 c 1
 280 81 l 1
 286 121 288 174 288 231 c 2
 288 414 l 2
 288 427 287 498 282 516 c 1
 181 516 130 507 130 507 c 1
 129 510 l 1
 130 522 130 543 129 564 c 1
 130 567 l 1
 142 565 160 564 175 564 c 2
 318 564 l 2
EndSplineSet
EndChar

StartChar: afii10045
Encoding: 1067 1067 90
Width: 786
VWidth: 999
Flags: HW
HStem: 79 16<542 598 598 653> 79 26<230 359> 327 33<243 374> 552 15<170 211 211 250> 552 15<542 598 598 653>
VStem: 178 64<109 327 360 562> 422 70<158 281> 550 96<83 563>
LayerCount: 3
Fore
SplineSet
871 375 m 2
 871 432 869 483 863 525 c 1
 865 528 l 1
 865 528 893 525 919 525 c 0
 945 525 974 528 974 528 c 1
 975 525 l 1
 969 486 967 432 967 375 c 2
 967 192 l 2
 967 135 969 84 975 42 c 1
 973 39 l 1
 973 39 945 42 919 42 c 0
 893 42 864 39 864 39 c 1
 863 42 l 1
 869 82 871 135 871 192 c 2
 871 375 l 2
618 719 m 2
 558 719 525 686 525 626 c 2
 525 -52 l 2
 525 -112 558 -135 618 -135 c 2
 1190 -135 l 2
 1250 -135 1273 -112 1273 -52 c 2
 1273 626 l 2
 1273 686 1250 719 1190 719 c 2
 618 719 l 2
1369 -83 m 2
 1369 -173 1340 -211 1250 -211 c 2
 618 -211 l 2
 528 -211 489 -173 489 -83 c 2
 489 626 l 2
 489 709 537 755 618 755 c 2
 1220 755 l 2
 1310 755 1369 716 1369 626 c 2
 1369 -83 l 2
188 81 m 0
 162 81 147 78 147 78 c 1
 146 81 l 1
 152 121 154 174 154 231 c 2
 154 414 l 2
 154 471 152 522 146 564 c 1
 147 567 l 1
 147 567 161 564 186 564 c 0
 212 564 225 567 225 567 c 1
 226 564 l 1
 220 525 218 471 218 414 c 2
 218 360 l 1
 262 360 l 2
 446 360 468 285 468 218 c 0
 468 93 350 79 260 79 c 0
 233 79 210 81 188 81 c 0
218 327 m 1
 218 144 l 2
 218 119 220 105 261 105 c 0
 375 105 398 171 398 218 c 0
 398 263 378 327 282 327 c 2
 218 327 l 1
EndSplineSet
Colour: ff00ff
EndChar

StartChar: afii10046
Encoding: 1068 1068 91
Width: 558
VWidth: 999
Flags: HW
HStem: 79 26<205 335> 327 33<218 350> 552 15G<146 186 186 226>
VStem: 154 64<109 327 360 562> 398 70<158 281>
LayerCount: 3
Fore
SplineSet
188 81 m 0
 162 81 147 78 147 78 c 1
 146 81 l 1
 152 121 154 174 154 231 c 2
 154 414 l 2
 154 471 152 522 146 564 c 1
 147 567 l 1
 147 567 161 564 186 564 c 0
 212 564 225 567 225 567 c 1
 226 564 l 1
 220 525 218 471 218 414 c 2
 218 360 l 1
 262 360 l 2
 446 360 468 285 468 218 c 0
 468 93 350 79 260 79 c 0
 233 79 210 81 188 81 c 0
218 327 m 1
 218 144 l 2
 218 119 220 105 261 105 c 0
 375 105 398 171 398 218 c 0
 398 263 378 327 282 327 c 2
 218 327 l 1
EndSplineSet
EndChar

StartChar: afii10047
Encoding: 1069 1069 92
Width: 604
VWidth: 999
Flags: HMW
HStem: 72 26<221 345> 286 42<307 392> 314 37<192 288> 546 28<217 335>
VStem: 429 67<220 311 339 426>
LayerCount: 3
Fore
SplineSet
429 311 m 1
 388 286 355 286 345 286 c 0
 299 286 267 314 222 314 c 0
 194 314 182 302 176 302 c 0
 173 302 169 304 169 311 c 0
 169 330 216 351 261 351 c 0
 310 351 332 328 375 328 c 0
 397 328 414 332 429 339 c 1
 421 493 339 546 279 546 c 0
 207 546 149 486 129 421 c 1
 107 424 l 1
 115 464 121 499 123 540 c 1
 166 543 206 574 285 574 c 0
 408 574 496 493 496 330 c 0
 496 166 409 72 282 72 c 0
 217 72 175 95 152 113 c 0
 132 129 116 152 116 172 c 0
 116 192 125 204 138 204 c 0
 160 204 169 195 177 171 c 0
 195 117 236 96 290 96 c 0
 385 96 429 208 429 311 c 1
EndSplineSet
EndChar

StartChar: afii10048
Encoding: 1070 1070 93
Width: 905
VWidth: 999
Flags: HW
HStem: 72 29<510 619> 78 16<194 250 250 306> 307 33<263 336> 545 29<494 606> 552 15<194 250 250 306>
VStem: 202 96<83 562> 336 72<226 307 340 416> 700 72<224 424>
LayerCount: 3
Fore
SplineSet
263 340 m 1
 337 340 l 1
 347 474 435 574 552 574 c 0
 678 574 772 476 772 328 c 0
 772 197.3 706.8 100 602 77.1 c 1
 603.1 64.4 604.4 52.4 606 41 c 1
 604 38 l 1
 604 38 576 41 550 41 c 0
 524 41 495 38 495 38 c 1
 494 41 l 1
 495.7 52.6 497.1 65.2 498.2 78.7 c 1
 405.8 102 337.7 185.1 336 307 c 1
 263 307 l 1
 263 340 l 1
544 545 m 0
 481 545 408 484 408 326 c 0
 408 222.5 448.3 151.5 500.7 119.8 c 1
 501.6 142.3 502 166.3 502 191 c 2
 502 374 l 2
 502 431 500 482 494 524 c 1
 496 527 l 1
 496 527 524 524 550 524 c 0
 576 524 605 527 605 527 c 1
 606 524 l 1
 600 485 598 431 598 374 c 2
 598 191 l 2
 598 161 598.6 132.6 600 106.3 c 1
 659.8 126 700 199.4 700 313 c 0
 700 469 638 545 544 545 c 0
249 718 m 2
 189 718 156 685 156 625 c 2
 156 -53 l 2
 156 -113 189 -136 249 -136 c 2
 821 -136 l 2
 881 -136 904 -113 904 -53 c 2
 904 625 l 2
 904 685 881 718 821 718 c 2
 249 718 l 2
1000 -84 m 2
 1000 -174 971 -212 881 -212 c 2
 249 -212 l 2
 159 -212 120 -174 120 -84 c 2
 120 625 l 2
 120 708 168 754 249 754 c 2
 851 754 l 2
 941 754 1000 715 1000 625 c 2
 1000 -84 l 2
EndSplineSet
EndChar

StartChar: afii10049
Encoding: 1071 1071 94
Width: 561
VWidth: 999
Flags: HW
HStem: 79 16G<60 68 144 155 337 377 377 416> 296 33<264 344> 541 29<222 358>
VStem: 113 73<375 505> 344 64<83 296 329 533>
LayerCount: 3
Fore
SplineSet
282 541 m 0
 236 541 186 528 186 440 c 0
 186 346 236 329 308 329 c 2
 344 329 l 1
 344 508 l 2
 344 530 336 541 282 541 c 0
223.9 306.3 m 1
 208.9 310.1 197.7 314.8 188 320 c 0
 147 340 113 379 113 440 c 0
 113 478 126 509 152 534 c 0
 188 568 236 570 283 570 c 0
 302 570 354 565 377 565 c 0
 402 565 415 567 415 567 c 1
 416 565 l 1
 410 522 409 471 409 415 c 2
 409 231 l 2
 409 175 410 122 416 81 c 1
 416 79 l 1
 416 79 403 81 377 81 c 0
 351 81 338 79 338 79 c 1
 337 81 l 1
 343 124 344 175 344 231 c 2
 344 296 l 1
 325.6 296 309.3 296.4 295 297.1 c 1
 273.5 272.5 251.5 242.3 231 213 c 0
 193.1 158.9 159 104 151 79 c 1
 137 81 114 81 100 81 c 0
 85 81 76 81 61 79 c 1
 60 81 l 1
 96.8 123.5 176.4 242.6 223.9 306.3 c 1
EndSplineSet
EndChar

StartChar: afii10089
Encoding: 1095 1095 95
Width: 510
VWidth: 999
Flags: HW
HStem: 58 16<301 338 338 376> 163 33<180 284> 369 15G<101 139 139 176 301 338 338 376>
VStem: 109 60<207 380> 308 60<62 380>
LayerCount: 3
Fore
SplineSet
109 279 m 0
 109 335 107 342 101 382 c 1
 102 384 l 1
 102 384 112 382 139 382 c 0
 164 382 175 384 175 384 c 1
 176 382 l 1
 170 339 169 336 169 280 c 0
 169 222 175 196 221 196 c 0
 245 196 265.2 199.8 283 209 c 1
 283 241 l 2
 283 294 282 335 276 375 c 1
 276 378 l 1
 276 378 287 375 313 375 c 0
 338 375 349 378 349 378 c 1
 350 375 l 1
 344 333 344 297 343 241 c 1
 343 188 l 2
 343 132 344 96 350 54 c 1
 349 51 l 1
 349 51 338 54 313 54 c 0
 287 54 276 51 276 51 c 1
 276 54 l 1
 281.6 91.7 282.9 127.6 283 178.4 c 1
 263.1 168.3 242 163 211 163 c 0
 138 163 109 199 109 279 c 0
EndSplineSet
EndChar

StartChar: afii10090
Encoding: 1096 1096 96
Width: 807
VWidth: 999
Flags: HW
HStem: 54 31<240 367 439 568> 363 15G<166 204 204 241 366 403 403 441 565 603 603 641>
VStem: 174 60<95 373> 373 60<95 373> 573 60<86 373>
CounterMasks: 1 38
LayerCount: 3
Fore
SplineSet
633 204 m 2
 633 148 634 94 640 54 c 1
 639 51 l 1
 639 51 626 54 600 54 c 2
 206 54 l 2
 180 54 167 51 167 51 c 1
 166 54 l 1
 172 94 174 147 174 204 c 2
 174 241 l 2
 174 297 173 333 166 375 c 1
 168 378 l 1
 168 378 178 375 204 375 c 0
 230 375 240 378 240 378 c 1
 241 375 l 1
 234 335 234 297 234 241 c 2
 234 204 l 2
 234 191 234 112 240 94 c 1
 245 87 248 84 259 84 c 2
 348 84 l 2
 359 84 362 87 367 94 c 1
 372 112 373 191 373 204 c 2
 373 241 l 2
 373 297 372 333 366 375 c 1
 367 378 l 1
 367 378 378 375 403 375 c 0
 429 375 440 378 440 378 c 1
 441 375 l 1
 434 335 433 297 433 241 c 2
 433 204 l 2
 433 191 434 112 439 94 c 1
 444 87 447 84 459 84 c 2
 558 84 l 2
 569 84 561 87 567 94 c 1
 572 112 573 191 573 204 c 2
 573 240 l 2
 573 297 572 333 565 375 c 1
 567 378 l 1
 567 378 578 375 603 375 c 0
 630 375 640 378 640 378 c 1
 641 375 l 1
 634 335 633 297 633 240 c 2
 633 204 l 2
EndSplineSet
EndChar

StartChar: afii10091
Encoding: 1097 1097 97
Width: 813
VWidth: 999
Flags: HW
HStem: 38 31<247 374 447 575> 347 15G<174 211 211 248 373 410 410 448 572 611 611 648>
VStem: 181 60<79 358> 380 60<79 358> 580 60<69 358> 656 27<-56 -0>
LayerCount: 3
Fore
SplineSet
213 38 m 2
 188 38 174 36 174 36 c 1
 174 38 l 1
 180 78 181 132 181 188 c 2
 181 226 l 2
 181 282 180 317 174 360 c 1
 175 362 l 1
 175 362 186 360 211 360 c 0
 237 360 248 362 248 362 c 1
 248 360 l 1
 242 319 241 281 241 226 c 2
 241 188 l 2
 241 175 242 96 247 78 c 1
 252 72 255 69 266 69 c 2
 355 69 l 2
 366 69 369 72 374 78 c 1
 380 96 380 175 380 188 c 2
 380 226 l 2
 380 282 380 317 373 360 c 1
 374 362 l 1
 374 362 385 360 410 360 c 0
 437 360 447 362 447 362 c 1
 448 360 l 1
 441 319 440 281 440 226 c 2
 440 188 l 2
 440 175 441 96 446 78 c 1
 452 72 455 69 466 69 c 2
 565 69 l 2
 576 69 569 72 574 78 c 1
 579 96 580 175 580 188 c 2
 580 225 l 2
 580 282 579 317 572 360 c 1
 574 362 l 1
 574 362 585 360 611 360 c 0
 637 360 648 362 648 362 c 1
 648 360 l 1
 642 320 640 281 640 225 c 2
 640 188 l 2
 640 106 645 64 670 62 c 0
 689 60 692 54 692 46 c 2
 684 -56 l 1
 682 -58 l 1
 658 -58 l 1
 656 -56 l 1
 648 -1 639 38 579 38 c 2
 213 38 l 2
EndSplineSet
EndChar

StartChar: afii10092
Encoding: 1098 1098 98
Width: 539
VWidth: 999
Flags: HW
HStem: 52 27<260 369> 218 28<272 369> 334 41<94 210>
VStem: 212 60<84 218 246 333> 388 60<99 201>
LayerCount: 3
Fore
SplineSet
388 148 m 0
 388 188 376 218 322 218 c 2
 272 218 l 1
 272 113 l 2
 272 87 285 79 320 79 c 0
 357 79 388 87 388 148 c 0
212 241 m 2
 212 294 210 334 210 334 c 1
 116 334 93 326 93 326 c 1
 92 328 l 1
 93 339 93 356 92 375 c 1
 93 377 l 1
 104 376 120 375 134 375 c 2
 242 375 l 2
 268 375 278 378 278 378 c 1
 280 375 l 1
 273 333 272 304 272 248 c 2
 272 246 l 1
 315 246 l 2
 387 246 448 226 448 156 c 0
 448 93 402 52 319 52 c 0
 289 52 272 54 242 54 c 0
 216 54 206 51 206 51 c 1
 205 54 l 1
 212 94 212 132 212 188 c 2
 212 241 l 2
EndSplineSet
EndChar

StartChar: afii10093
Encoding: 1099 1099 99
Width: 681
VWidth: 999
Flags: HW
HStem: 51 16<456 494 494 531> 52 27<208 317> 218 28<220 317> 363 15<152 190 190 228 456 494 494 531>
VStem: 160 60<84 218 246 373> 336 60<99 201> 464 60<56 373>
LayerCount: 3
Fore
SplineSet
413 241 m 2
 413 294 412 335 406 375 c 1
 406 378 l 1
 406 378 417 375 443 375 c 0
 468 375 479 378 479 378 c 1
 480 375 l 1
 474 333 474 297 473 241 c 1
 473 188 l 2
 473 132 474 96 480 54 c 1
 479 51 l 1
 479 51 468 54 443 54 c 0
 417 54 406 51 406 51 c 1
 406 54 l 1
 412 94 413 132 413 188 c 2
 413 241 l 2
315 148 m 0
 315 188 303 218 249 218 c 2
 199 218 l 1
 199 113 l 2
 199 87 212 79 246 79 c 0
 284 79 315 87 315 148 c 0
199 248 m 2
 199 246 l 1
 242 246 l 2
 314 246 375 226 375 156 c 0
 375 93 329 52 246 52 c 0
 216 52 199 54 169 54 c 0
 143 54 132 51 132 51 c 1
 132 54 l 1
 138 94 139 132 139 188 c 2
 139 241 l 2
 139 294 138 335 132 375 c 1
 132 378 l 1
 132 378 143 375 169 375 c 0
 195 375 205 378 205 378 c 1
 207 375 l 1
 200 333 199 304 199 248 c 2
EndSplineSet
Colour: ff00ff
EndChar

StartChar: afii10094
Encoding: 1100 1100 100
Width: 447
VWidth: 999
Flags: HW
HStem: 52 27<187 296> 218 28<199 296> 363 15G<132 169 169 207>
VStem: 139 60<84 218 246 373> 315 60<99 201>
LayerCount: 3
Fore
SplineSet
315 148 m 0
 315 188 303 218 249 218 c 2
 199 218 l 1
 199 113 l 2
 199 87 212 79 246 79 c 0
 284 79 315 87 315 148 c 0
199 248 m 2
 199 246 l 1
 242 246 l 2
 314 246 375 226 375 156 c 0
 375 93 329 52 246 52 c 0
 216 52 199 54 169 54 c 0
 143 54 132 51 132 51 c 1
 132 54 l 1
 138 94 139 132 139 188 c 2
 139 241 l 2
 139 294 138 335 132 375 c 1
 132 378 l 1
 132 378 143 375 169 375 c 0
 195 375 205 378 205 378 c 1
 207 375 l 1
 200 333 199 304 199 248 c 2
EndSplineSet
EndChar

StartChar: afii10095
Encoding: 1101 1101 101
Width: 434
VWidth: 999
Flags: HMW
HStem: 46 23<154 232> 189 37<174 280> 209 31<123 195> 360 23<146 231>
VStem: 289 58<141 210 226 293>
LayerCount: 3
Fore
SplineSet
288 231 m 1
 283 285 258 360 190 360 c 0
 130 360 114 317 104 271 c 1
 84 274 l 1
 88 307 90 333 92 374 c 1
 144 374 144 383 198 383 c 0
 290 383 347 305 347 222 c 0
 347 105 266 46 187 46 c 0
 126 46 81 79 81 118 c 0
 81 129 90 140 104 140 c 0
 112 140 128 137 132 112 c 0
 137 87 160 69 192 69 c 0
 263 69 289 151 289 210 c 1
 272 201 248 189 224 189 c 0
 192 189 170 209 144 209 c 0
 134 209 127 205 121 205 c 0
 116 205 116 212 116 215 c 0
 116 226 150 240 182 240 c 0
 216 240 228 225 257 225 c 0
 269 225 279 227 288 231 c 1
EndSplineSet
EndChar

StartChar: afii10096
Encoding: 1102 1102 102
Width: 686
VWidth: 999
Flags: HW
HStem: 46 30<406 488> 51 16<155 193 193 230> 202 29<221 294> 354 28<392 472> 363 15<155 193 193 230>
VStem: 163 60<56 373> 294 64<136 202 231 296> 516 64<134 300>
LayerCount: 3
Fore
SplineSet
430 354 m 0
 374 354 358 288 358 223 c 0
 358 165 379 76 449 76 c 0
 480 76 516 93 516 192 c 0
 516 302 488 354 430 354 c 0
221 231 m 1
 295 231 l 1
 302 321 351 383 437 383 c 0
 545 383 580 294 580 216 c 0
 580 141 541 46 437 46 c 0
 341 46 296 126 294 202 c 1
 221 202 l 1
 221 231 l 1
103 241 m 2
 103 294 102 335 96 375 c 1
 96 378 l 1
 96 378 107 375 133 375 c 0
 158 375 169 378 169 378 c 1
 170 375 l 1
 164 333 164 297 163 241 c 1
 163 188 l 2
 163 132 164 96 170 54 c 1
 169 51 l 1
 169 51 158 54 133 54 c 0
 107 54 96 51 96 51 c 1
 96 54 l 1
 102 94 103 132 103 188 c 2
 103 241 l 2
EndSplineSet
EndChar

StartChar: afii10097
Encoding: 1103 1103 103
Width: 429
VWidth: 999
Flags: HW
HStem: 51 22<53 64> 200 26<201 247> 207 20<163 169> 355 22<159 259>
VStem: 74 64<244 332> 247 60<56 200 226 353>
LayerCount: 3
Fore
SplineSet
247 226 m 1
 247 328 l 2
 247 352 235 355 206 355 c 0
 151 355 138 330 138 294 c 0
 138 257 155 226 198 226 c 2
 247 226 l 1
307 242 m 2
 307 187 l 2
 307 135 307 94 314 54 c 1
 313 51 l 1
 313 51 303 54 277 54 c 0
 251 54 241 51 241 51 c 1
 239 54 l 1
 246 96 247 125 247 180 c 2
 247 200 l 1
 228 200 l 2
 198 200 180 162 165 117 c 0
 154 86 134 54 108 54 c 1
 53 51 l 1
 51 54 l 1
 51 68 l 2
 51 73 55 74 58 74 c 2
 64 75 l 1
 85 77 110 127 121 156 c 0
 133 186 148 202 169 207 c 1
 128 207 74 233 74 286 c 0
 74 308 88 378 208 378 c 0
 236 378 250 375 277 375 c 0
 303 375 313 378 313 378 c 1
 314 375 l 1
 307 335 307 297 307 242 c 2
EndSplineSet
EndChar

StartChar: uni04AE
Encoding: 1198 1198 104
Width: 1100
VWidth: 999
Flags: HW
HStem: 78 16<480 483 580 584> 552 15<316 325 420 447 654 678 707 747>
VStem: 482 98<112 327>
LayerCount: 3
Fore
SplineSet
249 718 m 2
 189 718 156 685 156 625 c 2
 156 -53 l 2
 156 -113 189 -136 249 -136 c 2
 821 -136 l 2
 881 -136 904 -113 904 -53 c 2
 904 625 l 2
 904 685 881 718 821 718 c 2
 249 718 l 2
1000 -84 m 2
 1000 -174 971 -212 881 -212 c 2
 249 -212 l 2
 159 -212 120 -174 120 -84 c 2
 120 625 l 2
 120 708 168 754 249 754 c 2
 851 754 l 2
 941 754 1000 715 1000 625 c 2
 1000 -84 l 2
580.2 254.3 m 1
 580.8 180 582.7 73.9 586 38 c 1
 574 41 542 41 531 41 c 0
 520 41 489 41 477 38 c 1
 481.2 79.8 481.9 174 482 247 c 1
 454 296.1 340 482 310 527 c 1
 322 524 356 524 368 524 c 0
 381 524 414 524 427 527 c 1
 464.8 452.3 506 385.3 550.6 309.5 c 1
 592 374.6 638.1 453.3 674 527 c 1
 682 524 711 524 721 524 c 0
 730 524 742 524 752 527 c 1
 662.2 388.3 610.2 314.2 580.2 254.3 c 1
EndSplineSet
Colour: ff00ff
EndChar

StartChar: uni04C0
Encoding: 1216 1216 105
Width: 1100
VWidth: 999
Flags: HW
HStem: 78 16<494 550 550 606> 552 15<494 550 550 606>
VStem: 502 96<83 562>
LayerCount: 3
Fore
SplineSet
502 374 m 2
 502 431 500 482 494 524 c 1
 496 527 l 1
 496 527 524 524 550 524 c 0
 576 524 605 527 605 527 c 1
 606 524 l 1
 600 485 598 431 598 374 c 2
 598 191 l 2
 598 134 600 83 606 41 c 1
 604 38 l 1
 604 38 576 41 550 41 c 0
 524 41 495 38 495 38 c 1
 494 41 l 1
 500 81 502 134 502 191 c 2
 502 374 l 2
249 718 m 2
 189 718 156 685 156 625 c 2
 156 -53 l 2
 156 -113 189 -136 249 -136 c 2
 821 -136 l 2
 881 -136 904 -113 904 -53 c 2
 904 625 l 2
 904 685 881 718 821 718 c 2
 249 718 l 2
1000 -84 m 2
 1000 -174 971 -212 881 -212 c 2
 249 -212 l 2
 159 -212 120 -174 120 -84 c 2
 120 625 l 2
 120 708 168 754 249 754 c 2
 851 754 l 2
 941 754 1000 715 1000 625 c 2
 1000 -84 l 2
EndSplineSet
Colour: ff00ff
EndChar

StartChar: uni04D0
Encoding: 1232 1232 106
Width: 1100
VWidth: 999
Flags: HW
HStem: 107 16<292 326 359 377 649 660 748 761> 275 40<432 608> 588 15<473 596> 632 23<489 557>
VStem: 429 52<662 711> 563 52<661 711>
LayerCount: 3
Fore
SplineSet
249 718 m 2
 189 718 156 685 156 625 c 2
 156 -53 l 2
 156 -113 189 -136 249 -136 c 2
 821 -136 l 2
 881 -136 904 -113 904 -53 c 2
 904 625 l 2
 904 685 881 718 821 718 c 2
 437.3 718 l 1
 422.9 713.3 406.4 711 390 711 c 0
 372.5 711 355.7 713.3 341.3 718 c 1
 249 718 l 2
1000 -84 m 2
 1000 -174 971 -212 881 -212 c 2
 249 -212 l 2
 159 -212 120 -174 120 -84 c 2
 120 625 l 2
 120 708 168 754 249 754 c 2
 299.1 754 l 1
 297.7 758.3 297 763 297 768 c 0
 297 785 306 792 326 792 c 0
 342 792 350 780 350 768 c 0
 350 767 349 763 349 762 c 0
 349 759.2 349.6 756.5 350.7 754 c 1
 430.5 754 l 1
 431.5 756.5 432 759.1 432 762 c 2
 431 768 l 1
 431 780 438 792 455 792 c 0
 475 792 484 784 484 769 c 0
 484 763.6 483.1 758.6 481.4 754 c 1
 851 754 l 2
 941 754 1000 715 1000 625 c 2
 1000 -84 l 2
522.5 414.7 m 1
 450.9 248 l 1
 474.7 247.7 507.2 246 529 246 c 0
 546.3 246 570 246.5 591.5 247.1 c 1
 572.9 295.1 550.1 351 522.5 414.7 c 1
433.2 205.1 m 1
 407.7 142.2 385.7 83.3 374 39 c 1
 365 41 348 41 340 41 c 0
 332 41 307 41 298 39 c 1
 374 204 447 368 519 534 c 1
 572 534 l 1
 641 370 740 114 777 39 c 1
 764 41 729 41 716 41 c 0
 704 41 676 41 663 39 c 1
 658.7 54.9 642.5 111.1 607.2 205.6 c 1
 582.6 206.3 556.6 207 533 207 c 0
 506 207 462.3 206.1 433.2 205.1 c 1
EndSplineSet
LCarets2: 1 84 
Colour: ff00ff
EndChar

StartChar: uni04D1
Encoding: 1233 1233 107
Width: 1100
VWidth: 999
Flags: HW
HStem: 72 45<443 534 619 691> 369 40<472 559> 447 23<472 528>
VStem: 374 89<125 199> 409 55<475 534> 536 55<475 535> 576 88<147 244 281 350>
DStem2: 506 265 516 228 0.972082 0.234641<-44.0071 62.8753>
LayerCount: 3
Fore
SplineSet
470 573 m 0
 470 532 426 507 378 507 c 0
 329 507 288 532 288 572 c 0
 288 586 300 597 317 597 c 0
 334 597 343 586 343 574 c 0
 343 572 343 571 342 568 c 0
 341 566 341 564 341 562 c 0
 341 546 357 530 379 530 c 0
 401 530 417 545 417 562 c 0
 417 564 417 566 416 568 c 0
 415 570 415 572 415 574 c 0
 415 586 428 597 441 597 c 0
 459 597 470 587 470 573 c 0
576 208 m 1
 516 192 l 2
 474 180.8 464 155 464 124 c 0
 464 104 476 81 499 81 c 0
 520 81 544 98 563 113 c 0
 569 118 576 123 576 133 c 2
 576 208 l 1
656 107 m 0
 656 92 665 84 674 84 c 0
 684 84 694 95 701 100 c 1
 703 98 l 1
 711 94 715 86 719 78 c 1
 695 48 664 36 635 36 c 0
 602 36 581 56 575 80 c 1
 574 80 l 1
 536 46 499 36 470 36 c 0
 417 36 374 62 374 117 c 0
 374 168 434.1 211.6 506 229 c 2
 572 245 l 2
 574 245 576 248 576 254 c 0
 576 311 557 332 517 332 c 0
 483 332 452 307 432 273 c 1
 415 274 l 1
 395 323 l 1
 398 326 l 1
 416 342 470 373 524 373 c 0
 591 373 659 348 659 251 c 0
 659 243 656 129 656 107 c 0
249 718 m 2
 189 718 156 685 156 625 c 2
 156 -53 l 2
 156 -113 189 -136 249 -136 c 2
 821 -136 l 2
 881 -136 904 -113 904 -53 c 2
 904 625 l 2
 904 685 881 718 821 718 c 2
 249 718 l 2
1000 -84 m 2
 1000 -174 971 -212 881 -212 c 2
 249 -212 l 2
 159 -212 120 -174 120 -84 c 2
 120 625 l 2
 120 708 168 754 249 754 c 2
 851 754 l 2
 941 754 1000 715 1000 625 c 2
 1000 -84 l 2
EndSplineSet
LCarets2: 1 68 
Colour: ff00ff
EndChar

StartChar: uni04D2
Encoding: 1234 1234 108
Width: 1100
VWidth: 999
Flags: HW
HStem: 107 16<292 326 359 377 649 660 748 761> 275 40<432 608> 588 15<473 596> 644 69<432 490 552 610>
VStem: 427 69<649 707> 547 69<649 707>
LayerCount: 3
Fore
SplineSet
534.8 640 m 0
 534.8 665.3 554.6 685 578.8 685 c 0
 603 685 623.8 665.3 623.8 640 c 0
 623.8 615.8 603 596 578.8 596 c 0
 554.6 596 534.8 615.8 534.8 640 c 0
385.2 640 m 0
 385.2 665.3 406 685 430.2 685 c 0
 454.4 685 474.2 665.3 474.2 640 c 0
 474.2 615.8 454.4 596 430.2 596 c 0
 406 596 385.2 615.8 385.2 640 c 0
249 718 m 2
 189 718 156 685 156 625 c 2
 156 -53 l 2
 156 -113 189 -136 249 -136 c 2
 821 -136 l 2
 881 -136 904 -113 904 -53 c 2
 904 625 l 2
 904 685 881 718 821 718 c 2
 249 718 l 2
1000 -84 m 2
 1000 -174 971 -212 881 -212 c 2
 249 -212 l 2
 159 -212 120 -174 120 -84 c 2
 120 625 l 2
 120 708 168 754 249 754 c 2
 851 754 l 2
 941 754 1000 715 1000 625 c 2
 1000 -84 l 2
522.5 414.7 m 1
 450.9 248 l 1
 474.7 247.7 507.2 246 529 246 c 0
 546.3 246 570 246.5 591.5 247.1 c 1
 572.9 295.1 550.1 351 522.5 414.7 c 1
433.2 205.1 m 1
 407.7 142.2 385.7 83.3 374 39 c 1
 365 41 348 41 340 41 c 0
 332 41 307 41 298 39 c 1
 374 204 447 368 519 534 c 1
 572 534 l 1
 641 370 740 114 777 39 c 1
 764 41 729 41 716 41 c 0
 704 41 676 41 663 39 c 1
 658.7 54.9 642.5 111.1 607.2 205.6 c 1
 582.6 206.3 556.6 207 533 207 c 0
 506 207 462.3 206.1 433.2 205.1 c 1
EndSplineSet
LCarets2: 1 84 
Colour: ff00ff
EndChar

StartChar: uni04D3
Encoding: 1235 1235 109
Width: 1100
VWidth: 999
Flags: HW
HStem: 75 45<443 534 619 691> 371 40<472 559> 478 69<414 472 534 592>
VStem: 374 89<127 201> 408 69<483 541> 528 69<483 541> 576 88<149 247 283 353>
DStem2: 506 268 516 231 0.972082 0.234641<-44.0071 62.8753>
LayerCount: 3
Fore
SplineSet
547.8 501 m 0
 547.8 526.3 567.6 546 591.8 546 c 0
 616 546 636.8 526.3 636.8 501 c 0
 636.8 476.8 616 457 591.8 457 c 0
 567.6 457 547.8 476.8 547.8 501 c 0
398.2 501 m 0
 398.2 526.3 419 546 443.2 546 c 0
 467.4 546 487.2 526.3 487.2 501 c 0
 487.2 476.8 467.4 457 443.2 457 c 0
 419 457 398.2 476.8 398.2 501 c 0
576 208 m 1
 516 192 l 2
 474 180.8 464 155 464 124 c 0
 464 104 476 81 499 81 c 0
 520 81 544 98 563 113 c 0
 569 118 576 123 576 133 c 2
 576 208 l 1
656 107 m 0
 656 92 665 84 674 84 c 0
 684 84 694 95 701 100 c 1
 703 98 l 1
 711 94 715 86 719 78 c 1
 695 48 664 36 635 36 c 0
 602 36 581 56 575 80 c 1
 574 80 l 1
 536 46 499 36 470 36 c 0
 417 36 374 62 374 117 c 0
 374 168 434.1 211.6 506 229 c 2
 572 245 l 2
 574 245 576 248 576 254 c 0
 576 311 557 332 517 332 c 0
 483 332 452 307 432 273 c 1
 415 274 l 1
 395 323 l 1
 398 326 l 1
 416 342 470 373 524 373 c 0
 591 373 659 348 659 251 c 0
 659 243 656 129 656 107 c 0
249 718 m 2
 189 718 156 685 156 625 c 2
 156 -53 l 2
 156 -113 189 -136 249 -136 c 2
 821 -136 l 2
 881 -136 904 -113 904 -53 c 2
 904 625 l 2
 904 685 881 718 821 718 c 2
 249 718 l 2
1000 -84 m 2
 1000 -174 971 -212 881 -212 c 2
 249 -212 l 2
 159 -212 120 -174 120 -84 c 2
 120 625 l 2
 120 708 168 754 249 754 c 2
 851 754 l 2
 941 754 1000 715 1000 625 c 2
 1000 -84 l 2
EndSplineSet
LCarets2: 1 68 
Colour: ff00ff
EndChar

StartChar: uni04D4
Encoding: 1236 1236 110
Width: 802
VWidth: 999
Flags: HW
HStem: 79 22<100 123 222 247 353 377> 81 29<482 652> 280 29<300 418> 327 26<480 587> 534 30<484 630> 544 21<318 346>
VStem: 418 62<111 280 309 327 353 529> 600 25<266 315 386 414>
DStem2: 174 144 208 132 0.46188 0.886943<-19.2605 171.716 204.587 435.837>
LayerCount: 3
Fore
SplineSet
262.7 289.4 m 1
 224.4 209.4 190.9 132.4 170 78 c 1
 161 81 144 81 136 81 c 0
 128 81 119 81 110 78 c 1
 190 231 262 388 371 565 c 1
 371.2 564.7 l 1
 372 567 l 1
 372 567 385 564 411 564 c 0
 433 564 570 564 570 564 c 2
 586 564 604 565 616 567 c 1
 617 564 l 1
 616 554 616 547 616 541 c 0
 616 534 616 528 617 522 c 1
 616 519 l 1
 616 519 558 526 478 526 c 0
 410 526 408 517 419 469 c 1
 418.8 469 l 1
 428.4 422.6 438.9 375.3 449.4 330 c 1
 534 330.2 575.1 334.1 618 338 c 1
 620 336 l 1
 618 329 618 321 618 315 c 0
 618 308 618 300 620 294 c 1
 618 291 l 1
 571.8 296.3 497.8 298.5 456.7 298.9 c 1
 473 230.3 488.9 168 501.4 122.2 c 1
 576.3 125.2 660 130 660 130 c 2
 662 127 l 1
 661 121 660 110 660 102 c 0
 660 95 661 91 662 81 c 1
 660 78 l 1
 648 80 631 81 616 81 c 2
 513 81 l 1
 512 81 l 1
 472 81 l 2
 459 81 447 81 434 78 c 1
 434 105.3 423.7 168.7 400.8 290.3 c 1
 384.2 290.7 367.6 291 352 291 c 0
 328.1 291 291.1 290.2 262.7 289.4 c 1
394.4 324.1 m 1
 364 481 l 1
 362 481 l 1
 334.7 433 306.5 378.9 279.9 324.9 c 1
 302.2 324.6 329.1 324 348 324 c 0
 361.1 324 377.9 324.1 394.4 324.1 c 1
EndSplineSet
Colour: ff00ff
EndChar

StartChar: uni04D5
Encoding: 1237 1237 111
Width: 715
VWidth: 999
Flags: HW
HStem: 46 38<201 291 429 522> 217 30<256 322 381 516> 349 34<209 298 420 500>
VStem: 129 62<94 173> 322 58<138 215> 521 63<254 328>
LayerCount: 3
Fore
SplineSet
213.4 131.4 m 0
 218.2 145.2 221.4 181.7 221.9 207.3 c 1
 146.5 199.7 95.5 176.5 95.5 133 c 0
 95.5 101.9 112.9 91 146.4 91 c 0
 173.1 91 204 105.4 213.4 131.4 c 0
373 342 m 0
 332.3 342 303.4 310.6 295.9 254.4 c 1
 397.5 259.4 421 246 421 283 c 0
 421 305.5 402.8 342 373 342 c 0
154 342 m 0
 123.5 342 90.6 313.3 68.5 278.5 c 2
 66 274.5 l 1
 46.1 276.6 l 1
 31.1 334.3 l 1
 35.6 340.6 l 1
 36.4 341.2 l 2
 56.3 357.5 100 390 161.5 390 c 0
 182.4 390 237.8 387.4 268.6 342.3 c 1
 294.2 373 332.5 390 374 390 c 0
 463.9 390 498 314.9 498 285 c 0
 498 261.4 493.8 240.6 476.6 225.7 c 2
 476 225.2 l 1
 475.2 224.8 l 2
 447.1 210.2 398 216.4 294.1 210.7 c 1
 295.9 138.8 329.8 94 380 94 c 0
 414.6 94 441.9 112.1 466.6 142.4 c 2
 472.4 149.5 l 1
 495.2 117.6 l 1
 493.2 113.8 l 2
 470.9 70.3 421.9 39 370 39 c 0
 305 39 278.1 66.9 261.2 87.8 c 1
 227 57.2 188.6 39 144.2 39 c 0
 31.8 39 15 93 15 129 c 0
 15 196.8 88.4 240.7 221.9 250.8 c 1
 220.4 312.7 207.4 342 154 342 c 0
-11 718 m 2
 -71 718 -104 685 -104 625 c 2
 -104 -53 l 2
 -104 -113 -71 -136 -11 -136 c 2
 561 -136 l 2
 621 -136 644 -113 644 -53 c 2
 644 625 l 2
 644 685 621 718 561 718 c 2
 -11 718 l 2
740 -84 m 2
 740 -174 711 -212 621 -212 c 2
 -11 -212 l 2
 -101 -212 -140 -174 -140 -84 c 2
 -140 625 l 2
 -140 708 -92 754 -11 754 c 2
 591 754 l 2
 681 754 740 715 740 625 c 2
 740 -84 l 2
EndSplineSet
Colour: ff00ff
EndChar

StartChar: uni04D6
Encoding: 1238 1238 112
Width: 1100
VWidth: 999
Flags: HW
HStem: 109 47<457 630> 346 38<453 616> 540 16<459 665> 549 44<457 625> 632 23<457 525>
VStem: 357 96<157 346 384 548> 397 52<661 711> 531 52<661 711>
LayerCount: 3
Fore
SplineSet
453 191 m 2
 453 178 454 106 459 88 c 1
 560 88 671 97 671 97 c 1
 672 94 l 1
 672 88 671 75 671 68 c 0
 671 60 672 51 672 41 c 1
 671 38 l 1
 659 40 642 41 626 41 c 2
 405 41 l 2
 379 41 350 38 350 38 c 1
 350 41 l 1
 356 81 357 134 357 191 c 2
 357 374 l 2
 357 431 356 482 350 524 c 1
 351 527 l 1
 351 527 380 524 405 524 c 0
 428 524 618 524 618 524 c 2
 634 524 651 525 663 527 c 1
 665 524 l 1
 664 514 663 504 663 498 c 0
 663 491 664 481 665 475 c 1
 663 472 l 1
 663 472 560 481 459 481 c 1
 454 463 453 387 453 374 c 2
 453 316 l 1
 542 316 576 320 620 323 c 1
 623 321 l 1
 621 314 620 304 620 297 c 0
 620 290 621 279 623 272 c 1
 620 270 l 1
 569 275 489 278 453 278 c 1
 453 191 l 2
249 718 m 2
 189 718 156 685 156 625 c 2
 156 -53 l 2
 156 -113 189 -136 249 -136 c 2
 821 -136 l 2
 881 -136 904 -113 904 -53 c 2
 904 625 l 2
 904 685 881 718 821 718 c 2
 414.3 718 l 1
 399.9 713.3 383.4 711 367 711 c 0
 349.5 711 332.7 713.3 318.3 718 c 1
 249 718 l 2
1000 -84 m 2
 1000 -174 971 -212 881 -212 c 2
 249 -212 l 2
 159 -212 120 -174 120 -84 c 2
 120 625 l 2
 120 708 168 754 249 754 c 2
 276.1 754 l 1
 274.7 758.3 274 763 274 768 c 0
 274 785 283 792 303 792 c 0
 319 792 327 780 327 768 c 0
 327 767 326 763 326 762 c 0
 326 759.2 326.6 756.5 327.7 754 c 1
 407.5 754 l 1
 408.5 756.5 409 759.1 409 762 c 2
 408 768 l 1
 408 780 415 792 432 792 c 0
 452 792 461 784 461 769 c 0
 461 763.6 460.1 758.6 458.4 754 c 1
 851 754 l 2
 941 754 1000 715 1000 625 c 2
 1000 -84 l 2
EndSplineSet
LCarets2: 1 75 
Colour: ff00ff
EndChar

StartChar: uni04D7
Encoding: 1239 1239 113
Width: 1100
VWidth: 999
Flags: HW
HStem: 72 51<506 621> 262 33<463 588> 372 37<495 574> 447 23<481 537>
VStem: 366 94<175 262 295 304> 418 55<475 534> 545 55<475 535> 588 95<271 337>
LayerCount: 3
Fore
SplineSet
486 573 m 0
 486 532 442 507 394 507 c 0
 345 507 304 532 304 572 c 0
 304 586 316 597 333 597 c 0
 350 597 359 586 359 574 c 0
 359 572 359 571 358 568 c 0
 357 566 357 564 357 562 c 0
 357 546 373 530 395 530 c 0
 417 530 433 545 433 562 c 0
 433 564 433 566 432 568 c 0
 431 570 431 572 431 574 c 0
 431 586 444 597 457 597 c 0
 475 597 486 587 486 573 c 0
463 259 m 1
 570 259 l 2
 578 259 581 263 581 269 c 0
 581 323 562 336 534 336 c 0
 517 336 474 326 463 259 c 1
666 129 m 1
 677 123 682 114 682 103 c 1
 653 64 597 36 543 36 c 0
 431 36 366 107 366 193 c 0
 366 307 463 373 534 373 c 0
 634 373 676 302 676 239 c 0
 676 230 671 226 663 226 c 2
 461 226 l 1
 461 120 515 87 558 87 c 0
 599 87 640 101 666 129 c 1
249 718 m 2
 189 718 156 685 156 625 c 2
 156 -53 l 2
 156 -113 189 -136 249 -136 c 2
 821 -136 l 2
 881 -136 904 -113 904 -53 c 2
 904 625 l 2
 904 685 881 718 821 718 c 2
 249 718 l 2
1000 -84 m 2
 1000 -174 971 -212 881 -212 c 2
 249 -212 l 2
 159 -212 120 -174 120 -84 c 2
 120 625 l 2
 120 708 168 754 249 754 c 2
 851 754 l 2
 941 754 1000 715 1000 625 c 2
 1000 -84 l 2
EndSplineSet
LCarets2: 1 61 
Colour: ff00ff
EndChar

StartChar: uni04D8
Encoding: 1240 1240 114
Width: 644
VWidth: 999
Flags: HW
HStem: 72 26<266 377> 243 33<173 465> 549 26<238 358>
VStem: 472 68<247 413>
LayerCount: 3
Fore
SplineSet
154 473 m 1
 137 491 l 1
 196 546 232 574 314 574 c 0
 475 574 540 444 540 325 c 0
 540 179 463 72 319 72 c 0
 175 72 121 169 113 276 c 1
 472 276 l 1
 472 284 472 293 472 304 c 0
 472 443 403 549 302 549 c 0
 232 549 194 512 154 473 c 1
173 243 m 1
 196 145 250 97 324 97 c 0
 403 97 451 168 465 243 c 1
 173 243 l 1
EndSplineSet
Colour: ff00ff
EndChar

StartChar: uni04DA
Encoding: 1242 1242 116
Width: 644
VWidth: 999
Flags: HW
HStem: 98 26<266 377> 269 33<173 465> 575 26<238 358> 637 68<226 284 368 426>
VStem: 221 68<642 699> 363 68<642 700> 472 68<274 440>
LayerCount: 3
Fore
SplineSet
349 683 m 0
 371.9 683 391 664.2 391 642 c 0
 391 619 372 600 349 600 c 0
 326.7 600 309 619.4 309 642 c 0
 309 663.8 326.7 683 349 683 c 0
208 682 m 0
 232 682 248 662.6 248 641 c 0
 248 619.4 232 600 208 600 c 0
 185.2 600 167 618.2 167 641 c 0
 167 663.8 185.2 682 208 682 c 0
154 473 m 1
 137 491 l 1
 196 546 232 574 314 574 c 0
 475 574 540 444 540 325 c 0
 540 179 463 72 319 72 c 0
 175 72 121 169 113 276 c 1
 472 276 l 1
 472 284 472 293 472 304 c 0
 472 443 403 549 302 549 c 0
 232 549 194 512 154 473 c 1
173 243 m 1
 196 145 250 97 324 97 c 0
 403 97 451 168 465 243 c 1
 173 243 l 1
EndSplineSet
LCarets2: 1 82 
Colour: ff00ff
EndChar

StartChar: uni04DB
Encoding: 1243 1243 117
Width: 1100
VWidth: 999
Flags: HW
HStem: 60 37<400 479> 174 33<385 510> 346 51<353 468> 464 69<382 440 502 560>
VStem: 290 95<133 199> 377 69<470 527> 497 69<470 527> 513 94<165 174 208 294>
LayerCount: 3
Fore
SplineSet
537.8 501 m 0
 537.8 526.3 557.6 546 581.8 546 c 0
 606 546 626.8 526.3 626.8 501 c 0
 626.8 476.8 606 457 581.8 457 c 0
 557.6 457 537.8 476.8 537.8 501 c 0
388.2 501 m 0
 388.2 526.3 409 546 433.2 546 c 0
 457.4 546 477.2 526.3 477.2 501 c 0
 477.2 476.8 457.4 457 433.2 457 c 0
 409 457 388.2 476.8 388.2 501 c 0
EndSplineSet
LCarets2: 1 32 
Colour: ff00ff
EndChar

StartChar: uni04E0
Encoding: 1248 1248 118
Width: 608
VWidth: 999
Flags: HW
HStem: -101 28<237 344> 511 29<182 201 201 410>
VStem: 432 67<26 166>
DStem2: 263 246 351 273 0.48636 0.873758<66.6031 303.444>
LayerCount: 3
Fore
SplineSet
201 541 m 2
 467 541 l 2
 483 541 488 536 488 530 c 0
 488 523 484 511 477 500 c 2
 351 273 l 1
 452 253 499 178 499 95 c 0
 499 -9 400 -101 280 -101 c 0
 220 -101 107 -75 107 -26 c 0
 107 -8 115 12 140 12 c 0
 160 12 182 2 191 -14 c 1
 215 -51 253 -74 294 -74 c 0
 359 -74 432 17 432 88 c 0
 432 208 346 248 294 248 c 0
 282 248 274 248 263 246 c 1
 410 511 l 1
 224 511 l 1
 168 510 146 448 143 415 c 1
 124 416 l 1
 140 557 l 1
 157 554 183 541 201 541 c 2
EndSplineSet
Colour: ff00ff
EndChar

StartChar: uni04E1
Encoding: 1249 1249 119
Width: 416
VWidth: 999
Flags: HW
HStem: -150 26<166 237> 103 26<216 255> 322 26<134 275>
VStem: 84 20<253 279> 288 61<-64 72>
DStem2: 149 106 216 129 0.505072 0.863077<52.8301 249.493>
LayerCount: 3
Fore
SplineSet
149 106 m 1
 275 322 l 1
 167 322 l 2
 144 322 119 306 104 252 c 1
 84 254 l 1
 90 291 95 324 95 357 c 1
 114 357 l 1
 116 353 122 348 134 348 c 2
 286 348 l 2
 308 348 335 352 336 352 c 0
 341 352 346 351 346 348 c 0
 346 345 341 336 329 316 c 2
 216 129 l 1
 288 129 349 89 349 9 c 0
 349 -80 285 -150 193 -150 c 0
 129 -150 86 -105 86 -81 c 0
 86 -67 93 -54 110 -54 c 0
 127 -54 137 -61 143 -79 c 0
 149 -96 169 -124 199 -124 c 0
 236 -124 288 -84 288 -3 c 0
 288 73 265 103 206 103 c 0
 198 103 176 98 162 95 c 1
 149 106 l 1
EndSplineSet
Colour: ff00ff
EndChar

StartChar: uni04E6
Encoding: 1254 1254 120
Width: 1100
VWidth: 999
Flags: HW
HStem: 100 40<496 626> 561 40<479 613> 637 68<429 487 571 628>
VStem: 296 106<249 436> 424 68<642 700> 566 68<643 700> 697 106<257 450>
LayerCount: 3
Fore
SplineSet
538 683 m 0
 560.9 683 580 664.2 580 642 c 0
 580 619 561 600 538 600 c 0
 515.7 600 498 619.4 498 642 c 0
 498 663.8 515.7 683 538 683 c 0
397 682 m 0
 421 682 437 662.6 437 641 c 0
 437 619.4 421 600 397 600 c 0
 374.2 600 356 618.2 356 641 c 0
 356 663.8 374.2 682 397 682 c 0
528 495 m 0
 456 495 392 444 392 286 c 0
 392 142 463 73 553 73 c 0
 639 73 687 139 687 274 c 0
 687 430 634 495 528 495 c 0
793 288 m 0
 793 138 699 34 538 34 c 0
 390 34 286 132 286 274 c 0
 286 420 385 534 538 534 c 0
 697 534 793 436 793 288 c 0
249 718 m 2
 189 718 156 685 156 625 c 2
 156 -53 l 2
 156 -113 189 -136 249 -136 c 2
 821 -136 l 2
 881 -136 904 -113 904 -53 c 2
 904 625 l 2
 904 685 881 718 821 718 c 2
 249 718 l 2
1000 -84 m 2
 1000 -174 971 -212 881 -212 c 2
 249 -212 l 2
 159 -212 120 -174 120 -84 c 2
 120 625 l 2
 120 708 168 754 249 754 c 2
 851 754 l 2
 941 754 1000 715 1000 625 c 2
 1000 -84 l 2
EndSplineSet
LCarets2: 1 95 
Colour: ff00ff
EndChar

StartChar: uni04E7
Encoding: 1255 1255 121
Width: 1100
VWidth: 999
Flags: HW
HStem: 75 38<499 588> 374 38<487 583> 478 69<438 495 558 615>
VStem: 363 96<166 315> 432 69<484 542> 552 69<484 542> 616 96<172 320>
LayerCount: 3
Fore
SplineSet
363 197 m 0
 363 300 428 373 536 373 c 0
 662 373 705 282 705 204 c 0
 705 124 649 36 534 36 c 0
 422 36 363 115 363 197 c 0
530 335 m 0
 466 335 459 280 459 215 c 0
 459 157 466 74 544 74 c 0
 578 74 609 98 609 184 c 0
 609 288 594 335 530 335 c 0
249 718 m 2
 189 718 156 685 156 625 c 2
 156 -53 l 2
 156 -113 189 -136 249 -136 c 2
 821 -136 l 2
 881 -136 904 -113 904 -53 c 2
 904 625 l 2
 904 685 881 718 821 718 c 2
 249 718 l 2
1000 -84 m 2
 1000 -174 971 -212 881 -212 c 2
 249 -212 l 2
 159 -212 120 -174 120 -84 c 2
 120 625 l 2
 120 708 168 754 249 754 c 2
 851 754 l 2
 941 754 1000 715 1000 625 c 2
 1000 -84 l 2
558.8 502 m 0
 558.8 527.3 578.6 547 602.8 547 c 0
 627 547 647.8 527.3 647.8 502 c 0
 647.8 477.8 627 458 602.8 458 c 0
 578.6 458 558.8 477.8 558.8 502 c 0
409.2 502 m 0
 409.2 527.3 430 547 454.2 547 c 0
 478.4 547 498.2 527.3 498.2 502 c 0
 498.2 477.8 478.4 458 454.2 458 c 0
 430 458 409.2 477.8 409.2 502 c 0
EndSplineSet
LCarets2: 1 66 
Colour: ff00ff
EndChar

StartChar: uni04E8
Encoding: 1256 1256 122
Width: 1100
VWidth: 999
Flags: HW
HStem: 74 40<496 626> 280 43<555 666> 315 44<398 520> 535 40<479 613>
VStem: 296 106<222 410> 340 11<281 284> 697 106<230 424>
LayerCount: 3
Fore
SplineSet
793 288 m 0
 793 138 699 34 538 34 c 0
 390 34 286 132 286 274 c 0
 286 420 385 534 538 534 c 0
 697 534 793 436 793 288 c 0
249 718 m 2
 189 718 156 685 156 625 c 2
 156 -53 l 2
 156 -113 189 -136 249 -136 c 2
 821 -136 l 2
 881 -136 904 -113 904 -53 c 2
 904 625 l 2
 904 685 881 718 821 718 c 2
 249 718 l 2
1000 -84 m 2
 1000 -174 971 -212 881 -212 c 2
 249 -212 l 2
 159 -212 120 -174 120 -84 c 2
 120 625 l 2
 120 708 168 754 249 754 c 2
 851 754 l 2
 941 754 1000 715 1000 625 c 2
 1000 -84 l 2
685.9 311.5 m 1
 656.3 287.8 622.5 280 596 280 c 0
 527 280 509 315 453 315 c 0
 437.7 315 414.1 313.3 392.4 306.6 c 1
 392.1 300 392 293.1 392 286 c 0
 392 142 463 73 553 73 c 0
 639 73 687 139 687 274 c 0
 687 287.1 686.7 299.6 685.9 311.5 c 1
682.6 344.1 m 1
 668 449.8 616.5 495 528 495 c 0
 465.4 495 409 456.5 395.2 342.8 c 1
 420 353.2 447.3 358 466 358 c 0
 540 358 562 323 610 323 c 0
 630.4 323 659.2 330.4 682.6 344.1 c 1
EndSplineSet
Colour: ff00ff
EndChar

StartChar: uni04E9
Encoding: 1257 1257 123
Width: 1100
VWidth: 999
Flags: HMW
HStem: 45 27<488 582> 188 37<489 598> 209 32<424 514> 360 25<473 564>
VStem: 369 59<147 294> 619 59<138 292>
AnchorPoint: "unten_punkt" 250 -27 basechar 0
AnchorPoint: "top_punkt" 250 466 basechar 0
AnchorPoint: "top_akzent" 243 537 basechar 0
LayerCount: 3
Fore
SplineSet
363 197 m 0
 363 300 428 373 536 373 c 0
 662 373 705 282 705 204 c 0
 705 124 649 36 534 36 c 0
 422 36 363 115 363 197 c 0
249 718 m 2
 189 718 156 685 156 625 c 2
 156 -53 l 2
 156 -113 189 -136 249 -136 c 2
 821 -136 l 2
 881 -136 904 -113 904 -53 c 2
 904 625 l 2
 904 685 881 718 821 718 c 2
 249 718 l 2
1000 -84 m 2
 1000 -174 971 -212 881 -212 c 2
 249 -212 l 2
 159 -212 120 -174 120 -84 c 2
 120 625 l 2
 120 708 168 754 249 754 c 2
 851 754 l 2
 941 754 1000 715 1000 625 c 2
 1000 -84 l 2
607.6 231.7 m 1
 602.6 302.5 583.2 335 530 335 c 0
 472.8 335 461.1 291.1 459.3 235.4 c 1
 471.8 238.2 485 240 496 240 c 0
 530 240 546 225 574 225 c 0
 585.9 225 597.8 227.9 607.6 231.7 c 1
608.6 210.1 m 1
 591.4 200 565.2 188 542 188 c 0
 509.4 188 484.6 208.5 459 209 c 1
 459.5 151.5 468.7 74 544 74 c 0
 578 74 609 98 609 184 c 0
 609 193.1 608.9 201.8 608.6 210.1 c 1
EndSplineSet
Colour: ff80cc
EndChar

StartChar: uni04EA
Encoding: 1258 1258 124
Width: 1100
VWidth: 999
Flags: HW
HStem: 100 40<496 626> 307 43<555 666> 342 44<398 520> 562 40<479 613> 639 68<426 484 569 626>
VStem: 296 106<249 437> 340 11<308 311> 422 68<644 701> 563 68<644 702> 697 106<257 450>
LayerCount: 3
Fore
SplineSet
536 684 m 0
 558.9 684 578 665.2 578 643 c 0
 578 620 559 601 536 601 c 0
 513.7 601 496 620.4 496 643 c 0
 496 664.8 513.7 684 536 684 c 0
395 683 m 0
 419 683 435 663.6 435 642 c 0
 435 620.4 419 601 395 601 c 0
 372.2 601 354 619.2 354 642 c 0
 354 664.8 372.2 683 395 683 c 0
793 288 m 0
 793 138 699 34 538 34 c 0
 390 34 286 132 286 274 c 0
 286 420 385 534 538 534 c 0
 697 534 793 436 793 288 c 0
249 718 m 2
 189 718 156 685 156 625 c 2
 156 -53 l 2
 156 -113 189 -136 249 -136 c 2
 821 -136 l 2
 881 -136 904 -113 904 -53 c 2
 904 625 l 2
 904 685 881 718 821 718 c 2
 249 718 l 2
1000 -84 m 2
 1000 -174 971 -212 881 -212 c 2
 249 -212 l 2
 159 -212 120 -174 120 -84 c 2
 120 625 l 2
 120 708 168 754 249 754 c 2
 851 754 l 2
 941 754 1000 715 1000 625 c 2
 1000 -84 l 2
685.9 311.5 m 1
 656.3 287.8 622.5 280 596 280 c 0
 527 280 509 315 453 315 c 0
 437.7 315 414.1 313.3 392.4 306.6 c 1
 392.1 300 392 293.1 392 286 c 0
 392 142 463 73 553 73 c 0
 639 73 687 139 687 274 c 0
 687 287.1 686.7 299.6 685.9 311.5 c 1
682.6 344.1 m 1
 668 449.8 616.5 495 528 495 c 0
 465.4 495 409 456.5 395.2 342.8 c 1
 420 353.2 447.3 358 466 358 c 0
 540 358 562 323 610 323 c 0
 630.4 323 659.2 330.4 682.6 344.1 c 1
EndSplineSet
LCarets2: 1 95 
Colour: ff00ff
EndChar

StartChar: uni04EB
Encoding: 1259 1259 125
Width: 1100
VWidth: 999
Flags: HW
HStem: 73 27<488 582> 216 37<489 598> 238 32<424 514> 389 25<473 564> 478 69<439 497 559 617>
VStem: 369 59<175 322> 434 69<483 541> 554 69<483 541> 619 59<167 321>
LayerCount: 3
Fore
SplineSet
363 197 m 0
 363 300 428 373 536 373 c 0
 662 373 705 282 705 204 c 0
 705 124 649 36 534 36 c 0
 422 36 363 115 363 197 c 0
249 718 m 2
 189 718 156 685 156 625 c 2
 156 -53 l 2
 156 -113 189 -136 249 -136 c 2
 821 -136 l 2
 881 -136 904 -113 904 -53 c 2
 904 625 l 2
 904 685 881 718 821 718 c 2
 249 718 l 2
1000 -84 m 2
 1000 -174 971 -212 881 -212 c 2
 249 -212 l 2
 159 -212 120 -174 120 -84 c 2
 120 625 l 2
 120 708 168 754 249 754 c 2
 851 754 l 2
 941 754 1000 715 1000 625 c 2
 1000 -84 l 2
559.8 501 m 0
 559.8 526.3 579.6 546 603.8 546 c 0
 628 546 648.8 526.3 648.8 501 c 0
 648.8 476.8 628 457 603.8 457 c 0
 579.6 457 559.8 476.8 559.8 501 c 0
410.2 501 m 0
 410.2 526.3 431 546 455.2 546 c 0
 479.4 546 499.2 526.3 499.2 501 c 0
 499.2 476.8 479.4 457 455.2 457 c 0
 431 457 410.2 476.8 410.2 501 c 0
607.6 231.7 m 1
 602.6 302.5 583.2 335 530 335 c 0
 472.8 335 461.1 291.1 459.3 235.4 c 1
 471.8 238.2 485 240 496 240 c 0
 530 240 546 225 574 225 c 0
 585.9 225 597.8 227.9 607.6 231.7 c 1
608.6 210.1 m 1
 591.4 200 565.2 188 542 188 c 0
 509.4 188 484.6 208.5 459 209 c 1
 459.5 151.5 468.7 74 544 74 c 0
 578 74 609 98 609 184 c 0
 609 193.1 608.9 201.8 608.6 210.1 c 1
EndSplineSet
LCarets2: 1 66 
Colour: ff00ff
EndChar

StartChar: uni04EF
Encoding: 1263 1263 126
Width: 1100
VWidth: 999
Flags: HW
HStem: -124 16<409 423 479 497> 362 15<354 363 448 467 611 628 688 697> 457 33<404 613>
VStem: 403 211<457 490>
LayerCount: 3
Fore
SplineSet
356 388 m 1
 366 386 399 386 409 386 c 0
 419 386 450 386 460 388 c 1
 484.3 313.2 515.2 239.2 547.4 161.6 c 1
 578.3 233 607.9 314.9 632 388 c 1
 639 386 668 386 675 386 c 0
 683 386 700 386 707 388 c 1
 683 338 518 -20 490 -113 c 1
 482 -111 461 -110 453 -110 c 0
 446 -110 420 -111 413 -113 c 1
 447 -57 473 -6 497 50 c 1
 494 55 l 1
 466 131 385 323 356 388 c 1
249 718 m 2
 189 718 156 685 156 625 c 2
 156 -53 l 2
 156 -113 189 -136 249 -136 c 2
 821 -136 l 2
 881 -136 904 -113 904 -53 c 2
 904 625 l 2
 904 685 881 718 821 718 c 2
 249 718 l 2
1000 -84 m 2
 1000 -174 971 -212 881 -212 c 2
 249 -212 l 2
 159 -212 120 -174 120 -84 c 2
 120 625 l 2
 120 708 168 754 249 754 c 2
 851 754 l 2
 941 754 1000 715 1000 625 c 2
 1000 -84 l 2
505 533 m 2
 300 533 l 2
 291 533 288 540 288 547 c 0
 288 556 297 571 307 571 c 2
 514 571 l 2
 522 571 525 564 525 558 c 0
 525 548 516 533 505 533 c 2
EndSplineSet
LCarets2: 1 61 
Colour: ff00ff
EndChar

StartChar: uni04F1
Encoding: 1265 1265 127
Width: 1100
VWidth: 999
Flags: HW
HStem: -120 16<416 430 486 504> 366 15<361 370 455 474 618 635 695 704> 453 69<435 493 555 613>
VStem: 429 69<458 516> 549 69<458 516>
LayerCount: 3
Fore
SplineSet
356 388 m 1
 366 386 399 386 409 386 c 0
 419 386 450 386 460 388 c 1
 484.3 313.2 515.2 239.2 547.4 161.6 c 1
 578.3 233 607.9 314.9 632 388 c 1
 639 386 668 386 675 386 c 0
 683 386 700 386 707 388 c 1
 683 338 518 -20 490 -113 c 1
 482 -111 461 -110 453 -110 c 0
 446 -110 420 -111 413 -113 c 1
 447 -57 473 -6 497 50 c 1
 494 55 l 1
 466 131 385 323 356 388 c 1
249 718 m 2
 189 718 156 685 156 625 c 2
 156 -53 l 2
 156 -113 189 -136 249 -136 c 2
 821 -136 l 2
 881 -136 904 -113 904 -53 c 2
 904 625 l 2
 904 685 881 718 821 718 c 2
 249 718 l 2
1000 -84 m 2
 1000 -174 971 -212 881 -212 c 2
 249 -212 l 2
 159 -212 120 -174 120 -84 c 2
 120 625 l 2
 120 708 168 754 249 754 c 2
 851 754 l 2
 941 754 1000 715 1000 625 c 2
 1000 -84 l 2
553.8 501 m 0
 553.8 526.3 573.6 546 597.8 546 c 0
 622 546 642.8 526.3 642.8 501 c 0
 642.8 476.8 622 457 597.8 457 c 0
 573.6 457 553.8 476.8 553.8 501 c 0
404.2 501 m 0
 404.2 526.3 425 546 449.2 546 c 0
 473.4 546 493.2 526.3 493.2 501 c 0
 493.2 476.8 473.4 457 449.2 457 c 0
 425 457 404.2 476.8 404.2 501 c 0
EndSplineSet
LCarets2: 1 68 
Colour: ff00ff
EndChar

StartChar: uni04F3
Encoding: 1267 1267 128
Width: 1100
VWidth: 999
Flags: HW
HStem: -118 16<416 430 486 504> 369 15<361 370 455 474 618 635 695 704>
LayerCount: 3
Fore
SplineSet
356 388 m 1
 366 386 399 386 409 386 c 0
 419 386 450 386 460 388 c 1
 484.3 313.2 515.2 239.2 547.4 161.6 c 1
 578.3 233 607.9 314.9 632 388 c 1
 639 386 668 386 675 386 c 0
 683 386 700 386 707 388 c 1
 683 338 518 -20 490 -113 c 1
 482 -111 461 -110 453 -110 c 0
 446 -110 420 -111 413 -113 c 1
 447 -57 473 -6 497 50 c 1
 494 55 l 1
 466 131 385 323 356 388 c 1
249 718 m 2
 189 718 156 685 156 625 c 2
 156 -53 l 2
 156 -113 189 -136 249 -136 c 2
 821 -136 l 2
 881 -136 904 -113 904 -53 c 2
 904 625 l 2
 904 685 881 718 821 718 c 2
 249 718 l 2
1000 -84 m 2
 1000 -174 971 -212 881 -212 c 2
 249 -212 l 2
 159 -212 120 -174 120 -84 c 2
 120 625 l 2
 120 708 168 754 249 754 c 2
 851 754 l 2
 941 754 1000 715 1000 625 c 2
 1000 -84 l 2
564 618 m 0
 564 609 560 605 554 599 c 2
 481 530 l 2
 477 527 473 524 470 524 c 0
 464 524 458 529 458 535 c 0
 458 539 459 542 461 546 c 2
 512 637 l 2
 514 639 519 650 533 650 c 0
 551 650 564 636 564 618 c 0
467 627 m 0
 467 623 467 619 464 615 c 2
 395 533 l 2
 388 525 382 522 377 522 c 0
 371 522 367 527 367 533 c 0
 367 536 368 540 369 544 c 2
 413 644 l 2
 417 653 428 654 436 654 c 0
 452 654 467 641 467 627 c 0
EndSplineSet
LCarets2: 1 68 
Colour: ff00ff
EndChar

StartChar: uni1E00
Encoding: 7680 7680 129
Width: 1100
VWidth: 999
Flags: HW
HStem: -114 20<480 530> -10 20<480 531> 45 16<292 326 359 377 649 660 748 761> 213 40<432 608> 526 15<473 596>
VStem: 441 24<-81 -22> 546 23<-80 -23>
LayerCount: 3
Fore
SplineSet
467 20 m 0
 448 20 433 4.3 433 -15 c 0
 433 -32.6 448.2 -50 467 -50 c 0
 485.5 -50 500 -32.4 500 -15 c 0
 500 4.4 484.8 20 467 20 c 0
466 54 m 0
 504.5 54 538 24.2 538 -15 c 0
 538 -53.1 505.6 -84 466 -84 c 0
 428.3 -84 395 -54.2 395 -15 c 0
 395 24.2 428.3 54 466 54 c 0
249 718 m 2
 189 718 156 685 156 625 c 2
 156 -53 l 2
 156 -113 189 -136 249 -136 c 2
 821 -136 l 2
 881 -136 904 -113 904 -53 c 2
 904 625 l 2
 904 685 881 718 821 718 c 2
 249 718 l 2
1000 -84 m 2
 1000 -174 971 -212 881 -212 c 2
 249 -212 l 2
 159 -212 120 -174 120 -84 c 2
 120 625 l 2
 120 708 168 754 249 754 c 2
 851 754 l 2
 941 754 1000 715 1000 625 c 2
 1000 -84 l 2
522.5 414.7 m 1
 450.9 248 l 1
 474.7 247.7 507.2 246 529 246 c 0
 546.3 246 570 246.5 591.5 247.1 c 1
 572.9 295.1 550.1 351 522.5 414.7 c 1
433.2 205.1 m 1
 407.7 142.2 385.7 83.3 374 39 c 1
 365 41 348 41 340 41 c 0
 332 41 307 41 298 39 c 1
 374 204 447 368 519 534 c 1
 572 534 l 1
 641 370 740 114 777 39 c 1
 764 41 729 41 716 41 c 0
 704 41 676 41 663 39 c 1
 658.7 54.9 642.5 111.1 607.2 205.6 c 1
 582.6 206.3 556.6 207 533 207 c 0
 506 207 462.3 206.1 433.2 205.1 c 1
EndSplineSet
LCarets2: 1 84 
Colour: ff00ff
EndChar

StartChar: uni1E01
Encoding: 7681 7681 130
Width: 1100
VWidth: 999
Flags: HW
HStem: -139 20<482 532> -35 20<481 533> 16 45<439 530 615 687> 312 40<468 555>
VStem: 371 89<68 142> 443 24<-105 -47> 547 23<-105 -48> 572 88<90 187 224 293>
DStem2: 503 208 512 172 0.972082 0.234641<-44.0071 62.8753>
LayerCount: 3
Fore
SplineSet
489 19 m 0
 470 19 455 3.3 455 -16 c 0
 455 -33.6 470.2 -51 489 -51 c 0
 507.5 -51 522 -33.4 522 -16 c 0
 522 3.4 506.8 19 489 19 c 0
576 208 m 1
 516 192 l 2
 474 180.8 464 155 464 124 c 0
 464 104 476 81 499 81 c 0
 520 81 544 98 563 113 c 0
 569 118 576 123 576 133 c 2
 576 208 l 1
656 107 m 0
 656 92 665 84 674 84 c 0
 684 84 694 95 701 100 c 1
 703 98 l 1
 711 94 715 86 719 78 c 1
 695 48 664 36 635 36 c 0
 602 36 581 56 575 80 c 1
 574 80 l 1
 555.5 63.4 537.2 52.6 520 45.8 c 1
 543.4 34.7 560 11.7 560 -16 c 0
 560 -54.1 527.6 -85 488 -85 c 0
 450.3 -85 417 -55.2 417 -16 c 0
 417 6.4 427.9 25.7 444.3 38.2 c 1
 403.8 45.5 374 71.2 374 117 c 0
 374 168 434.1 211.6 506 229 c 2
 572 245 l 2
 574 245 576 248 576 254 c 0
 576 311 557 332 517 332 c 0
 483 332 452 307 432 273 c 1
 415 274 l 1
 395 323 l 1
 398 326 l 1
 416 342 470 373 524 373 c 0
 591 373 659 348 659 251 c 0
 659 243 656 129 656 107 c 0
249 718 m 2
 189 718 156 685 156 625 c 2
 156 -53 l 2
 156 -113 189 -136 249 -136 c 2
 821 -136 l 2
 881 -136 904 -113 904 -53 c 2
 904 625 l 2
 904 685 881 718 821 718 c 2
 249 718 l 2
1000 -84 m 2
 1000 -174 971 -212 881 -212 c 2
 249 -212 l 2
 159 -212 120 -174 120 -84 c 2
 120 625 l 2
 120 708 168 754 249 754 c 2
 851 754 l 2
 941 754 1000 715 1000 625 c 2
 1000 -84 l 2
EndSplineSet
LCarets2: 1 64 
Colour: ff00ff
EndChar

StartChar: uni1E02
Encoding: 7682 7682 131
Width: 1100
VWidth: 999
Flags: HW
HStem: 109 40<429 596> 353 40<450 570> 558 40<428 568> 638 104<466 541>
VStem: 354 96<155 353 393 553> 452 104<652 727> 589 97<429 536> 624 106<191 311>
LayerCount: 3
Fore
SplineSet
450 453 m 2
 450 322 l 1
 504 322 l 2
 567 322 589 338 589 401 c 0
 589 478 556 487 514 487 c 0
 453 487 450 478 450 453 c 2
450 282 m 1
 450 113 l 2
 450 89 459 78 511 78 c 0
 612 78 624 110 624 164 c 0
 624 232 603 282 516 282 c 2
 450 282 l 1
402 524 m 0
 444 524 483 527 509 527 c 0
 648 527 686 461 686 410 c 0
 686 369 654 329 616 311 c 1
 681 292 730 251 730 179 c 0
 730 114 675 38 525 38 c 0
 459 38 450 41 402 41 c 0
 376 41 348 38 348 38 c 1
 347 41 l 1
 353 81 354 134 354 191 c 2
 354 374 l 2
 354 431 353 482 347 524 c 1
 348 527 l 1
 348 527 377 524 402 524 c 0
249 718 m 2
 189 718 156 685 156 625 c 2
 156 -53 l 2
 156 -113 189 -136 249 -136 c 2
 821 -136 l 2
 881 -136 904 -113 904 -53 c 2
 904 625 l 2
 904 685 881 718 821 718 c 2
 424.3 718 l 1
 416.7 699 398.1 685 376 685 c 0
 353.9 685 335.3 699 327.7 718 c 1
 249 718 l 2
1000 -84 m 2
 1000 -174 971 -212 881 -212 c 2
 249 -212 l 2
 159 -212 120 -174 120 -84 c 2
 120 625 l 2
 120 708 168 754 249 754 c 2
 326.9 754 l 1
 334 774.1 353.1 789 376 789 c 0
 398.9 789 418 774.1 425.1 754 c 1
 851 754 l 2
 941 754 1000 715 1000 625 c 2
 1000 -84 l 2
EndSplineSet
LCarets2: 1 87 
Colour: ff00ff
EndChar

StartChar: uni1E03
Encoding: 7683 7683 132
Width: 1100
VWidth: 999
Flags: HW
HStem: 83 40<486 578> 372 47<499 587> 489 104<498 573> 599 15<459 471>
VStem: 379 88<141 354 378 591> 484 104<503 578> 618 92<195 337>
LayerCount: 3
Fore
SplineSet
370 609 m 0
 370 637 393 661 422 661 c 0
 451 661 474 637 474 609 c 0
 474 589 462.3 571 445.1 562.4 c 1
 454.4 564.6 462.4 566.9 468 569 c 1
 473 569 475 567 475 562 c 0
 469 516 468 476 468 421 c 2
 468 334 l 1
 493 362 525 375 561 375 c 0
 626 375 710 319 710 227 c 0
 710 108 605 38 528 38 c 0
 496 38 474 47 452 66 c 1
 441 56 423 47 416 37 c 1
 409 37 380 38 375 40 c 1
 378 57 379 70 379 99 c 2
 379 407 l 2
 379 464 377 516 372 548 c 1
 373 550 l 1
 386.6 551.4 403.5 553.9 419.7 557 c 1
 391.8 558.2 370 581.7 370 609 c 0
468 113 m 1
 482 94 500 78 524 78 c 0
 595 78 618 128 618 214 c 0
 618 286 592 328 546 328 c 0
 538 328 497 326 468 296 c 1
 468 113 l 1
249 718 m 2
 189 718 156 685 156 625 c 2
 156 -53 l 2
 156 -113 189 -136 249 -136 c 2
 821 -136 l 2
 881 -136 904 -113 904 -53 c 2
 904 625 l 2
 904 685 881 718 821 718 c 2
 249 718 l 2
1000 -84 m 2
 1000 -174 971 -212 881 -212 c 2
 249 -212 l 2
 159 -212 120 -174 120 -84 c 2
 120 625 l 2
 120 708 168 754 249 754 c 2
 851 754 l 2
 941 754 1000 715 1000 625 c 2
 1000 -84 l 2
EndSplineSet
LCarets2: 1 73 
Colour: ff00ff
EndChar

StartChar: uni1E04
Encoding: 7684 7684 133
Width: 1100
VWidth: 999
Flags: HW
HStem: -63 104<456 531> 50 40<429 595> 294 40<450 569> 499 40<428 568>
VStem: 354 96<96 294 334 494> 442 104<-49 26> 589 97<370 477> 624 106<132 252>
LayerCount: 3
Fore
SplineSet
450 453 m 2
 450 322 l 1
 504 322 l 2
 567 322 589 338 589 401 c 0
 589 478 556 487 514 487 c 0
 453 487 450 478 450 453 c 2
450 282 m 1
 450 113 l 2
 450 89 459 78 511 78 c 0
 612 78 624 110 624 164 c 0
 624 232 603 282 516 282 c 2
 450 282 l 1
402 524 m 0
 444 524 483 527 509 527 c 0
 648 527 686 461 686 410 c 0
 686 369 654 329 616 311 c 1
 681 292 730 251 730 179 c 0
 730 114 675 38 525 38 c 0
 459 38 450 41 402 41 c 0
 376 41 348 38 348 38 c 1
 347 41 l 2
 347.3 42.8 347.6 44.5 347.8 46.3 c 1
 328 53.8 314 73.2 314 95 c 0
 314 118.9 330.8 139.9 353.7 145.5 c 1
 353.9 160.2 354 175.5 354 191 c 2
 354 374 l 2
 354 431 353 482 347 524 c 1
 348 527 l 1
 348 527 377 524 402 524 c 0
249 718 m 2
 189 718 156 685 156 625 c 2
 156 -53 l 2
 156 -113 189 -136 249 -136 c 2
 821 -136 l 2
 881 -136 904 -113 904 -53 c 2
 904 625 l 2
 904 685 881 718 821 718 c 2
 249 718 l 2
1000 -84 m 2
 1000 -174 971 -212 881 -212 c 2
 249 -212 l 2
 159 -212 120 -174 120 -84 c 2
 120 625 l 2
 120 708 168 754 249 754 c 2
 851 754 l 2
 941 754 1000 715 1000 625 c 2
 1000 -84 l 2
EndSplineSet
LCarets2: 1 87 
Colour: ff00ff
EndChar

StartChar: uni1E05
Encoding: 7685 7685 134
Width: 1100
VWidth: 999
Flags: HW
HStem: -58 104<467 542> 50 40<484 577> 340 47<497 586> 566 15<457 469>
VStem: 378 88<108 321 346 559> 452 104<-43 32> 617 92<163 304>
LayerCount: 3
Fore
SplineSet
468 113 m 1
 482 94 500 78 524 78 c 0
 595 78 618 128 618 214 c 0
 618 286 592 328 546 328 c 0
 538 328 497 326 468 296 c 1
 468 113 l 1
468 421 m 2
 468 334 l 1
 493 362 525 375 561 375 c 0
 626 375 710 319 710 227 c 0
 710 108 605 38 528 38 c 0
 496 38 474 47 452 66 c 1
 441 56 423 47 416 37 c 1
 409 37 380 38 375 40 c 1
 375.3 41.9 375.6 43.8 375.9 45.6 c 1
 354.9 52.5 340 72.4 340 95 c 0
 340 118.7 356.4 139.4 379 145.3 c 1
 379 407 l 2
 379 464 377 516 372 548 c 1
 373 550 l 1
 403 553 449 562 468 569 c 1
 473 569 475 567 475 562 c 0
 469 516 468 476 468 421 c 2
249 718 m 2
 189 718 156 685 156 625 c 2
 156 -53 l 2
 156 -113 189 -136 249 -136 c 2
 821 -136 l 2
 881 -136 904 -113 904 -53 c 2
 904 625 l 2
 904 685 881 718 821 718 c 2
 249 718 l 2
1000 -84 m 2
 1000 -174 971 -212 881 -212 c 2
 249 -212 l 2
 159 -212 120 -174 120 -84 c 2
 120 625 l 2
 120 708 168 754 249 754 c 2
 851 754 l 2
 941 754 1000 715 1000 625 c 2
 1000 -84 l 2
EndSplineSet
LCarets2: 1 71 
Colour: ff00ff
EndChar

StartChar: uni1E06
Encoding: 7686 7686 135
Width: 1100
VWidth: 999
Flags: HW
HStem: -21 33<380 388 388 588> 56 40<429 596> 300 40<450 570> 504 40<428 568>
VStem: 354 96<102 300 340 500> 589 97<376 482> 624 106<138 258>
LayerCount: 3
Fore
SplineSet
425 -94 m 2
 241 -94 l 2
 235 -94 232 -88 232 -82 c 0
 232 -73 239 -60 249 -60 c 2
 432 -60 l 2
 439 -60 442 -66 442 -71 c 0
 442 -80 435 -94 425 -94 c 2
450 453 m 2
 450 322 l 1
 504 322 l 2
 567 322 589 338 589 401 c 0
 589 478 556 487 514 487 c 0
 453 487 450 478 450 453 c 2
450 282 m 1
 450 113 l 2
 450 89 459 78 511 78 c 0
 612 78 624 110 624 164 c 0
 624 232 603 282 516 282 c 2
 450 282 l 1
402 524 m 0
 444 524 483 527 509 527 c 0
 648 527 686 461 686 410 c 0
 686 369 654 329 616 311 c 1
 681 292 730 251 730 179 c 0
 730 114 675 38 525 38 c 0
 459 38 450 41 402 41 c 0
 376 41 348 38 348 38 c 1
 347 41 l 1
 353 81 354 134 354 191 c 2
 354 374 l 2
 354 431 353 482 347 524 c 1
 348 527 l 1
 348 527 377 524 402 524 c 0
249 718 m 2
 189 718 156 685 156 625 c 2
 156 -53 l 2
 156 -113 189 -136 249 -136 c 2
 821 -136 l 2
 881 -136 904 -113 904 -53 c 2
 904 625 l 2
 904 685 881 718 821 718 c 2
 249 718 l 2
1000 -84 m 2
 1000 -174 971 -212 881 -212 c 2
 249 -212 l 2
 159 -212 120 -174 120 -84 c 2
 120 625 l 2
 120 708 168 754 249 754 c 2
 851 754 l 2
 941 754 1000 715 1000 625 c 2
 1000 -84 l 2
EndSplineSet
LCarets2: 1 87 
Colour: ff00ff
EndChar

StartChar: uni1E07
Encoding: 7687 7687 136
Width: 1100
VWidth: 999
Flags: HW
HStem: -20 33<403 411 411 612> 56 40<486 578> 345 47<499 587> 572 15<459 471>
VStem: 379 88<114 327 351 564> 618 92<168 310>
LayerCount: 3
Fore
SplineSet
462 -97 m 2
 278 -97 l 2
 272 -97 269 -91 269 -85 c 0
 269 -76 276 -63 286 -63 c 2
 469 -63 l 2
 476 -63 479 -69 479 -74 c 0
 479 -83 472 -97 462 -97 c 2
468 113 m 1
 482 94 500 78 524 78 c 0
 595 78 618 128 618 214 c 0
 618 286 592 328 546 328 c 0
 538 328 497 326 468 296 c 1
 468 113 l 1
468 421 m 2
 468 334 l 1
 493 362 525 375 561 375 c 0
 626 375 710 319 710 227 c 0
 710 108 605 38 528 38 c 0
 496 38 474 47 452 66 c 1
 441 56 423 47 416 37 c 1
 409 37 380 38 375 40 c 1
 378 57 379 70 379 99 c 2
 379 407 l 2
 379 464 377 516 372 548 c 1
 373 550 l 1
 403 553 449 562 468 569 c 1
 473 569 475 567 475 562 c 0
 469 516 468 476 468 421 c 2
249 718 m 2
 189 718 156 685 156 625 c 2
 156 -53 l 2
 156 -113 189 -136 249 -136 c 2
 821 -136 l 2
 881 -136 904 -113 904 -53 c 2
 904 625 l 2
 904 685 881 718 821 718 c 2
 249 718 l 2
1000 -84 m 2
 1000 -174 971 -212 881 -212 c 2
 249 -212 l 2
 159 -212 120 -174 120 -84 c 2
 120 625 l 2
 120 708 168 754 249 754 c 2
 851 754 l 2
 941 754 1000 715 1000 625 c 2
 1000 -84 l 2
EndSplineSet
LCarets2: 1 73 
Colour: ff00ff
EndChar

StartChar: uni1E08
Encoding: 7688 7688 137
Width: 1100
VWidth: 999
Flags: HW
HStem: -58 19<479 552> 17 24<531 559> 73 45<483 623> 532 42<483 626> 603 92
VStem: 292 109<228 401> 466 151 564 40<-33 14>
DStem2: 494 17 531 39 0.397156 0.917751<34.5565 71.5>
LayerCount: 3
Fore
SplineSet
599.8 676.6 m 1
 651.5 633.7 l 1
 532.8 585.3 l 2
 515.2 577.6 504.1 575.4 497.5 575.4 c 0
 489.8 575.4 485.5 579.8 485.5 588.6 c 0
 485.5 594.1 487.6 597.4 497.5 605.1 c 2
 599.8 676.6 l 1
499.2 -45.6 m 2
 495.1 -47 l 1
 484.7 -36.6 l 1
 516 34.6 l 1
 367.3 44.2 292 161.1 292 277 c 0
 292 425 427 534 554 534 c 0
 645 534 717 501 717 501 c 1
 719 498 l 1
 710 462 706 439 704 401 c 1
 696 400 l 1
 665 462 611 492 543 492 c 0
 482 492 401 444 401 292 c 0
 401 182 434 78 550 78 c 0
 620 78 671 94 724 153 c 1
 741 135 l 1
 694.9 74.5 623.6 40.9 557.2 35 c 1
 541.2 -4.1 l 1
 543.8 -4 546.4 -4 549 -4 c 0
 583 -4 609 -24.7 609 -57 c 0
 609 -93.6 571.2 -118 522 -118 c 0
 498.9 -118 485.5 -113.9 464.2 -104.4 c 2
 457.9 -101.6 l 1
 470.2 -71.9 l 1
 476.6 -74.5 l 2
 496.7 -82.5 504.1 -85 518 -85 c 0
 538.4 -85 556 -75.4 556 -61 c 0
 556 -50 545.6 -42 531 -42 c 0
 516.8 -42 510.2 -41.9 499.2 -45.6 c 2
249 718 m 2
 189 718 156 685 156 625 c 2
 156 -53 l 2
 156 -113 189 -136 249 -136 c 2
 821 -136 l 2
 881 -136 904 -113 904 -53 c 2
 904 625 l 2
 904 685 881 718 821 718 c 2
 249 718 l 2
1000 -84 m 2
 1000 -174 971 -212 881 -212 c 2
 249 -212 l 2
 159 -212 120 -174 120 -84 c 2
 120 625 l 2
 120 708 168 754 249 754 c 2
 851 754 l 2
 941 754 1000 715 1000 625 c 2
 1000 -84 l 2
EndSplineSet
LCarets2: 1 84 
Colour: ff00ff
EndChar

StartChar: uni1E09
Encoding: 7689 7689 138
Width: 1100
VWidth: 999
Flags: HW
HStem: -72 19<439 512> 4 24<492 519> 55 47<490 592> 351 40<485 582>
VStem: 352 92<153 294> 524 40<-46 1>
DStem2: 455 4 492 26 0.397156 0.917751<34.5565 71.5>
LayerCount: 3
Fore
SplineSet
548.3 578.2 m 1
 550.5 579.3 557.1 580.5 561.5 580.5 c 0
 586.8 580.5 602.2 568.4 608.8 560.7 c 1
 616.5 540.8 l 1
 517.5 451.8 l 2
 506.5 441.9 494.4 438.5 486.7 438.5 c 0
 480.1 438.5 473.5 445.2 473.5 450.7 c 0
 473.5 455.1 474.6 462.8 480.1 470.5 c 2
 548.3 578.2 l 1
488.2 -40.6 m 2
 484.1 -42 l 1
 473.7 -31.6 l 1
 503.9 37.3 l 1
 409.9 47.1 356 110.9 356 200 c 0
 356 306 438 373 539 373 c 0
 576 373 624 361 647 349 c 1
 648 347 l 1
 631 271 l 1
 618 270 l 1
 598 304 567 332 538 332 c 0
 488 332 448 296 448 219 c 0
 448 140 491 85 548 85 c 0
 578 85 607 95 636 131 c 1
 638 131 l 1
 648 125 653 119 654 112 c 1
 636.7 74.6 595.3 42.2 544.9 36.8 c 1
 530.2 0.9 l 1
 532.8 1 535.4 1 538 1 c 0
 572 1 598 -19.7 598 -52 c 0
 598 -88.6 560.2 -113 511 -113 c 0
 487.9 -113 474.5 -108.9 453.2 -99.4 c 2
 446.9 -96.6 l 1
 459.2 -66.9 l 1
 465.6 -69.5 l 2
 485.7 -77.5 493.1 -80 507 -80 c 0
 527.4 -80 545 -70.4 545 -56 c 0
 545 -45 534.6 -37 520 -37 c 0
 505.8 -37 499.2 -36.9 488.2 -40.6 c 2
249 718 m 2
 189 718 156 685 156 625 c 2
 156 -53 l 2
 156 -113 189 -136 249 -136 c 2
 821 -136 l 2
 881 -136 904 -113 904 -53 c 2
 904 625 l 2
 904 685 881 718 821 718 c 2
 249 718 l 2
1000 -84 m 2
 1000 -174 971 -212 881 -212 c 2
 249 -212 l 2
 159 -212 120 -174 120 -84 c 2
 120 625 l 2
 120 708 168 754 249 754 c 2
 851 754 l 2
 941 754 1000 715 1000 625 c 2
 1000 -84 l 2
EndSplineSet
LCarets2: 1 55 
Colour: ff00ff
EndChar

StartChar: uni1E0A
Encoding: 7690 7690 139
Width: 1100
VWidth: 999
Flags: HW
HStem: 110 33<368 565> 565 33<368 533> 642 104<440 515>
VStem: 317 64<149 558> 426 104<656 731> 655 77<247 431>
LayerCount: 3
Fore
SplineSet
413 109 m 2
 413 85 421 79 495 79 c 0
 600 79 671 102 671 254 c 0
 671 369 638 487 476 487 c 0
 439 487 413 483 413 457 c 2
 413 109 l 2
365 524 m 0
 420 524 450 527 504 527 c 0
 648 527 780 411 780 272 c 0
 780 87 624 39 518 39 c 0
 441 39 425 41 365 41 c 0
 339 41 310 38 310 38 c 1
 309 41 l 1
 315 81 317 134 317 191 c 2
 317 374 l 2
 317 431 315 482 309 524 c 1
 311 527 l 1
 311 527 339 524 365 524 c 0
249 718 m 2
 189 718 156 685 156 625 c 2
 156 -53 l 2
 156 -113 189 -136 249 -136 c 2
 821 -136 l 2
 881 -136 904 -113 904 -53 c 2
 904 625 l 2
 904 685 881 718 821 718 c 2
 382 718 l 1
 373.7 700.5 355.9 688 335 688 c 0
 314.1 688 296.3 700.5 288 718 c 1
 249 718 l 2
1000 -84 m 2
 1000 -174 971 -212 881 -212 c 2
 249 -212 l 2
 159 -212 120 -174 120 -84 c 2
 120 625 l 2
 120 708 168 754 249 754 c 2
 285 754 l 1
 291.1 775.6 311 792 335 792 c 0
 359 792 378.9 775.6 385 754 c 1
 851 754 l 2
 941 754 1000 715 1000 625 c 2
 1000 -84 l 2
EndSplineSet
LCarets2: 1 101 
Colour: ff00ff
EndChar

StartChar: uni1E0B
Encoding: 7691 7691 140
Width: 1100
VWidth: 999
Flags: HW
HStem: 83 50<443 525> 88 16<583 590 668 674> 379 40<447 550> 489 104<439 514> 599 15<653 665>
VStem: 318 92<170 313> 425 104<504 578> 573 88<163 357 403 591>
LayerCount: 3
Fore
SplineSet
315 609 m 0
 315 637 338 661 367 661 c 0
 396 661 419 637 419 609 c 0
 419 581 396 557 367 557 c 0
 338 557 315 581 315 609 c 0
566 131 m 1
 566 287 l 1
 548 316 537 332 502 332 c 0
 466 332 410 321 410 209 c 0
 410 115 445 85 485 85 c 0
 516 85 538 97 566 131 c 1
566 91 m 1
 539 56 502 35 466 35 c 0
 385 35 318 103 318 195 c 0
 318 297 412 372 510 372 c 0
 525 372 548 365 566 356 c 1
 566 405 l 2
 566 461 564 513 558 545 c 1
 560 548 l 1
 590 550 636 559 655 567 c 1
 660 567 662 564 662 559 c 0
 656 513 654 473 654 418 c 2
 654 187 l 2
 654 131 661 75 667 43 c 1
 665 41 l 1
 656 42 627 43 618 43 c 0
 607 43 588 42 578 41 c 0
 573 41 571 41 571 43 c 2
 567 91 l 1
 566 91 l 1
249 718 m 2
 189 718 156 685 156 625 c 2
 156 -53 l 2
 156 -113 189 -136 249 -136 c 2
 821 -136 l 2
 881 -136 904 -113 904 -53 c 2
 904 625 l 2
 904 685 881 718 821 718 c 2
 249 718 l 2
1000 -84 m 2
 1000 -174 971 -212 881 -212 c 2
 249 -212 l 2
 159 -212 120 -174 120 -84 c 2
 120 625 l 2
 120 708 168 754 249 754 c 2
 851 754 l 2
 941 754 1000 715 1000 625 c 2
 1000 -84 l 2
EndSplineSet
LCarets2: 1 68 
Colour: ff00ff
EndChar

StartChar: uni1E0C
Encoding: 7692 7692 141
Width: 1100
VWidth: 999
Flags: HW
HStem: -63 104<435 510> 51 33<368 565> 506 33<368 533>
VStem: 317 64<90 498> 421 104<-49 26> 655 77<187 372>
LayerCount: 3
Fore
SplineSet
413 109 m 2
 413 85 421 79 495 79 c 0
 600 79 671 102 671 254 c 0
 671 369 638 487 476 487 c 0
 439 487 413 483 413 457 c 2
 413 109 l 2
365 524 m 0
 420 524 450 527 504 527 c 0
 648 527 780 411 780 272 c 0
 780 87 624 39 518 39 c 0
 441 39 425 41 365 41 c 0
 339 41 310 38 310 38 c 1
 309 41 l 2
 309.3 43.1 309.6 45.3 309.9 47.5 c 1
 291.6 55.7 279 74.3 279 95 c 0
 279 118.1 294.7 138.5 316.5 144.9 c 1
 316.8 159.8 317 175.3 317 191 c 2
 317 374 l 2
 317 431 315 482 309 524 c 1
 311 527 l 1
 311 527 339 524 365 524 c 0
249 718 m 2
 189 718 156 685 156 625 c 2
 156 -53 l 2
 156 -113 189 -136 249 -136 c 2
 821 -136 l 2
 881 -136 904 -113 904 -53 c 2
 904 625 l 2
 904 685 881 718 821 718 c 2
 249 718 l 2
1000 -84 m 2
 1000 -174 971 -212 881 -212 c 2
 249 -212 l 2
 159 -212 120 -174 120 -84 c 2
 120 625 l 2
 120 708 168 754 249 754 c 2
 851 754 l 2
 941 754 1000 715 1000 625 c 2
 1000 -84 l 2
EndSplineSet
LCarets2: 1 101 
Colour: ff00ff
EndChar

StartChar: uni1E0D
Encoding: 7693 7693 142
Width: 1100
VWidth: 999
Flags: HW
HStem: -58 104<479 554> 50 50<443 525> 56 16<583 590 668 674> 347 40<447 550> 566 15<653 665>
VStem: 318 92<138 281> 465 104<-43 32> 573 88<130 324 371 559>
LayerCount: 3
Fore
SplineSet
566 131 m 1
 566 287 l 1
 548 316 537 332 502 332 c 0
 466 332 410 321 410 209 c 0
 410 183.6 412.6 162.9 417.1 146.2 c 1
 441.7 141.8 460 120 460 95 c 0
 460 93.2 459.9 91.5 459.7 89.7 c 1
 467.7 86.5 476.2 85 485 85 c 0
 516 85 538 97 566 131 c 1
566 91 m 1
 539 56 502 35 466 35 c 0
 448.8 35 432.3 38.1 416.9 43.8 c 1
 414 43.3 411 43 408 43 c 0
 382.2 43 361.2 61.9 356.8 85.8 c 1
 332.7 113.9 318 151.8 318 195 c 0
 318 297 412 372 510 372 c 0
 525 372 548 365 566 356 c 1
 566 405 l 2
 566 461 564 513 558 545 c 1
 560 548 l 1
 590 550 636 559 655 567 c 1
 660 567 662 564 662 559 c 0
 656 513 654 473 654 418 c 2
 654 187 l 2
 654 131 661 75 667 43 c 1
 665 41 l 1
 656 42 627 43 618 43 c 0
 607 43 588 42 578 41 c 0
 573 41 571 41 571 43 c 2
 567 91 l 1
 566 91 l 1
249 718 m 2
 189 718 156 685 156 625 c 2
 156 -53 l 2
 156 -113 189 -136 249 -136 c 2
 821 -136 l 2
 881 -136 904 -113 904 -53 c 2
 904 625 l 2
 904 685 881 718 821 718 c 2
 249 718 l 2
1000 -84 m 2
 1000 -174 971 -212 881 -212 c 2
 249 -212 l 2
 159 -212 120 -174 120 -84 c 2
 120 625 l 2
 120 708 168 754 249 754 c 2
 851 754 l 2
 941 754 1000 715 1000 625 c 2
 1000 -84 l 2
EndSplineSet
LCarets2: 1 68 
Colour: ff00ff
EndChar

StartChar: uni1E0E
Encoding: 7694 7694 143
Width: 1100
VWidth: 999
Flags: HW
HStem: -20 33<349 357 357 558> 57 33<368 565> 511 33<368 533>
VStem: 317 64<95 504> 655 77<193 377>
LayerCount: 3
Fore
SplineSet
380 -94 m 2
 196 -94 l 2
 190 -94 187 -88 187 -82 c 0
 187 -73 194 -60 204 -60 c 2
 387 -60 l 2
 394 -60 397 -66 397 -71 c 0
 397 -80 390 -94 380 -94 c 2
413 109 m 2
 413 85 421 79 495 79 c 0
 600 79 671 102 671 254 c 0
 671 369 638 487 476 487 c 0
 439 487 413 483 413 457 c 2
 413 109 l 2
365 524 m 0
 420 524 450 527 504 527 c 0
 648 527 780 411 780 272 c 0
 780 87 624 39 518 39 c 0
 441 39 425 41 365 41 c 0
 339 41 310 38 310 38 c 1
 309 41 l 1
 315 81 317 134 317 191 c 2
 317 374 l 2
 317 431 315 482 309 524 c 1
 311 527 l 1
 311 527 339 524 365 524 c 0
249 718 m 2
 189 718 156 685 156 625 c 2
 156 -53 l 2
 156 -113 189 -136 249 -136 c 2
 821 -136 l 2
 881 -136 904 -113 904 -53 c 2
 904 625 l 2
 904 685 881 718 821 718 c 2
 249 718 l 2
1000 -84 m 2
 1000 -174 971 -212 881 -212 c 2
 249 -212 l 2
 159 -212 120 -174 120 -84 c 2
 120 625 l 2
 120 708 168 754 249 754 c 2
 851 754 l 2
 941 754 1000 715 1000 625 c 2
 1000 -84 l 2
EndSplineSet
LCarets2: 1 101 
Colour: ff00ff
EndChar

StartChar: uni1E0F
Encoding: 7695 7695 144
Width: 1100
VWidth: 999
Flags: HW
HStem: -18 33<398 406 406 606> 56 50<443 525> 61 16<583 590 668 674> 352 40<447 550> 572 15<653 665>
VStem: 318 92<143 286> 573 88<136 330 376 564>
LayerCount: 3
Fore
SplineSet
462 -96 m 2
 278 -96 l 2
 272 -96 269 -90 269 -84 c 0
 269 -75 276 -62 286 -62 c 2
 469 -62 l 2
 476 -62 479 -68 479 -73 c 0
 479 -82 472 -96 462 -96 c 2
566 131 m 1
 566 287 l 1
 548 316 537 332 502 332 c 0
 466 332 410 321 410 209 c 0
 410 115 445 85 485 85 c 0
 516 85 538 97 566 131 c 1
566 91 m 1
 539 56 502 35 466 35 c 0
 385 35 318 103 318 195 c 0
 318 297 412 372 510 372 c 0
 525 372 548 365 566 356 c 1
 566 405 l 2
 566 461 564 513 558 545 c 1
 560 548 l 1
 590 550 636 559 655 567 c 1
 660 567 662 564 662 559 c 0
 656 513 654 473 654 418 c 2
 654 187 l 2
 654 131 661 75 667 43 c 1
 665 41 l 1
 656 42 627 43 618 43 c 0
 607 43 588 42 578 41 c 0
 573 41 571 41 571 43 c 2
 567 91 l 1
 566 91 l 1
249 718 m 2
 189 718 156 685 156 625 c 2
 156 -53 l 2
 156 -113 189 -136 249 -136 c 2
 821 -136 l 2
 881 -136 904 -113 904 -53 c 2
 904 625 l 2
 904 685 881 718 821 718 c 2
 249 718 l 2
1000 -84 m 2
 1000 -174 971 -212 881 -212 c 2
 249 -212 l 2
 159 -212 120 -174 120 -84 c 2
 120 625 l 2
 120 708 168 754 249 754 c 2
 851 754 l 2
 941 754 1000 715 1000 625 c 2
 1000 -84 l 2
EndSplineSet
LCarets2: 1 68 
Colour: ff00ff
EndChar

StartChar: uni1E10
Encoding: 7696 7696 145
Width: 1100
VWidth: 999
Flags: HW
HStem: -85 19<296 369> -9 24<349 376> 50 33<345 543> 504 33<346 511>
VStem: 294 64<88 497> 382 40<-59 -12> 633 77<186 370>
DStem2: 312 -9 348 13 0.397156 0.917751<34.5565 71.5>
LayerCount: 3
Fore
SplineSet
-29 718 m 2
 -89 718 -122 685 -122 625 c 2
 -122 -53 l 2
 -122 -113 -89 -136 -29 -136 c 2
 125.8 -136 l 1
 121.9 -121.1 120 -103.8 120 -84 c 2
 120 625 l 2
 120 664.9 131.1 696.2 151.6 718 c 1
 -29 718 l 2
365 524 m 0
 420 524 450 527 504 527 c 0
 546.8 527 588.5 516.7 626 498.7 c 1
 626 625 l 2
 626 685 603 718 543 718 c 2
 249 718 l 2
 189 718 156 685 156 625 c 2
 156 -53 l 2
 156 -113 189 -136 249 -136 c 2
 543 -136 l 2
 603 -136 626 -113 626 -53 c 2
 626 55.9 l 1
 589.3 43.7 551.2 39 518 39 c 0
 441 39 425 41 365 41 c 0
 339 41 310 38 310 38 c 1
 309 41 l 1
 309.4 43.8 309.8 46.7 310.2 49.7 c 1
 303 51.9 295.8 54.8 287.2 58.6 c 2
 280.9 61.4 l 1
 293.2 91.1 l 1
 299.6 88.5 l 2
 305.1 86.3 309.6 84.5 313.6 83.1 c 1
 314.5 94.4 315.2 106.1 315.7 118.4 c 1
 307.7 126.4 l 1
 316.5 146.6 l 1
 316.8 161 317 175.9 317 191 c 2
 317 374 l 2
 317 431 315 482 309 524 c 1
 311 527 l 1
 311 527 339 524 365 524 c 0
1000 -84 m 2
 1000 -174 971 -212 881 -212 c 2
 603 -212 l 1
 249 -212 l 1
 -29 -212 l 2
 -119 -212 -158 -174 -158 -84 c 2
 -158 625 l 2
 -158 708 -110 754 -29 754 c 2
 249 754 l 1
 573 754 l 1
 851 754 l 2
 941 754 1000 715 1000 625 c 2
 1000 -84 l 2
413 146 m 1
 424.8 136.8 432 123 432 106 c 0
 432 98.3 430.3 91.1 427.2 84.6 c 1
 438.6 80.4 459 79 495 79 c 0
 549.6 79 595 85.2 626 112.5 c 1
 626 425.2 l 1
 596.7 462.6 549.7 487 476 487 c 0
 439 487 413 483 413 457 c 2
 413 146 l 1
722 113.8 m 1
 722 -84 l 2
 722 -103.8 720.5 -121.1 717.4 -136 c 1
 821 -136 l 2
 881 -136 904 -113 904 -53 c 2
 904 625 l 2
 904 685 881 718 821 718 c 2
 687.3 718 l 1
 709.5 697 722 666.4 722 625 c 2
 722 424.6 l 1
 757.9 381.8 780 328.8 780 272 c 0
 780 200.5 756.7 149.5 722 113.8 c 1
EndSplineSet
LCarets2: 1 79 
Colour: ff00ff
EndChar

StartChar: uni1E11
Encoding: 7697 7697 146
Width: 1100
VWidth: 999
Flags: HW
HStem: -76 19<437 510> 0 24<489 517> 50 50<442 524> 55 16<582 589 667 673> 346 40<445 548> 566 15<652 663>
VStem: 317 92<137 280> 522 40<-50 -3> 572 88<129 323 370 558>
DStem2: 452 0 489 22 0.397156 0.917751<34.5565 71.5>
LayerCount: 3
Fore
SplineSet
123 721 m 2
 63 721 30 688 30 628 c 2
 30 -50 l 2
 30 -110 63 -133 123 -133 c 2
 125 -133 l 1
 121.6 -118.8 120 -102.5 120 -84 c 2
 120 625 l 2
 120 666.7 132.1 699.1 154.5 721 c 1
 123 721 l 2
474.2 120.4 m 2
 470.1 119 l 1
 459.7 129.4 l 1
 492.4 204 l 1
 533.4 204 l 1
 516.2 161.9 l 1
 518.8 162 521.4 162 524 162 c 0
 540.6 162 555.3 157 566 148.2 c 1
 566 287 l 1
 548 316 537 332 502 332 c 0
 466 332 410 321 410 209 c 0
 410 115 445 85 485 85 c 0
 501.3 85 515.2 88.4 528.7 96.5 c 1
 530.2 99.1 531 101.9 531 105 c 0
 531 116 520.6 124 506 124 c 0
 491.8 124 485.2 124.1 474.2 120.4 c 2
249 718 m 2
 189 718 156 685 156 625 c 2
 156 -53 l 2
 156 -100.7 176.9 -125.1 215.7 -133 c 1
 695 -133 l 2
 755 -133 778 -110 778 -50 c 2
 778 628 l 2
 778 677.5 762.4 708.6 723.2 718 c 1
 249 718 l 2
1000 -84 m 2
 1000 -174 971 -212 881 -212 c 2
 249 -212 l 2
 234.5 -212 221.4 -211 209.5 -209 c 1
 123 -209 l 2
 33 -209 -6 -171 -6 -81 c 2
 -6 628 l 2
 -6 711 42 757 123 757 c 2
 725 757 l 2
 739.3 757 752.8 756 765.4 754 c 1
 851 754 l 2
 941 754 1000 715 1000 625 c 2
 1000 -84 l 2
568.5 72.7 m 1
 556.9 61.1 539.6 53 519.1 49.7 c 1
 502 40.2 483.9 35 466 35 c 0
 385 35 318 103 318 195 c 0
 318 297 412 372 510 372 c 0
 525 372 548 365 566 356 c 1
 566 405 l 2
 566 461 564 513 558 545 c 1
 560 548 l 1
 590 550 636 559 655 567 c 1
 660 567 662 564 662 559 c 0
 656 513 654 473 654 418 c 2
 654 187 l 2
 654 131 661 75 667 43 c 1
 665 41 l 1
 656 42 627 43 618 43 c 0
 607 43 588 42 578 41 c 0
 573 41 571 41 571 43 c 2
 568.5 72.7 l 1
844.2 716.1 m 1
 863.4 695.4 874 666.3 874 628 c 2
 874 -81 l 2
 874 -98.3 873 -113.7 870.6 -127.2 c 1
 894.2 -115.7 904 -92.2 904 -53 c 2
 904 625 l 2
 904 676.6 887.1 708.2 844.2 716.1 c 1
EndSplineSet
LCarets2: 1 67 
Colour: ff00ff
EndChar

StartChar: uni1E12
Encoding: 7698 7698 147
Width: 1100
VWidth: 999
Flags: HW
HStem: 47 33<359 557> 501 33<360 525>
VStem: 308 64<85 494> 338 190<-91 -91> 647 77<183 367>
LayerCount: 3
Fore
SplineSet
429 20.8 m 1
 454.3 -19.9 485 -56.2 515.8 -90.3 c 1
 495 -105.8 l 1
 459.8 -83.8 435.6 -67.2 407 -37.5 c 1
 376.2 -69.4 353 -83.8 320 -105.8 c 1
 299.2 -90.3 l 1
 328.9 -56.2 361.8 -18.8 386 20.8 c 1
 429 20.8 l 1
413 109 m 2
 413 85 421 79 495 79 c 0
 600 79 671 102 671 254 c 0
 671 369 638 487 476 487 c 0
 439 487 413 483 413 457 c 2
 413 109 l 2
365 524 m 0
 420 524 450 527 504 527 c 0
 648 527 780 411 780 272 c 0
 780 87 624 39 518 39 c 0
 441 39 425 41 365 41 c 0
 339 41 310 38 310 38 c 1
 309 41 l 1
 315 81 317 134 317 191 c 2
 317 374 l 2
 317 431 315 482 309 524 c 1
 311 527 l 1
 311 527 339 524 365 524 c 0
249 718 m 2
 189 718 156 685 156 625 c 2
 156 -53 l 2
 156 -113 189 -136 249 -136 c 2
 821 -136 l 2
 881 -136 904 -113 904 -53 c 2
 904 625 l 2
 904 685 881 718 821 718 c 2
 249 718 l 2
1000 -84 m 2
 1000 -174 971 -212 881 -212 c 2
 249 -212 l 2
 159 -212 120 -174 120 -84 c 2
 120 625 l 2
 120 708 168 754 249 754 c 2
 851 754 l 2
 941 754 1000 715 1000 625 c 2
 1000 -84 l 2
EndSplineSet
LCarets2: 1 93 
Colour: ff00ff
EndChar

StartChar: uni1E13
Encoding: 7699 7699 148
Width: 1100
VWidth: 999
Flags: HW
HStem: 46 50<443 525> 51 16<583 590 668 674> 342 40<447 550> 562 15<653 665>
VStem: 318 92<134 276> 393 190<-86 -86> 573 88<126 320 366 555>
LayerCount: 3
Fore
SplineSet
509 20.8 m 1
 534.3 -19.9 565 -56.2 595.8 -90.3 c 1
 575 -105.8 l 1
 539.8 -83.8 515.6 -67.2 487 -37.5 c 1
 456.2 -69.4 433 -83.8 400 -105.8 c 1
 379.2 -90.3 l 1
 408.9 -56.2 441.8 -18.8 466 20.8 c 1
 509 20.8 l 1
566 131 m 1
 566 287 l 1
 548 316 537 332 502 332 c 0
 466 332 410 321 410 209 c 0
 410 115 445 85 485 85 c 0
 516 85 538 97 566 131 c 1
566 91 m 1
 539 56 502 35 466 35 c 0
 385 35 318 103 318 195 c 0
 318 297 412 372 510 372 c 0
 525 372 548 365 566 356 c 1
 566 405 l 2
 566 461 564 513 558 545 c 1
 560 548 l 1
 590 550 636 559 655 567 c 1
 660 567 662 564 662 559 c 0
 656 513 654 473 654 418 c 2
 654 187 l 2
 654 131 661 75 667 43 c 1
 665 41 l 1
 656 42 627 43 618 43 c 0
 607 43 588 42 578 41 c 0
 573 41 571 41 571 43 c 2
 567 91 l 1
 566 91 l 1
249 718 m 2
 189 718 156 685 156 625 c 2
 156 -53 l 2
 156 -113 189 -136 249 -136 c 2
 821 -136 l 2
 881 -136 904 -113 904 -53 c 2
 904 625 l 2
 904 685 881 718 821 718 c 2
 249 718 l 2
1000 -84 m 2
 1000 -174 971 -212 881 -212 c 2
 249 -212 l 2
 159 -212 120 -174 120 -84 c 2
 120 625 l 2
 120 708 168 754 249 754 c 2
 851 754 l 2
 941 754 1000 715 1000 625 c 2
 1000 -84 l 2
EndSplineSet
LCarets2: 1 68 
Colour: ff00ff
EndChar

StartChar: uni1E14
Encoding: 7700 7700 149
Width: 1100
VWidth: 999
Flags: HW
HStem: 112 47<437 611> 349 38<434 596> 543 16<440 645> 552 44<437 606> 662 33<389 598>
VStem: 338 96<160 349 387 551> 388 211<662 695>
LayerCount: 3
Fore
SplineSet
495 679 m 2
 290 679 l 2
 281 679 278 686 278 693 c 0
 278 702 287 717 297 717 c 2
 504 717 l 2
 512 717 515 710 515 704 c 0
 515 694 506 679 495 679 c 2
453 191 m 2
 453 178 454 106 459 88 c 1
 560 88 671 97 671 97 c 1
 672 94 l 1
 672 88 671 75 671 68 c 0
 671 60 672 51 672 41 c 1
 671 38 l 1
 659 40 642 41 626 41 c 2
 405 41 l 2
 379 41 350 38 350 38 c 1
 350 41 l 1
 356 81 357 134 357 191 c 2
 357 374 l 2
 357 431 356 482 350 524 c 1
 351 527 l 1
 351 527 380 524 405 524 c 0
 428 524 618 524 618 524 c 2
 634 524 651 525 663 527 c 1
 665 524 l 1
 664 514 663 504 663 498 c 0
 663 491 664 481 665 475 c 1
 663 472 l 1
 663 472 560 481 459 481 c 1
 454 463 453 387 453 374 c 2
 453 316 l 1
 542 316 576 320 620 323 c 1
 623 321 l 1
 621 314 620 304 620 297 c 0
 620 290 621 279 623 272 c 1
 620 270 l 1
 569 275 489 278 453 278 c 1
 453 191 l 2
249 718 m 2
 189 718 156 685 156 625 c 2
 156 -53 l 2
 156 -113 189 -136 249 -136 c 2
 821 -136 l 2
 881 -136 904 -113 904 -53 c 2
 904 625 l 2
 904 685 881 718 821 718 c 2
 249 718 l 2
1000 -84 m 2
 1000 -174 971 -212 881 -212 c 2
 249 -212 l 2
 159 -212 120 -174 120 -84 c 2
 120 625 l 2
 120 708 168 754 249 754 c 2
 851 754 l 2
 941 754 1000 715 1000 625 c 2
 1000 -84 l 2
310.7 677.8 m 1
 387.8 616.9 l 2
 395.4 611.1 397.1 606.2 397.1 601.4 c 0
 397.1 594.6 394.6 590.7 387.8 590.7 c 0
 382.7 590.7 374.3 592.6 360.7 599.4 c 2
 263.3 644.9 l 1
 310.7 677.8 l 1
EndSplineSet
LCarets2: 1 56 
Colour: ff00ff
EndChar

StartChar: uni1E15
Encoding: 7701 7701 150
Width: 1100
VWidth: 999
Flags: HW
HStem: 92 51<497 612> 282 33<454 579> 392 37<486 565> 503 33<400 609>
VStem: 358 94<195 282 315 324> 400 211<503 536> 580 95<290 357>
LayerCount: 3
Fore
SplineSet
519.1 650.5 m 1
 564.9 559.4 l 2
 567.5 553.5 570.2 545.5 570.2 539.6 c 0
 570.2 532.7 564.9 527.7 559.6 527.7 c 0
 554.3 527.7 547.2 531.7 535.8 542.6 c 2
 529.2 549.2 l 1
 526 541 519 533 511 533 c 2
 306 533 l 2
 297 533 294 540 294 547 c 0
 294 556 303 571 313 571 c 2
 507.1 571 l 1
 456.6 620.8 l 1
 457.5 628.7 l 1
 462.8 635.6 482.1 652.5 505.9 652.5 c 0
 509.4 652.5 516.5 651.5 519.1 650.5 c 1
463 259 m 1
 570 259 l 2
 578 259 581 263 581 269 c 0
 581 323 562 336 534 336 c 0
 517 336 474 326 463 259 c 1
666 129 m 1
 677 123 682 114 682 103 c 1
 653 64 597 36 543 36 c 0
 431 36 366 107 366 193 c 0
 366 307 463 373 534 373 c 0
 634 373 676 302 676 239 c 0
 676 230 671 226 663 226 c 2
 461 226 l 1
 461 120 515 87 558 87 c 0
 599 87 640 101 666 129 c 1
249 718 m 2
 189 718 156 685 156 625 c 2
 156 -53 l 2
 156 -113 189 -136 249 -136 c 2
 821 -136 l 2
 881 -136 904 -113 904 -53 c 2
 904 625 l 2
 904 685 881 718 821 718 c 2
 249 718 l 2
1000 -84 m 2
 1000 -174 971 -212 881 -212 c 2
 249 -212 l 2
 159 -212 120 -174 120 -84 c 2
 120 625 l 2
 120 708 168 754 249 754 c 2
 851 754 l 2
 941 754 1000 715 1000 625 c 2
 1000 -84 l 2
EndSplineSet
LCarets2: 1 52 
Colour: ff00ff
EndChar

StartChar: uni1E16
Encoding: 7702 7702 151
Width: 1100
VWidth: 999
Flags: HW
HStem: 112 47<456 630> 349 38<453 615> 543 16<459 664> 552 44<456 625> 655 81 662 33<365 574>
VStem: 357 96<160 349 387 551> 364 211<662 695> 606 116
LayerCount: 3
Fore
SplineSet
453 679 m 2
 248 679 l 2
 239 679 236 686 236 693 c 0
 236 702 245 717 255 717 c 2
 462 717 l 2
 470 717 473 710 473 704 c 0
 473 694 464 679 453 679 c 2
453 191 m 2
 453 178 454 106 459 88 c 1
 560 88 671 97 671 97 c 1
 672 94 l 1
 672 88 671 75 671 68 c 0
 671 60 672 51 672 41 c 1
 671 38 l 1
 659 40 642 41 626 41 c 2
 405 41 l 2
 379 41 350 38 350 38 c 1
 350 41 l 1
 356 81 357 134 357 191 c 2
 357 374 l 2
 357 431 356 482 350 524 c 1
 351 527 l 1
 351 527 380 524 405 524 c 0
 428 524 618 524 618 524 c 2
 634 524 651 525 663 527 c 1
 665 524 l 1
 664 514 663 504 663 498 c 0
 663 491 664 481 665 475 c 1
 663 472 l 1
 663 472 560 481 459 481 c 1
 454 463 453 387 453 374 c 2
 453 316 l 1
 542 316 576 320 620 323 c 1
 623 321 l 1
 621 314 620 304 620 297 c 0
 620 290 621 279 623 272 c 1
 620 270 l 1
 569 275 489 278 453 278 c 1
 453 191 l 2
249 718 m 2
 189 718 156 685 156 625 c 2
 156 -53 l 2
 156 -113 189 -136 249 -136 c 2
 821 -136 l 2
 881 -136 904 -113 904 -53 c 2
 904 625 l 2
 904 685 881 718 821 718 c 2
 249 718 l 2
1000 -84 m 2
 1000 -174 971 -212 881 -212 c 2
 249 -212 l 2
 159 -212 120 -174 120 -84 c 2
 120 625 l 2
 120 708 168 754 249 754 c 2
 851 754 l 2
 941 754 1000 715 1000 625 c 2
 1000 -84 l 2
698.8 678.7 m 1
 738.6 640.9 l 1
 647.1 598.3 l 2
 633.5 591.5 625.1 589.6 620 589.6 c 0
 614.1 589.6 610.7 593.5 610.7 601.2 c 0
 610.7 606 612.4 609 620 615.8 c 2
 698.8 678.7 l 1
EndSplineSet
LCarets2: 1 75 
Colour: ff00ff
EndChar

StartChar: uni1E17
Encoding: 7703 7703 152
Width: 1100
VWidth: 999
Flags: HW
HStem: 91 51<497 612> 281 33<454 579> 391 37<486 565> 502 33<400 609>
VStem: 358 94<194 281 314 323> 400 211<503 535> 580 95<290 356>
LayerCount: 3
Fore
SplineSet
521.4 637.6 m 1
 523.2 638.6 528.5 639.6 532 639.6 c 0
 552.2 639.6 564.5 628.7 569.8 621.8 c 1
 576 604 l 1
 531 558.4 l 1
 531 558 l 2
 531 548 522 533 511 533 c 2
 505.9 533 l 1
 496.8 523.8 l 2
 488 514.9 478.4 511.9 472.2 511.9 c 0
 466.9 511.9 461.6 517.8 461.6 522.8 c 0
 461.6 525.3 462 528.9 463.3 533 c 1
 306 533 l 2
 297 533 294 540 294 547 c 0
 294 556 303 571 313 571 c 2
 484 571 l 1
 521.4 637.6 l 1
463 259 m 1
 570 259 l 2
 578 259 581 263 581 269 c 0
 581 323 562 336 534 336 c 0
 517 336 474 326 463 259 c 1
666 129 m 1
 677 123 682 114 682 103 c 1
 653 64 597 36 543 36 c 0
 431 36 366 107 366 193 c 0
 366 307 463 373 534 373 c 0
 634 373 676 302 676 239 c 0
 676 230 671 226 663 226 c 2
 461 226 l 1
 461 120 515 87 558 87 c 0
 599 87 640 101 666 129 c 1
249 718 m 2
 189 718 156 685 156 625 c 2
 156 -53 l 2
 156 -113 189 -136 249 -136 c 2
 821 -136 l 2
 881 -136 904 -113 904 -53 c 2
 904 625 l 2
 904 685 881 718 821 718 c 2
 249 718 l 2
1000 -84 m 2
 1000 -174 971 -212 881 -212 c 2
 249 -212 l 2
 159 -212 120 -174 120 -84 c 2
 120 625 l 2
 120 708 168 754 249 754 c 2
 851 754 l 2
 941 754 1000 715 1000 625 c 2
 1000 -84 l 2
EndSplineSet
LCarets2: 1 52 
Colour: ff00ff
EndChar

StartChar: uni1E18
Encoding: 7704 7704 153
Width: 1100
VWidth: 999
Flags: HW
HStem: 48 47<453 626> 285 38<449 612> 480 16<455 661> 488 44<453 621>
VStem: 353 96<96 285 324 487> 392 190<-91 -91>
LayerCount: 3
Fore
SplineSet
505 20.8 m 1
 530.3 -19.9 561 -56.2 591.8 -90.3 c 1
 571 -105.8 l 1
 535.8 -83.8 511.6 -67.2 483 -37.5 c 1
 452.2 -69.4 429 -83.8 396 -105.8 c 1
 375.2 -90.3 l 1
 404.9 -56.2 437.8 -18.8 462 20.8 c 1
 505 20.8 l 1
453 191 m 2
 453 178 454 106 459 88 c 1
 560 88 671 97 671 97 c 1
 672 94 l 1
 672 88 671 75 671 68 c 0
 671 60 672 51 672 41 c 1
 671 38 l 1
 659 40 642 41 626 41 c 2
 405 41 l 2
 379 41 350 38 350 38 c 1
 350 41 l 1
 356 81 357 134 357 191 c 2
 357 374 l 2
 357 431 356 482 350 524 c 1
 351 527 l 1
 351 527 380 524 405 524 c 0
 428 524 618 524 618 524 c 2
 634 524 651 525 663 527 c 1
 665 524 l 1
 664 514 663 504 663 498 c 0
 663 491 664 481 665 475 c 1
 663 472 l 1
 663 472 560 481 459 481 c 1
 454 463 453 387 453 374 c 2
 453 316 l 1
 542 316 576 320 620 323 c 1
 623 321 l 1
 621 314 620 304 620 297 c 0
 620 290 621 279 623 272 c 1
 620 270 l 1
 569 275 489 278 453 278 c 1
 453 191 l 2
249 718 m 2
 189 718 156 685 156 625 c 2
 156 -53 l 2
 156 -113 189 -136 249 -136 c 2
 821 -136 l 2
 881 -136 904 -113 904 -53 c 2
 904 625 l 2
 904 685 881 718 821 718 c 2
 249 718 l 2
1000 -84 m 2
 1000 -174 971 -212 881 -212 c 2
 249 -212 l 2
 159 -212 120 -174 120 -84 c 2
 120 625 l 2
 120 708 168 754 249 754 c 2
 851 754 l 2
 941 754 1000 715 1000 625 c 2
 1000 -84 l 2
EndSplineSet
LCarets2: 1 71 
Colour: ff00ff
EndChar

StartChar: uni1E19
Encoding: 7705 7705 154
Width: 1100
VWidth: 999
Flags: HW
HStem: 18 51<502 617> 208 33<460 585> 318 37<491 570>
VStem: 363 94<121 208 240 250> 408 190<-114 -114> 585 95<216 282>
LayerCount: 3
Fore
SplineSet
535 20.8 m 1
 560.3 -19.9 591 -56.2 621.8 -90.3 c 1
 601 -105.8 l 1
 565.8 -83.8 541.6 -67.2 513 -37.5 c 1
 482.2 -69.4 459 -83.8 426 -105.8 c 1
 405.2 -90.3 l 1
 434.9 -56.2 467.8 -18.8 492 20.8 c 1
 535 20.8 l 1
463 259 m 1
 570 259 l 2
 578 259 581 263 581 269 c 0
 581 323 562 336 534 336 c 0
 517 336 474 326 463 259 c 1
666 129 m 1
 677 123 682 114 682 103 c 1
 653 64 597 36 543 36 c 0
 431 36 366 107 366 193 c 0
 366 307 463 373 534 373 c 0
 634 373 676 302 676 239 c 0
 676 230 671 226 663 226 c 2
 461 226 l 1
 461 120 515 87 558 87 c 0
 599 87 640 101 666 129 c 1
249 718 m 2
 189 718 156 685 156 625 c 2
 156 -53 l 2
 156 -113 189 -136 249 -136 c 2
 821 -136 l 2
 881 -136 904 -113 904 -53 c 2
 904 625 l 2
 904 685 881 718 821 718 c 2
 249 718 l 2
1000 -84 m 2
 1000 -174 971 -212 881 -212 c 2
 249 -212 l 2
 159 -212 120 -174 120 -84 c 2
 120 625 l 2
 120 708 168 754 249 754 c 2
 851 754 l 2
 941 754 1000 715 1000 625 c 2
 1000 -84 l 2
EndSplineSet
LCarets2: 1 57 
Colour: ff00ff
EndChar

